<svg width="51" height="83" viewBox="0 0 51 83" fill="none" xmlns="http://www.w3.org/2000/svg">
<g id="Layer_1" clip-path="url(#clip0_3096_21650)">
<path id="Vector" d="M27.1678 2.02773C27.6208 1.95361 27.5089 1.35274 28.0365 1.65185C28.3003 2.06479 29.169 1.83979 29.0571 2.55184C28.9825 3.22683 28.4895 3.79065 28.3776 4.46564C28.0365 4.76475 28.2257 5.2518 28.0365 5.59062C28.1138 5.92944 28.1511 6.52767 27.8473 6.82943C28.263 7.35354 27.6208 7.80353 27.7727 8.4044C26.904 8.89146 26.2245 8.06559 25.5077 7.84059C25.2439 7.50177 24.8655 7.23972 24.8282 6.75266C24.9028 5.55356 25.9234 4.72769 25.8861 3.45183C25.7715 3.22683 25.6596 3.48889 25.545 3.45183C25.4331 3.26389 25.545 3.03889 25.6596 2.88801C26.038 2.8139 25.6969 2.47508 25.8115 2.25008C25.4331 1.95097 25.3212 0.937158 24.5644 1.27598C24.3006 0.976864 24.186 1.6148 23.9222 1.50097C23.5811 1.72597 23.6184 2.13891 23.24 2.3639C23.1255 2.25008 23.0508 2.3639 22.9762 2.43802C22.8243 3.07595 22.0676 3.33801 21.8411 3.82506C21.8784 4.05006 21.6146 3.97594 21.5746 4.12417C21.7265 4.50005 21.0843 4.27505 21.1589 4.64828C20.5913 4.91034 20.8178 5.65944 20.2529 5.77327C19.7253 6.26032 19.4988 7.04913 18.9312 7.49912C18.8939 7.57324 18.9685 7.72412 18.8566 7.79824C18.742 7.8353 18.6674 7.72412 18.6301 7.72412C18.4782 8.51293 17.6095 8.325 17.5349 9.14822C17.2711 9.26204 17.4976 9.82321 17.0446 9.67233C16.8554 9.74644 17.0819 9.93438 16.9327 10.0482C16.4797 10.2361 16.7808 11.0594 16.064 10.8741C15.7229 11.1361 16.064 11.8111 15.5363 11.8879C15.5737 11.962 15.5737 12.0758 15.5737 12.1499C15.3098 12.0361 15.3098 12.3379 15.2725 12.4888V12.8249C14.9315 12.7508 14.705 13.0129 14.6303 13.2379C14.5158 13.6879 14.3665 14.1749 13.9135 14.249C13.687 14.3999 13.7616 14.699 13.687 14.9611C13.5725 14.9611 13.4605 14.924 13.4232 14.9981C13.4232 15.149 13.687 15.374 13.4232 15.5222C12.9702 15.7843 12.8183 16.3481 12.5918 16.7584C12.0243 16.6843 12.1761 17.3222 11.9123 17.5472C11.9869 17.886 11.3447 17.9602 11.6485 18.3731C11.0809 18.524 11.4593 19.236 10.969 19.4981C11.0063 20.0222 10.3268 19.911 10.516 20.4722C10.2522 20.6231 10.516 21.1101 10.1003 21.1101C10.063 21.523 9.61002 21.5972 9.64732 22.0472C9.00513 22.611 9.19432 23.511 8.66671 24.0351C8.8186 24.448 8.3656 24.3342 8.32829 24.673C8.1764 25.16 8.3656 25.9118 7.83798 26.2109C7.98987 26.51 7.68609 26.8859 7.64879 27.2247C7.31037 27.7885 7.38498 28.5747 7.0812 29.0988C7.45959 29.8479 6.70281 30.4488 6.89201 31.2747C7.11851 31.6876 6.6282 31.9126 6.6282 32.2885L6.70281 33.5273C7.11851 33.6014 6.81473 34.1652 6.96662 34.4273C7.38232 34.9143 7.38232 35.7772 8.13643 35.9281C8.70135 35.5152 9.68463 35.9281 10.023 35.1393C10.2122 35.0652 10.0604 34.6893 10.3641 34.7634C10.4014 34.5014 10.4014 34.1255 10.7425 33.9376C11.0063 33.4135 11.2701 32.7385 11.6112 32.1376C11.6858 31.8755 12.2161 32.1747 12.1015 31.7247C12.2134 31.4255 12.4026 31.0867 12.4399 30.7506H12.5918C12.7437 30.8644 12.4399 30.9385 12.5918 31.0497C12.6291 30.8247 13.1967 30.5626 12.7437 30.3376C12.9702 30.1867 12.7437 29.7738 13.1221 29.8135C12.9702 29.4376 13.1967 29.1015 13.5005 28.7997C13.4259 28.4238 13.9908 28.7256 13.8016 28.3497L14.1027 27.7488C14.4038 27.7859 14.7822 27.823 15.0087 28.0877C15.6136 27.8997 15.1606 28.8765 15.8028 28.7256C15.6509 29.1385 15.9547 29.3635 15.5763 29.6997C15.8401 29.9617 15.3125 30.2238 15.6136 30.4885C15.499 30.8247 15.7255 31.1635 15.539 31.4997C15.0114 31.3117 15.2379 32.0238 14.8595 32.1376C14.9341 32.3255 14.6703 32.5135 14.8968 32.6246C16.1039 32.1376 17.0499 31.3488 18.1824 30.6367C18.1451 29.9988 18.8992 30.6367 18.9765 30.0359C18.9019 29.7367 19.2776 29.7367 19.3549 29.472C19.4695 28.6462 20.562 28.3471 20.4501 27.41C20.7912 27.2962 20.4128 26.6212 20.9404 26.6609C20.8658 26.51 21.015 26.4359 21.1669 26.3221C21.6199 26.51 22.1875 26.6609 22.4913 27.1109C22.7551 27.0738 22.9443 27.3359 23.0588 27.5238C23.7783 27.0738 24.6097 26.735 25.2519 26.248C25.7422 25.835 26.3098 25.7239 26.8001 25.348C27.2904 25.348 27.3277 24.8239 27.818 24.8609C28.0072 24.7498 28.1964 24.5989 28.4602 24.673C28.6494 25.123 29.177 24.5989 29.4035 25.0859C29.63 25.16 29.6673 25.61 29.9711 25.4248C29.7446 26.0256 30.5387 25.5756 30.4987 26.1739C30.576 26.3247 30.9144 26.4359 30.7252 26.698C30.3468 26.8859 30.3841 27.2988 29.8565 27.185L29.5927 26.923C29.5181 27.4471 28.7613 26.9971 28.7613 27.598C28.6094 27.7118 28.3456 27.2988 28.1937 27.635C28.6094 27.9341 28.1191 28.4609 28.271 28.9109C27.818 29.435 27.7807 30.3747 27.2504 30.8247C27.0985 31.3885 26.9094 31.9126 26.872 32.5135C26.6082 33.0746 26.1925 33.6014 26.1179 34.2393C25.513 34.2393 26.2698 34.6152 25.7768 34.7634C25.7768 35.0626 25.6649 35.3246 25.513 35.5893C25.3612 35.6634 25.172 35.6264 25.06 35.8143L25.3612 35.9281C25.2492 36.5661 24.2286 36.8281 24.4552 37.5402C24.4178 37.6143 24.2286 37.5772 24.3059 37.7281C24.5324 37.7652 24.2686 38.0643 24.3059 38.2152C24.1913 38.2152 24.1167 38.2152 24.0794 38.141C24.0421 38.4031 23.7383 38.366 23.5491 38.4031C24.0021 38.5169 23.5118 38.8901 23.6238 39.1522C23.5491 39.4143 22.9443 39.3772 23.2827 39.716C23.2827 39.8298 23.36 39.9781 23.2081 40.0151L22.867 39.8643C23.0935 40.0892 22.7524 40.1634 22.7524 40.3884C22.6405 40.7642 22.9416 41.2142 22.6405 41.5133C22.4886 41.4763 22.6032 41.2513 22.5632 41.1745C22.1848 41.4366 22.4113 42.0004 21.9583 42.1116C21.9583 42.1857 21.9956 42.2995 21.921 42.3366L21.6945 42.2625C21.8091 42.6383 21.6572 42.9745 21.6572 43.4245C21.3534 43.8004 21.3161 43.3133 20.975 43.5383C21.0496 43.7262 21.2761 43.8004 21.2761 44.0254C21.1989 44.1365 21.1243 43.9857 21.0123 43.9857C20.5966 44.4727 20.5593 44.9995 20.2209 45.4865L20.2582 45.5633C19.8425 45.6745 19.9198 46.1642 19.6533 46.4633C19.8425 46.6142 19.9544 46.8762 19.8425 47.1383C19.8798 47.2494 19.7679 47.2124 19.6906 47.2494C19.5787 47.1753 19.3522 47.2124 19.3895 46.9874C19.2376 47.1012 19.3149 47.3633 19.3149 47.5115C19.203 47.5115 19.1257 47.5486 19.0884 47.6227V47.8106H19.3522C19.3522 48.1097 19.163 48.1865 18.9738 48.3347C19.2376 48.6338 19.0884 49.0838 18.9365 49.3856C18.7473 49.2347 18.9365 48.8985 18.71 48.7477C18.5208 48.9356 18.2943 49.2347 18.4089 49.4597C18.5208 49.3856 18.4835 49.1976 18.6727 49.3088C19.1257 49.6079 18.3689 49.6079 18.5581 49.9468C18.1424 50.0579 18.4835 50.6588 17.9932 50.5847C17.9186 50.7726 17.804 50.8838 17.6148 50.9976L17.5029 50.8864C16.898 51.2253 17.5029 51.8976 16.8234 52.1994C16.8234 52.4244 16.938 52.8373 16.6715 53.0252C16.5596 53.327 16.6715 53.6261 16.2185 53.6632C16.2931 54.1502 15.5017 54.4493 15.8401 54.9364C15.2725 54.9734 16.1039 56.0984 15.4617 55.4605C15.046 55.7596 15.3098 56.3975 14.8568 56.6993C14.7822 56.9614 14.8941 57.2631 14.593 57.4114C14.8568 57.5225 14.8195 57.7475 14.6703 57.9355C14.5184 57.9725 14.3292 58.0493 14.4065 58.2743C14.2173 58.3881 13.9908 58.2372 13.9908 58.5363C13.9908 58.7243 14.0281 58.9493 13.9535 59.1002C13.8789 59.0604 13.7643 58.9122 13.6897 59.1002C13.8416 59.2881 13.5751 59.2881 13.5378 59.4363C13.5378 59.7354 13.5751 60.0001 13.3486 60.1854C13.3859 60.2622 13.4232 60.2993 13.4232 60.4104C12.781 60.5587 13.4978 61.1966 12.9702 61.4216C12.9702 61.7975 12.9702 62.1733 12.6291 62.3216C12.4399 62.3957 12.5146 62.2078 12.3653 62.1336C12.5172 62.8086 11.4966 63.0707 11.9123 63.6716C11.875 63.7457 11.9496 63.8595 11.875 63.8966L11.6485 63.8224C11.422 64.1216 11.2701 64.4974 11.2701 64.8336C11.3074 64.8707 11.3447 64.9474 11.422 64.9474V65.0586C11.1582 65.0586 11.422 65.4715 11.0836 65.3577L11.009 65.8818L10.7825 65.8077C10.4041 66.0698 10.7452 66.6336 10.3295 66.8215C10.0657 67.1974 10.1403 67.7586 9.7246 68.0577L8.97049 70.6465C8.93318 70.7232 8.8186 70.7603 8.8186 70.8344C9.98841 70.4215 10.2922 68.9232 11.462 68.3965C11.462 67.9094 12.1415 68.1715 12.1042 67.6474C12.6718 67.1233 13.274 66.5224 13.9535 65.9586C14.0281 66.1095 14.1427 65.9586 14.2173 65.8845C14.7076 65.0983 15.539 64.6854 16.2558 64.2354C16.445 63.8595 16.898 63.7113 17.1991 63.4095C17.5775 63.4095 17.6894 62.9966 18.0305 62.8854C18.9738 62.5095 20.0317 61.8716 21.0123 62.5466C21.428 62.9224 21.8837 63.1474 22.3367 63.4466C22.374 63.5974 22.6405 63.7086 22.4886 63.8595C22.3367 64.0474 22.0356 64.0104 22.0356 64.2724C22.1475 64.4604 22.1475 64.6854 22.1875 64.9104L22.0356 64.8336C21.9983 65.3206 21.5826 65.6595 21.8091 66.1465C21.468 65.9956 21.6199 66.4456 21.3561 66.5224L21.6599 66.5595C21.5826 67.0836 20.8285 67.4594 21.2042 68.0603C20.9777 68.2483 20.8631 68.5474 20.9777 68.8094C21.2042 69.1853 20.7885 69.4474 20.9404 69.8973C20.8258 70.0112 20.7139 69.8974 20.5993 69.8603C20.4474 70.2362 20.7139 70.6094 20.2982 70.8344L20.4501 71.0223C20.2982 71.0991 20.1863 71.1362 20.0717 71.2844C20.3355 71.4723 19.9198 71.6603 20.109 71.8853C19.656 71.8482 19.8825 72.4464 19.7706 72.7111C19.7333 73.1241 19.8079 73.6111 19.3922 73.7991C19.0911 74.1749 19.0511 74.7361 19.0911 75.1861C18.6381 75.2999 19.2057 76.1231 18.5635 76.049C18.1478 76.3111 18.8273 76.6499 18.337 76.8749C18.337 77.2137 18.0359 77.5499 18.0359 77.9628C17.9213 78.2619 17.884 78.6008 17.9985 78.9369C17.2045 78.8999 17.9985 80.2499 17.319 80.4378C17.6202 80.8507 17.3563 81.1498 17.1672 81.5628C17.1298 81.5628 17.0526 81.5628 17.0526 81.4887C16.7888 81.8645 17.431 82.1637 17.0899 82.5395L17.0526 82.9154C16.7142 82.9154 16.2985 82.8016 16.4104 82.3145L16.3731 82.2775C16.2585 82.5025 16.2585 82.8042 16.072 82.9895C15.7708 82.8757 15.4671 82.6904 15.1286 82.7645C14.4491 82.4654 14.4864 81.9784 14.3372 81.3775C14.1107 81.0016 14.4891 80.6654 14.7156 80.3637C15.0567 78.5266 15.7335 76.8008 16.3757 75.0749L16.4503 74.0241C17.1672 71.3982 17.9612 68.8491 18.5262 66.1465C18.4515 66.0724 18.337 66.1465 18.2624 66.1095C18.1478 66.1836 18.1478 66.2603 18.225 66.3345C17.8093 66.7103 17.3563 66.8586 16.9806 67.2715C16.6022 67.1974 16.6768 68.0577 16.2238 67.6844C16.1492 68.0603 15.96 68.1344 15.7335 68.3965C15.7335 68.6215 15.5816 68.6215 15.3951 68.6585C15.094 69.0344 14.7529 69.2594 14.641 69.7465C14.4145 69.6353 14.3026 69.9344 14.1134 69.9715C14.1134 70.1965 14.0761 70.3844 13.9615 70.5326L13.735 70.3818C13.3939 70.6438 13.282 71.0938 12.9809 71.2076C13.0182 71.4697 12.9436 71.6206 12.6398 71.7317C12.1868 71.5809 12.6398 72.2188 12.2241 72.0308C12.2241 72.2558 12.2614 72.5179 12.0722 72.555L11.9576 72.4438C11.6938 72.555 11.4673 72.8197 11.39 73.0817C11.6539 73.4576 11.0889 73.4947 11.0117 73.7938C10.596 74.1696 10.143 74.5429 10.1803 75.1437C10.1057 75.2946 9.80188 75.2179 9.87915 75.4826C9.72727 75.5196 9.72727 75.4084 9.68996 75.3317L9.65265 75.2946C9.35154 75.4826 9.53807 76.0437 9.16235 75.9696C9.05043 76.1576 9.23696 76.4937 8.97315 76.6817C8.89854 76.6817 8.78396 76.6817 8.74665 76.6076C8.33095 76.9464 8.21904 77.5816 7.76604 77.8066C7.65412 78.1799 6.89734 78.2937 7.19845 78.8575C6.55625 78.8946 6.21784 79.7946 5.80214 80.2816C5.99133 80.9566 5.08533 81.1075 5.34914 81.8195C5.31183 82.0816 5.01072 81.8936 4.89614 82.0816H4.70694C4.85883 81.8195 4.48044 81.7428 4.48044 81.4437C4.36852 81.5945 4.29125 81.8195 4.06474 81.8566C3.64905 81.8936 3.80094 81.2954 3.45985 81.3325C3.34527 81.2584 3.45985 81.1075 3.30797 81.0334C3.04416 81.0704 3.27066 81.5204 2.89227 81.4092C2.92958 81.2213 2.74038 81.2584 2.62846 81.1842C2.66577 80.9963 2.78035 80.6972 2.55385 80.5463C2.44193 80.6601 2.29004 80.9963 2.02624 80.9222C2.29004 80.4351 1.38404 80.5834 1.76243 80.0963C1.91432 79.8343 1.65051 79.3075 2.02624 79.1963V78.7834C2.10085 78.7834 2.13815 78.8205 2.17813 78.7437C2.17813 78.6325 1.95162 78.6696 2.02624 78.4816C2.06354 78.4446 2.13815 78.4446 2.17813 78.4446L2.25274 78.5187L2.36732 78.4446C1.95162 78.4075 2.21543 78.0316 2.25274 77.8437C2.29004 77.8808 2.32735 77.8437 2.36732 77.8066C2.51921 77.8808 2.21543 78.0687 2.44193 78.0687C2.93224 77.5049 2.17813 76.3058 3.12143 76.2317C3.23602 75.4058 3.23602 74.5058 3.80094 73.9446C3.87555 73.3808 4.10205 72.7826 4.40583 72.4067C4.48044 72.5206 4.36852 72.6317 4.48044 72.7058C4.66963 72.33 4.25394 71.5438 4.85883 71.2817C4.82152 70.5697 5.50103 70.1568 5.42641 69.4447C6.29511 69.2197 5.65292 68.1318 6.33242 67.7586C6.52161 67.4197 6.33242 66.6706 6.93731 66.5965C6.71081 65.6595 7.65412 65.0957 7.7687 64.2327C8.07248 63.9707 7.84331 63.4466 8.29631 63.3327C8.52281 63.1077 8.40823 62.7689 8.74932 62.6577C8.56012 62.2819 8.93851 62.0569 9.01312 61.7948C8.82393 61.6836 9.01312 61.456 9.05043 61.3078C9.46612 61.1198 9.31423 60.6328 9.57804 60.4819C9.95643 60.331 9.50343 59.5078 10.031 59.5819C10.2949 59.169 10.1829 58.494 10.6359 58.2319V58.0837C10.7878 58.0096 10.7505 57.6708 10.9744 57.5199C10.7852 57.2949 11.0889 57.2208 11.0889 57.0328C11.6165 56.9958 11.2009 56.3578 11.6565 56.2837C11.6565 55.9449 11.883 55.6828 11.8457 55.307C11.9976 55.0449 12.336 54.8199 12.2987 54.444C12.4506 54.3329 12.336 54.1079 12.4506 53.957C13.0182 53.5441 12.7517 52.9088 13.282 52.5329C13.282 51.9691 13.7723 51.482 13.8869 50.8811C14.2253 50.9553 13.9988 50.5423 14.1507 50.3941C14.188 49.87 14.9448 49.8329 14.7929 49.3062C14.7183 48.8191 15.2086 48.5941 15.2459 48.1812C15.6616 47.9191 15.6616 47.3553 15.9627 46.9821C16 47.0191 16.0373 47.0959 16.1519 47.0562C16.453 46.4924 16.3411 45.5553 17.0579 45.3303C17.0206 44.6924 17.4363 44.3165 17.5855 43.7924C17.8866 43.7554 17.6601 43.2286 18.0385 43.3795C18.0758 43.1174 18.1504 43.0804 18.3396 42.9295L18.225 42.7786C18.678 42.3286 18.5262 41.6166 19.0937 41.2036C19.3202 40.7907 19.5467 40.3407 19.6214 39.8166C19.9997 39.9278 19.9997 39.4778 20.0744 39.2528C20.149 39.1416 20.3755 38.9537 20.3382 38.7287C20.602 38.5778 20.5274 38.2046 20.7912 38.1649C20.7912 38.2019 20.7912 38.276 20.8285 38.276C21.055 38.1252 20.9804 37.8631 20.9431 37.601C20.7539 37.0372 21.6625 37.3019 21.3588 36.7011C21.6625 36.439 21.5106 35.9149 21.9263 35.8752C22.0009 35.5761 21.9636 35.2002 22.2674 35.0123C22.2674 34.7131 22.9869 34.7131 22.6458 34.3002C22.8723 34.0382 22.7977 33.8502 22.8723 33.5511C22.9869 33.477 23.0988 33.6252 23.2134 33.6649C23.0988 32.9899 23.6664 32.5029 23.6664 31.8279C23.8183 31.3038 24.3486 30.8141 24.1967 30.29C23.8556 30.2529 23.5918 31.002 23.288 30.552C23.2507 30.777 23.2134 30.8511 23.0242 31.002H22.7977C22.7977 30.965 22.7604 30.9279 22.7604 30.9279C22.3074 31.1529 21.9663 31.5288 21.5879 31.865C21.929 31.9788 21.476 32.2408 21.6252 32.4288C21.5506 32.5426 21.3987 32.5797 21.3614 32.5029C21.1722 32.7649 21.1349 33.1779 21.2095 33.514C21.0576 33.6649 20.6419 33.702 20.7565 33.927C20.6419 34.189 20.3035 34.2658 20.3035 34.602C20.0024 35.2028 19.5094 35.8408 19.2456 36.439C19.0191 36.4761 18.8299 36.7752 18.678 36.9261C18.7154 37.1511 18.7926 37.4131 18.4889 37.376C18.5635 37.4502 18.6034 37.5269 18.5635 37.601C18.2997 37.6381 18.2624 37.8631 18.1105 38.051C18.225 38.0881 18.1478 38.2019 18.1851 38.239C17.7321 38.276 17.884 38.8028 17.6575 38.951L17.319 39.364L17.2817 39.3269L17.1698 39.401C17.3217 39.5519 17.4709 39.7001 17.3217 39.851C17.1698 40.0019 16.9806 40.039 16.906 40.2269C16.9433 40.3407 16.9433 40.4889 16.9433 40.6398C16.453 40.4889 16.4903 41.5398 16.0746 41.0898C15.8481 41.4286 16.2638 41.9157 15.7335 42.101C15.4324 42.551 16.1865 43.2657 15.3178 43.0777C15.3178 43.3027 15.166 43.3398 15.0167 43.5277C15.1286 43.8665 14.9421 44.1657 14.8275 44.4648C14.6383 44.7639 14.1107 44.7268 14.1853 45.2139L14.1107 45.3277C14.0734 45.2139 13.9588 45.2906 13.9215 45.2509C13.5431 45.5898 14.2599 46.0768 13.6577 46.2277C13.3166 46.3786 13.5058 46.7518 13.4685 47.0139C13.0901 47.313 12.9782 47.7259 12.8263 48.1018L12.6371 48.0277C12.2961 48.3638 12.4106 48.9647 12.0722 49.2665V49.5285C11.8084 49.4147 11.9576 49.7535 11.7684 49.7535C11.5419 50.1294 11.7684 50.4656 11.39 50.7673C11.39 50.9553 11.1635 51.1061 11.0516 51.2173C10.484 51.1035 11.0889 51.8553 10.484 51.7044C10.4467 52.3052 9.46346 52.4535 9.46346 53.1285C9.53807 53.2794 9.38885 53.5043 9.50076 53.6526C9.19965 53.5785 8.97315 53.9517 8.82126 54.1767C8.89587 54.4387 8.74399 54.5129 8.59476 54.6637C8.66937 55.3387 8.17907 56.0137 7.98987 56.6887C7.83798 56.6887 7.72606 56.7258 7.65145 56.8396C7.72606 57.2896 7.57684 57.5516 7.35034 57.9275C7.35034 58.0413 7.42495 58.1155 7.38765 58.2266C7.19845 58.2266 6.93464 58.2637 6.89734 58.0387C6.89734 58.0016 6.86003 58.0016 6.86003 57.9646H6.78542C6.71081 58.2637 6.93731 58.7137 6.67084 58.9757C6.59622 58.9387 6.55892 58.9387 6.48164 58.9016C6.44434 58.9387 6.36706 59.0128 6.40703 59.0896L6.70814 59.1266C6.86003 59.7646 6.06595 59.7275 6.18053 60.3257C6.06595 60.3628 6.02864 60.4395 5.95403 60.5137C5.91672 60.4766 5.84211 60.4766 5.80214 60.4766C5.53833 60.8895 6.06595 61.9033 5.15994 61.9033C4.66964 62.5042 5.19725 63.2163 4.89614 63.8145C4.66964 63.8145 4.66963 63.5524 4.48044 63.4386C4.44313 63.6636 4.13936 63.5895 4.02744 63.5498C3.87555 63.4757 3.68635 63.3248 3.61174 63.1369C3.57444 63.211 3.57444 63.3619 3.38524 63.3248C3.23335 62.8748 2.89493 63.3619 2.59116 63.2507C2.47657 63.0998 2.59116 62.8377 2.47657 62.6895C2.25007 62.6525 2.28738 63.0654 1.98627 62.9145C1.83438 62.5016 2.06088 62.0516 2.32735 61.6757C3.00685 59.7619 3.98747 57.9249 4.93344 56.1249C4.82152 55.712 5.31183 55.6008 5.34914 55.262C5.87675 54.2508 6.18053 53.1629 6.93464 52.3C7.00926 51.9638 7.08653 51.625 7.38765 51.437C7.80334 50.05 8.78396 48.8853 9.35154 47.5724C9.76724 47.5724 9.42615 47.0853 9.65265 46.9344C10.6333 45.3224 11.3527 43.6336 12.408 42.0586C12.8237 40.8225 13.8789 39.7716 14.1827 38.4957C14.7876 37.5216 15.3898 36.5078 15.9574 35.494C15.9947 35.494 16.0693 35.494 16.0693 35.5311C16.2212 35.3802 16.485 35.1181 16.2958 34.819L16.2585 34.782C15.9574 34.8561 15.9174 35.232 15.5417 35.0811C15.3152 35.6052 14.673 35.5311 14.4465 36.0181C13.9935 35.6793 13.8789 36.2802 13.5032 36.394C13.2767 36.5449 13.3913 36.8811 13.0502 36.8069C12.9356 37.2569 12.3334 37.4819 12.5226 38.006L12.2214 37.9319C12.1095 38.0828 12.1468 38.3078 11.9203 38.3449C12.1841 38.5699 11.7311 38.8319 11.6938 39.094L11.5046 38.8319C11.43 39.0198 11.4673 39.2819 11.4673 39.5069C11.2408 39.581 11.3927 39.319 11.2408 39.2819C11.0889 39.5069 11.3554 40.1078 11.0143 40.219C11.0516 40.706 10.4094 40.6689 10.5986 41.1931C10.524 41.3042 10.4094 41.2301 10.3348 41.3042C10.2202 41.4551 10.3348 41.6033 10.4094 41.7172C10.2575 42.056 9.61801 41.9051 9.80454 42.4663L9.68996 42.5404L9.50076 42.3895C9.19965 42.8024 9.34888 43.5886 8.78396 43.7765C8.97315 44.1895 8.63207 44.6024 8.55746 45.0154C8.14176 45.0154 8.67204 45.8015 8.10445 45.8015C8.06715 45.9895 8.06715 46.2515 7.87795 46.3653C7.76337 46.3653 7.53953 46.1774 7.53953 46.4394C7.69142 46.8153 7.50223 47.5274 7.12384 47.8635C6.86003 47.5618 6.82273 47.1886 6.78275 46.8127C6.78275 47.4506 6.66817 48.2368 6.70814 48.9118L6.40703 49.1738C6.48164 49.2109 6.48164 49.285 6.48164 49.3988L6.29245 49.4729C6.40703 49.51 6.59356 49.5471 6.51895 49.735C6.25514 49.8091 6.25514 50.2988 5.87675 50.1109C5.68756 49.997 5.95136 49.772 5.80214 49.6238C5.50103 50.0368 5.87675 50.6376 5.50103 51.0109C5.65292 51.3867 5.01072 51.7229 5.27453 51.985C5.27453 52.3238 5.04803 52.5091 4.93344 52.7711L4.51775 52.9961L4.44313 52.8452C4.33122 53.2211 4.29125 53.7082 4.29125 54.084C3.98747 54.084 4.06474 54.3858 3.72366 54.3461C4.06208 54.534 3.64905 54.7961 3.68635 54.984C3.61174 55.0211 3.42255 54.7961 3.34794 55.0211C3.68635 55.2831 3.08413 55.5081 3.34794 55.8099H3.08413C3.27332 56.1858 2.74571 56.297 3.00952 56.6358C2.9349 56.8608 3.1241 57.2737 3.00952 57.5728C2.78302 57.5728 2.4819 57.6469 2.4446 57.3849V57.3081C2.18079 57.3849 1.69048 57.5702 1.50129 57.1572C1.1602 57.1572 1.04829 56.8952 0.784479 56.7814C0.709867 56.8952 0.595284 56.8581 0.520672 56.8581C0.44606 56.7814 0.44606 56.6702 0.44606 56.5961L0.560643 56.4849C0.486031 56.3711 0.408754 56.522 0.334142 56.559C0.107641 56.3711 -0.0815535 56.109 0.0703353 55.8099C0.144947 55.5849 0.523337 55.3229 0.448725 54.984C0.600614 54.759 0.864421 55.172 0.901727 54.7961C0.63792 54.2323 0.976339 53.7452 1.24015 53.2952H1.35473C1.50662 52.5832 1.73312 51.5323 2.48723 51.2703C2.52454 51.0453 2.41262 50.7462 2.60182 50.5582C2.5272 50.4841 2.56451 50.3703 2.56451 50.2962C2.98021 49.9573 2.79101 49.2453 3.24401 48.8324C3.3959 48.1574 3.77163 47.5194 4.0754 46.8815C4.79221 46.9927 4.18999 45.9048 4.75491 45.6824C5.01871 45.3436 4.86949 44.9333 5.20791 44.6686C5.24521 44.3695 5.31983 44.1048 5.50902 43.8824C5.81013 43.8083 5.58363 44.1815 5.73552 44.2954C5.88741 44.0704 5.81013 43.6204 5.77283 43.3213C6.11391 42.7204 6.30044 41.9342 6.86803 41.5583C6.56691 40.9575 7.32103 40.6954 7.47292 40.2084C7.32103 39.9834 7.77403 39.7584 7.85131 39.4963C7.73939 38.8584 8.4935 38.6334 8.4935 37.9954C8.56812 38.0325 8.64539 37.9954 8.72 37.9213C8.41889 37.4713 9.02112 37.5084 8.98381 37.0955C8.07781 37.2834 7.28372 36.6825 6.4923 36.3834C5.8128 35.6343 5.20791 35.1843 4.9441 34.2076C4.90679 33.2335 4.33921 32.4447 4.37918 31.4335C4.30457 30.1576 4.68029 28.9956 4.53107 27.7965C4.72026 27.0844 4.53107 26.2215 4.90946 25.5465C5.17327 24.9827 4.87215 24.1595 5.51435 23.7836C5.70355 23.3707 6.04196 22.8466 5.89274 22.3198C6.53494 21.531 6.15655 20.181 7.09986 19.6569C7.40097 19.244 7.55286 18.6828 7.85397 18.344C7.70208 18.119 7.92858 17.931 8.00586 17.7431C8.61075 17.5922 8.08314 16.9543 8.68536 16.769C9.51675 14.969 10.7612 13.2432 11.971 11.6311C11.859 11.0673 12.6505 11.4802 12.6878 10.9561C12.6132 10.882 12.6878 10.7682 12.6505 10.657C12.765 10.432 12.9915 10.4691 13.218 10.4691C12.9143 10.0932 13.3699 9.83115 13.5964 9.56909C13.8229 9.53204 13.7856 9.23292 13.9748 9.1191C14.8062 8.21911 15.5603 7.2053 16.3917 6.2312C16.5436 6.26826 16.6182 6.15708 16.7301 6.04326C16.6555 5.44239 17.2977 5.21739 17.6734 4.84416C17.8253 4.09505 18.7313 4.16917 18.9205 3.42006C19.4881 3.00713 19.7519 2.40626 20.3542 2.07008C20.6926 1.24421 21.5266 1.09598 22.1315 0.532164C22.6618 0.495106 23.0002 -0.0687098 23.5705 -0.0290045C25.0814 -0.0290045 26.2512 0.945099 27.1945 1.99597L27.1678 2.02773Z" fill="#2A282D"/>
<g id="Group">
<path id="Vector_2" d="M25.2576 69.9L25.0524 70.027C24.8739 69.7941 24.6314 69.675 24.325 69.675C24.0798 69.675 23.8746 69.7544 23.7121 69.9106C23.5495 70.0668 23.4696 70.26 23.4696 70.485C23.4696 70.6306 23.5069 70.7709 23.5815 70.8979C23.6561 71.0276 23.7574 71.1256 23.8906 71.197C24.0212 71.2685 24.1678 71.3056 24.3276 71.3056C24.6234 71.3056 24.8659 71.1891 25.0524 70.9535L25.2576 71.0885C25.1617 71.2314 25.0311 71.3426 24.8686 71.422C24.706 71.5014 24.5222 71.5411 24.3143 71.5411C23.9945 71.5411 23.7307 71.4406 23.5176 71.2394C23.307 71.0382 23.2031 70.7947 23.2031 70.5062C23.2031 70.3129 23.2511 70.1329 23.3497 69.9662C23.4483 69.7994 23.5842 69.6724 23.7547 69.5771C23.9279 69.4844 24.1198 69.4368 24.333 69.4368C24.4662 69.4368 24.5941 69.4553 24.7193 69.495C24.8446 69.5347 24.9485 69.5876 25.0338 69.6485C25.1217 69.7121 25.1937 69.7941 25.255 69.8921L25.2576 69.9Z" fill="#2A282D"/>
<path id="Vector_3" d="M28.582 69.5002H28.8538L29.544 71.0435L30.2288 69.5002H30.5006L29.2882 72.2346H29.0164L29.4108 71.3479L28.582 69.5002Z" fill="#2A282D"/>
<path id="Vector_4" d="M25.4753 69.4925H25.7311V69.8392C25.8217 69.7122 25.9123 69.6195 26.0083 69.5586C26.1388 69.4845 26.2774 69.4448 26.4213 69.4448C26.5199 69.4448 26.6105 69.4634 26.6984 69.5004C26.7864 69.5401 26.8556 69.5904 26.9116 69.6539C26.9676 69.7175 27.0155 69.8075 27.0555 69.9239C27.1408 69.7678 27.2474 69.6486 27.3779 69.5666C27.5058 69.4845 27.6444 69.4448 27.7936 69.4448C27.9322 69.4448 28.0548 69.4792 28.1614 69.5507C28.2679 69.6222 28.3452 69.7175 28.3958 69.8445C28.4491 69.9689 28.4731 70.1569 28.4731 70.4057V71.4989H28.2173V70.4057C28.2173 70.1913 28.2013 70.043 28.1693 69.9636C28.14 69.8842 28.0867 69.818 28.0121 69.7704C27.9375 69.7201 27.8469 69.6963 27.7457 69.6963C27.6204 69.6963 27.5032 69.7333 27.3992 69.8075C27.2953 69.8789 27.2207 69.9795 27.1701 70.1013C27.1221 70.223 27.0981 70.4269 27.0981 70.7154V71.4989H26.8423V70.4745C26.8423 70.2336 26.8263 70.0669 26.797 69.9822C26.7677 69.8948 26.7144 69.826 26.6398 69.7731C26.5652 69.7228 26.4746 69.6936 26.3707 69.6936C26.2508 69.6936 26.1388 69.7307 26.0349 69.8022C25.931 69.8736 25.8537 69.9689 25.8031 70.0933C25.7525 70.2151 25.7285 70.4004 25.7285 70.6492V71.4989H25.4727V69.4951L25.4753 69.4925Z" fill="#2A282D"/>
<path id="Vector_5" d="M23.2812 73.6455H23.5371V73.9923C23.6277 73.8652 23.7209 73.7726 23.8169 73.7117C23.9474 73.6376 24.086 73.5979 24.2299 73.5979C24.3285 73.5979 24.4217 73.6164 24.507 73.6561C24.595 73.6932 24.6669 73.7461 24.7229 73.8097C24.7788 73.8732 24.8268 73.9632 24.8668 74.0797C24.952 73.9235 25.0586 73.8044 25.1865 73.7223C25.3144 73.6403 25.453 73.6005 25.6022 73.6005C25.7408 73.6005 25.8634 73.635 25.9673 73.7064C26.0739 73.7753 26.1538 73.8732 26.2044 73.9976C26.2551 74.122 26.2817 74.31 26.2817 74.5588V75.652H26.0259V74.5588C26.0259 74.3444 26.0099 74.1961 25.9806 74.1167C25.9486 74.0373 25.8953 73.9711 25.8207 73.9235C25.7461 73.8732 25.6582 73.8494 25.5543 73.8494C25.429 73.8494 25.3144 73.8864 25.2105 73.9605C25.1066 74.0347 25.032 74.1326 24.9813 74.2544C24.9334 74.3761 24.9094 74.5799 24.9094 74.8685V75.652H24.6536V74.6276C24.6536 74.3867 24.6376 74.22 24.6083 74.1352C24.579 74.0479 24.5257 73.9791 24.4511 73.9261C24.3738 73.8732 24.2858 73.8467 24.1819 73.8467C24.062 73.8467 23.9501 73.8811 23.8462 73.9552C23.7422 74.0267 23.665 74.122 23.6143 74.2438C23.5637 74.3655 23.5397 74.5508 23.5397 74.8023V75.652H23.2839V73.6482L23.2812 73.6455Z" fill="#2A282D"/>
<path id="Vector_6" d="M34.8906 73.6191H35.1464V73.9871C35.2477 73.8468 35.3676 73.7436 35.5008 73.6721C35.6341 73.6033 35.7833 73.5688 35.9485 73.5688C36.2363 73.5688 36.4788 73.6721 36.684 73.8759C36.8865 74.0797 36.9904 74.3259 36.9904 74.6144C36.9904 74.9029 36.8892 75.1597 36.6866 75.3635C36.4841 75.5673 36.239 75.6706 35.9538 75.6706C35.794 75.6706 35.6447 75.6388 35.5115 75.57C35.3756 75.5038 35.2557 75.4059 35.1464 75.2735V76.3509H34.8906V73.6165V73.6191ZM35.9299 73.8177C35.706 73.8177 35.5168 73.8971 35.3623 74.0506C35.2077 74.2068 35.1331 74.4 35.1331 74.6303C35.1331 74.7812 35.1678 74.9188 35.2344 75.0406C35.3037 75.1624 35.4023 75.2576 35.5275 75.3291C35.6554 75.4006 35.7913 75.435 35.9325 75.435C36.0738 75.435 36.2017 75.4006 36.3242 75.3291C36.4468 75.2576 36.5428 75.1571 36.6174 75.03C36.6893 74.9003 36.7266 74.768 36.7266 74.625C36.7266 74.4821 36.6893 74.3497 36.6174 74.2227C36.5454 74.0956 36.4495 73.995 36.3269 73.9262C36.2043 73.8547 36.0711 73.8203 35.9272 73.8203L35.9299 73.8177Z" fill="#2A282D"/>
<path id="Vector_7" d="M39.3344 73.6191V75.6229H39.0785V75.2788C38.9693 75.4112 38.8467 75.5065 38.7108 75.5726C38.5749 75.6362 38.4257 75.6706 38.2631 75.6706C37.9753 75.6706 37.7329 75.5673 37.5303 75.3635C37.3278 75.1597 37.2266 74.9082 37.2266 74.6144C37.2266 74.3206 37.3305 74.0797 37.533 73.8759C37.7382 73.6721 37.9833 73.5688 38.2711 73.5688C38.4363 73.5688 38.5882 73.6033 38.7241 73.6721C38.8574 73.7409 38.9746 73.8441 39.0785 73.9871V73.6191H39.3344ZM38.2924 73.8177C38.1486 73.8177 38.0127 73.8521 37.8901 73.9235C37.7675 73.995 37.6689 74.093 37.597 74.22C37.525 74.3471 37.4877 74.4821 37.4877 74.6224C37.4877 74.7627 37.525 74.8977 37.597 75.0274C37.6689 75.1571 37.7675 75.255 37.8901 75.3265C38.0127 75.3979 38.1459 75.4324 38.2845 75.4324C38.423 75.4324 38.5616 75.3979 38.6895 75.3265C38.8174 75.255 38.916 75.1597 38.9853 75.0379C39.0546 74.9162 39.0892 74.7785 39.0892 74.6277C39.0892 74.3947 39.0119 74.2015 38.8574 74.048C38.7028 73.8918 38.5136 73.815 38.2898 73.815L38.2924 73.8177Z" fill="#2A282D"/>
<path id="Vector_8" d="M41.4743 75.6229H41.1999L40.5177 74.1565L39.8409 75.6229H39.5664L40.4937 73.6191H40.539L41.4743 75.6229Z" fill="#2A282D"/>
<path id="Vector_9" d="M41.9588 74.4106H42.2092C42.4091 74.4106 42.5636 74.4265 42.6782 74.4582C42.7928 74.49 42.8887 74.5562 42.9687 74.6621C43.0513 74.7679 43.0913 74.8871 43.0913 75.0247C43.0913 75.1888 43.0326 75.3318 42.9154 75.4482C42.7981 75.5647 42.6223 75.6229 42.3851 75.6229H41.7109V73.6191H41.9588V74.4106ZM41.9694 74.6462V75.4032H42.2785C42.6409 75.4032 42.8221 75.2788 42.8221 75.0326C42.8221 74.9638 42.8035 74.895 42.7635 74.8262C42.7235 74.76 42.6676 74.7124 42.593 74.6832C42.5183 74.6568 42.3851 74.6435 42.1986 74.6435H41.9694V74.6462Z" fill="#2A282D"/>
<path id="Vector_10" d="M44.7759 74.6594H43.6035V75.6229H43.3477V73.6191H43.6035V74.4185H44.7759V73.6191H45.0318V75.6229H44.7759V74.6594Z" fill="#2A282D"/>
<path id="Vector_11" d="M46.4105 73.5715C46.7196 73.5715 46.9754 73.6827 47.178 73.9051C47.3618 74.1089 47.4551 74.3498 47.4551 74.6277C47.4551 74.9056 47.3565 75.1518 47.162 75.3609C46.9674 75.57 46.717 75.6733 46.4105 75.6733C46.1041 75.6733 45.8509 75.57 45.6564 75.3609C45.4619 75.1518 45.3633 74.9083 45.3633 74.6277C45.3633 74.3471 45.4565 74.1115 45.6404 73.9077C45.8429 73.6827 46.1014 73.5715 46.4105 73.5715ZM46.4105 73.8256C46.1973 73.8256 46.0135 73.9051 45.8589 74.0639C45.7044 74.2227 45.6271 74.4159 45.6271 74.6383C45.6271 74.7812 45.6617 74.9189 45.7337 75.0433C45.803 75.1677 45.8989 75.2656 46.0188 75.3318C46.1387 75.4006 46.2693 75.435 46.4132 75.435C46.5571 75.435 46.6876 75.4006 46.8076 75.3318C46.9275 75.263 47.0207 75.1677 47.0927 75.0433C47.162 74.9162 47.1966 74.7812 47.1966 74.6383C47.1966 74.4133 47.1193 74.2227 46.9648 74.0639C46.8102 73.9051 46.6264 73.8256 46.4132 73.8256H46.4105Z" fill="#2A282D"/>
<path id="Vector_12" d="M48.0475 73.8468V75.6229H47.7891V73.6191H48.8017V73.8468H48.0475Z" fill="#2A282D"/>
<path id="Vector_13" d="M49.9561 73.5715C50.2653 73.5715 50.5211 73.6827 50.7236 73.9051C50.9101 74.1089 51.0007 74.3498 51.0007 74.6277C51.0007 74.9056 50.9048 75.1518 50.7076 75.3609C50.5104 75.57 50.2599 75.6733 49.9535 75.6733C49.647 75.6733 49.3939 75.57 49.1994 75.3609C49.0048 75.1518 48.9062 74.9083 48.9062 74.6277C48.9062 74.3471 48.9995 74.1115 49.1834 73.9077C49.3886 73.6827 49.6444 73.5715 49.9535 73.5715H49.9561ZM49.9561 73.8256C49.743 73.8256 49.5564 73.9051 49.4046 74.0639C49.25 74.2227 49.1727 74.4159 49.1727 74.6383C49.1727 74.7812 49.2074 74.9189 49.2766 75.0433C49.3486 75.1677 49.4419 75.2656 49.5618 75.3318C49.6817 75.4006 49.8123 75.435 49.9535 75.435C50.0947 75.435 50.2279 75.4006 50.3479 75.3318C50.4678 75.263 50.5637 75.1677 50.633 75.0433C50.7023 74.9162 50.7369 74.7812 50.7369 74.6383C50.7369 74.4133 50.6596 74.2227 50.5051 74.0639C50.3505 73.9051 50.1667 73.8256 49.9535 73.8256H49.9561Z" fill="#2A282D"/>
<path id="Vector_14" d="M28.3583 74.9451L28.5795 75.059C28.5076 75.1993 28.425 75.3131 28.3317 75.3978C28.2384 75.4851 28.1318 75.5487 28.0146 75.5937C27.8973 75.6387 27.7641 75.6598 27.6175 75.6598C27.2898 75.6598 27.0313 75.554 26.8474 75.3395C26.6609 75.1251 26.5703 74.8843 26.5703 74.6143C26.5703 74.3602 26.6476 74.1352 26.8048 73.9366C27.0047 73.6852 27.2711 73.5581 27.6042 73.5581C27.9373 73.5581 28.2224 73.6878 28.4276 73.9446C28.5742 74.1272 28.6488 74.3549 28.6515 74.6275H26.8341C26.8395 74.8604 26.9141 75.0537 27.058 75.2019C27.2019 75.3528 27.3804 75.4269 27.5936 75.4269C27.6975 75.4269 27.7961 75.4084 27.8947 75.374C27.9906 75.3369 28.0732 75.2919 28.1425 75.231C28.2091 75.1728 28.2837 75.0775 28.361 74.9451H28.3583ZM28.3637 74.4078C28.329 74.2702 28.2784 74.1616 28.2118 74.0796C28.1452 73.9975 28.0572 73.9313 27.948 73.8837C27.8387 73.8334 27.7241 73.8096 27.6042 73.8096C27.4044 73.8096 27.2365 73.8731 27.0926 73.9975C26.9887 74.0901 26.9087 74.2278 26.8581 74.4104H28.3637V74.4078Z" fill="#2A282D"/>
<path id="Vector_15" d="M30.9828 73.6084V75.6122H30.727V75.2681C30.6177 75.4004 30.4951 75.4984 30.3592 75.5619C30.2233 75.6281 30.0741 75.6598 29.9116 75.6598C29.6264 75.6598 29.3813 75.5566 29.1788 75.3528C28.9763 75.149 28.875 74.8975 28.875 74.6037C28.875 74.3099 28.9763 74.0716 29.1814 73.8652C29.3866 73.6613 29.6318 73.5581 29.9196 73.5581C30.0874 73.5581 30.2367 73.5925 30.3726 73.6613C30.5085 73.7302 30.6231 73.8334 30.727 73.9737V73.6057H30.9828V73.6084ZM29.9409 73.8069C29.797 73.8069 29.6611 73.844 29.5412 73.9128C29.4186 73.9843 29.32 74.0822 29.2481 74.2093C29.1761 74.3363 29.1415 74.4713 29.1415 74.6116C29.1415 74.7519 29.1761 74.8869 29.2507 75.0166C29.3227 75.1437 29.4213 75.2469 29.5438 75.3157C29.6664 75.3872 29.7997 75.4216 29.9409 75.4216C30.0821 75.4216 30.218 75.3845 30.3459 75.3157C30.4738 75.2443 30.5724 75.149 30.6417 75.0272C30.7083 74.9054 30.7456 74.7704 30.7456 74.6169C30.7456 74.3866 30.6684 74.1907 30.5138 74.0372C30.3592 73.881 30.1701 73.8043 29.9462 73.8043L29.9409 73.8069Z" fill="#2A282D"/>
<path id="Vector_16" d="M23.5566 77.8782V79.3658L25.0355 77.8782H25.0568V79.882H24.801V78.4076L23.3328 79.882H23.3008V77.8782H23.5566Z" fill="#2A282D"/>
<path id="Vector_17" d="M27.4412 78.2885L27.236 78.4155C27.0575 78.1799 26.815 78.0635 26.5086 78.0635C26.2607 78.0635 26.0582 78.1429 25.8957 78.2991C25.7331 78.4579 25.6532 78.6485 25.6532 78.8735C25.6532 79.019 25.6905 79.1593 25.7651 79.2864C25.8397 79.4161 25.941 79.5167 26.0716 79.5882C26.2021 79.6596 26.3487 79.694 26.5086 79.694C26.8043 79.694 27.0468 79.5776 27.2334 79.342L27.4385 79.477C27.3426 79.6199 27.212 79.7311 27.0495 79.8079C26.887 79.8873 26.7031 79.927 26.4952 79.927C26.1755 79.927 25.9117 79.8264 25.7012 79.6252C25.4906 79.424 25.3867 79.1805 25.3867 78.8946C25.3867 78.7014 25.4347 78.5214 25.5333 78.3546C25.6319 78.1879 25.7678 78.0608 25.9383 77.9682C26.1089 77.8755 26.3034 77.8279 26.5139 77.8279C26.6471 77.8279 26.775 77.8491 26.9003 77.8888C27.0255 77.9285 27.1294 77.9788 27.2147 78.0449C27.3026 78.1085 27.3746 78.1905 27.4359 78.2885H27.4412Z" fill="#2A282D"/>
<path id="Vector_18" d="M27.7773 77.8782H28.0358V78.7252L28.9765 77.8782H29.3309L28.3103 78.794L29.4108 79.882H29.0431L28.1158 78.9555L28.0358 79.0296V79.882H27.7773V77.8782Z" fill="#2A282D"/>
<path id="Vector_19" d="M29.3203 77.8782H29.5921L30.2823 79.4214L30.9671 77.8782H31.2389L30.0265 80.6126H29.7547L30.149 79.7258L29.3203 77.8782Z" fill="#2A282D"/>
<path id="Vector_20" d="M33.3748 78.2885L33.1696 78.4155C32.9911 78.1799 32.7486 78.0635 32.4422 78.0635C32.197 78.0635 31.9918 78.1429 31.8293 78.2991C31.6667 78.4579 31.5868 78.6485 31.5868 78.8735C31.5868 79.019 31.6241 79.1593 31.6987 79.2864C31.7733 79.4161 31.8772 79.5167 32.0051 79.5882C32.1357 79.6596 32.2823 79.694 32.4422 79.694C32.7379 79.694 32.9804 79.5776 33.167 79.342L33.3721 79.477C33.2762 79.6199 33.1456 79.7311 32.9831 79.8079C32.8205 79.8873 32.6367 79.927 32.4288 79.927C32.1091 79.927 31.8453 79.8264 31.6347 79.6252C31.4242 79.424 31.3203 79.1805 31.3203 78.8946C31.3203 78.7014 31.3683 78.5214 31.4669 78.3546C31.5655 78.1879 31.6987 78.0608 31.8719 77.9682C32.0425 77.8755 32.237 77.8279 32.4475 77.8279C32.5807 77.8279 32.7086 77.8491 32.8339 77.8888C32.9591 77.9285 33.063 77.9788 33.151 78.0449C33.2362 78.1085 33.3109 78.1905 33.3721 78.2885H33.3748Z" fill="#2A282D"/>
<path id="Vector_21" d="M35.6678 78.2885L35.4626 78.4155C35.2867 78.1799 35.0416 78.0635 34.7351 78.0635C34.49 78.0635 34.2848 78.1429 34.1222 78.2991C33.9624 78.4579 33.8798 78.6485 33.8798 78.8735C33.8798 79.019 33.9171 79.1593 33.9917 79.2864C34.0663 79.4161 34.1702 79.5167 34.2981 79.5882C34.4287 79.6596 34.5752 79.694 34.7351 79.694C35.0309 79.694 35.2734 79.5776 35.4599 79.342L35.6651 79.477C35.5692 79.6199 35.4386 79.7311 35.2761 79.8079C35.1135 79.8873 34.9296 79.927 34.7218 79.927C34.402 79.927 34.1382 79.8264 33.9304 79.6252C33.7199 79.424 33.6133 79.1805 33.6133 78.8946C33.6133 78.7014 33.6639 78.5214 33.7598 78.3546C33.8584 78.1879 33.9917 78.0608 34.1649 77.9682C34.3381 77.8755 34.5299 77.8279 34.7431 77.8279C34.8764 77.8279 35.0043 77.8491 35.1295 77.8888C35.2521 77.9285 35.3587 77.9788 35.4439 78.0449C35.5319 78.1085 35.6038 78.1905 35.6651 78.2885H35.6678Z" fill="#2A282D"/>
<path id="Vector_22" d="M36.0273 77.8728H36.2832V78.2169C36.3738 78.0899 36.4644 77.9946 36.5603 77.9363C36.6909 77.8596 36.8294 77.8225 36.9733 77.8225C37.0719 77.8225 37.1652 77.841 37.2504 77.8807C37.3384 77.9178 37.4103 77.9681 37.4663 78.0316C37.5222 78.0952 37.5702 78.1852 37.6102 78.3043C37.6955 78.1481 37.802 78.029 37.9326 77.9469C38.0632 77.8649 38.1991 77.8252 38.3483 77.8252C38.4869 77.8252 38.6095 77.8596 38.716 77.931C38.8226 78.0025 38.8999 78.0978 38.9505 78.2222C39.0012 78.3466 39.0278 78.5346 39.0278 78.786V79.8766H38.772V78.7834C38.772 78.569 38.756 78.4207 38.7267 78.3413C38.6947 78.2619 38.6441 78.1957 38.5695 78.1454C38.4949 78.0952 38.4069 78.0713 38.303 78.0713C38.1778 78.0713 38.0605 78.1084 37.9593 78.1825C37.8553 78.2566 37.7781 78.3546 37.7301 78.479C37.6821 78.6007 37.6581 78.8072 37.6581 79.0931V79.8766H37.3997V78.8496C37.3997 78.6087 37.3837 78.4446 37.3544 78.3572C37.3251 78.2725 37.2718 78.201 37.1972 78.1507C37.1225 78.0978 37.0319 78.0713 36.928 78.0713C36.8081 78.0713 36.6962 78.1057 36.5896 78.1799C36.4857 78.2513 36.4084 78.3493 36.3578 78.471C36.3071 78.5928 36.2832 78.7781 36.2832 79.0269V79.8766H36.0273V77.8728Z" fill="#2A282D"/>
<path id="Vector_23" d="M40.1969 79.882H39.6133V77.8782H40.1889C40.4074 77.8782 40.5646 77.9285 40.6632 78.0317C40.7591 78.1323 40.8071 78.2514 40.8071 78.3864C40.8071 78.5902 40.7191 78.7305 40.5459 78.8046C40.8017 78.8973 40.9323 79.0746 40.9323 79.334C40.9323 79.702 40.6872 79.8846 40.1995 79.8846L40.1969 79.882ZM39.8691 78.0979V78.7332H40.0396C40.1942 78.7332 40.2954 78.7252 40.3434 78.7146C40.3914 78.7014 40.4367 78.6696 40.4793 78.622C40.5219 78.5717 40.5406 78.5082 40.5406 78.4261C40.5406 78.3414 40.5193 78.2699 40.474 78.2117C40.4314 78.1561 40.3834 78.1217 40.3354 78.1111C40.2875 78.1005 40.1889 78.0952 40.037 78.0952H39.8664L39.8691 78.0979ZM39.8691 78.9661V79.6623H40.1489C40.2821 79.6623 40.3754 79.6543 40.4314 79.6384C40.4873 79.6226 40.5353 79.5855 40.5779 79.5326C40.6179 79.477 40.6392 79.4082 40.6392 79.3235C40.6392 79.2149 40.6046 79.1302 40.5326 79.064C40.4633 79.0005 40.3727 78.9661 40.2555 78.9661H39.8664H39.8691Z" fill="#2A282D"/>
<path id="Vector_24" d="M43.2445 77.8782V79.882H42.9887V79.5379C42.8794 79.6676 42.7569 79.7655 42.621 79.8317C42.4851 79.8952 42.3358 79.9296 42.1733 79.9296C41.8882 79.9296 41.643 79.8264 41.4405 79.6226C41.238 79.4161 41.1367 79.1673 41.1367 78.8735C41.1367 78.5796 41.238 78.3414 41.4432 78.1349C41.6483 77.9311 41.8935 77.8279 42.1813 77.8279C42.3492 77.8279 42.4984 77.8623 42.6343 77.9311C42.7702 77.9999 42.8874 78.1032 42.9887 78.2461V77.8782H43.2445ZM42.2026 78.0767C42.0587 78.0767 41.9228 78.1111 41.8029 78.1826C41.6803 78.2541 41.5817 78.352 41.5098 78.4791C41.4378 78.6061 41.4005 78.7411 41.4005 78.884C41.4005 79.027 41.4378 79.1593 41.5098 79.289C41.5817 79.4161 41.6803 79.5167 41.8029 79.5882C41.9255 79.6596 42.0587 79.6967 42.1999 79.6967C42.3412 79.6967 42.4771 79.6623 42.605 79.5908C42.7329 79.5193 42.8288 79.424 42.9008 79.3023C42.97 79.1805 43.0047 79.0455 43.0047 78.892C43.0047 78.6617 42.9274 78.4658 42.7729 78.3123C42.6183 78.1561 42.4291 78.0794 42.2026 78.0794V78.0767Z" fill="#2A282D"/>
<path id="Vector_25" d="M31.3906 73.6455H31.6464V73.9923C31.737 73.8652 31.8276 73.7726 31.9236 73.7117C32.0541 73.6376 32.1927 73.5979 32.3366 73.5979C32.4352 73.5979 32.5258 73.6164 32.6137 73.6561C32.7017 73.6932 32.7709 73.7461 32.8269 73.8097C32.8829 73.8732 32.9308 73.9632 32.9708 74.0797C33.0561 73.9235 33.1653 73.8044 33.2932 73.7223C33.4211 73.6403 33.5597 73.6005 33.7089 73.6005C33.8475 73.6005 33.9701 73.635 34.0767 73.7064C34.1806 73.7753 34.2605 73.8732 34.3112 73.9976C34.3618 74.122 34.3911 74.31 34.3911 74.5588V75.652H34.1353V74.5588C34.1353 74.3444 34.1193 74.1961 34.0873 74.1167C34.058 74.0373 34.0047 73.9711 33.9301 73.9235C33.8555 73.8732 33.7676 73.8494 33.6636 73.8494C33.5384 73.8494 33.4211 73.8864 33.3172 73.9605C33.2133 74.0347 33.136 74.1326 33.0907 74.2544C33.0427 74.3761 33.0188 74.5799 33.0188 74.8685V75.652H32.763V74.6276C32.763 74.3867 32.747 74.22 32.7177 74.1352C32.6883 74.0479 32.635 73.9791 32.5604 73.9261C32.4858 73.8732 32.3952 73.8467 32.2913 73.8467C32.1714 73.8467 32.0595 73.8811 31.9555 73.9552C31.8516 74.0267 31.7743 74.122 31.7237 74.2438C31.6731 74.3655 31.6491 74.5508 31.6491 74.8023V75.652H31.3933V73.6482L31.3906 73.6455Z" fill="#2A282D"/>
<path id="Vector_26" d="M30.3192 71.3029L31.0946 69.5188H31.2305L32.0086 71.3029H32.2511V71.7794H31.9953V71.5226H30.3378V71.7926H30.082V71.3029H30.3219H30.3192ZM31.1639 69.9185L30.5723 71.3029H31.7368L31.1639 69.9185Z" fill="#2A282D"/>
<path id="Vector_27" d="M32.6894 69.5215V71.0065L34.1657 69.5215H34.187V71.5226H33.9312V70.0482L32.4656 71.5226H32.4336V69.5215H32.6894Z" fill="#2A282D"/>
<path id="Vector_28" d="M35.4442 70.5962H35.2577L34.6821 71.4909H34.4023L35.0046 70.5697C34.8553 70.5512 34.7328 70.493 34.6422 70.4003C34.5489 70.305 34.5036 70.1859 34.5036 70.0456C34.5036 69.8683 34.5596 69.7306 34.6661 69.6353C34.7754 69.5374 34.9166 69.4897 35.0898 69.4897H35.7027V71.4935H35.4469V70.5988L35.4442 70.5962ZM35.4442 69.7068H35.2737C35.1085 69.7068 34.9966 69.7174 34.938 69.7386C34.8793 69.7597 34.8367 69.7968 34.8021 69.8471C34.7701 69.8974 34.7514 69.9662 34.7514 70.0536C34.7514 70.1356 34.7727 70.2044 34.818 70.2574C34.8633 70.3103 34.9113 70.3447 34.9646 70.358C35.0179 70.3712 35.1218 70.3765 35.2764 70.3765H35.4469V69.7068H35.4442Z" fill="#2A282D"/>
</g>
</g>
<defs>
<clipPath id="clip0_3096_21650">
<rect width="51" height="83" fill="white"/>
</clipPath>
</defs>
</svg>
