<svg width="50" height="104" viewBox="0 0 50 104" fill="none" xmlns="http://www.w3.org/2000/svg">
<g id="&#208;&#161;&#208;&#187;&#208;&#190;&#208;&#185; 1">
<g id="Group">
<path id="Vector" d="M49.98 16.8979C49.98 16.8979 49.966 16.8746 49.9567 16.87C49.9474 16.856 49.9427 16.8466 49.9333 16.8326C49.6628 16.5667 48.4825 16.9492 48.2912 16.9959C48.4871 16.8933 48.6597 16.8046 48.7297 16.7673C48.9956 16.6367 49.2289 16.52 49.3456 16.4501C49.7281 16.2355 49.8354 16.1842 49.8867 16.0302C49.896 16.0022 49.9007 15.9649 49.896 15.9369C49.896 15.9276 49.896 15.9229 49.8867 15.9089C49.8867 15.8856 49.8727 15.8576 49.8587 15.8342C49.8307 15.7829 49.7794 15.7316 49.7141 15.7036C49.4715 15.5917 48.7157 16.0348 48.7157 16.0115C48.7064 15.9509 48.6877 15.8995 48.655 15.8576C48.655 15.8482 48.6457 15.8342 48.6317 15.8296C48.5898 15.7876 48.5197 15.7549 48.4264 15.7549C48.2072 15.7549 47.9366 15.8342 47.5307 15.9742C47.1622 16.1002 46.7983 16.2168 46.719 16.2308C46.9242 15.9882 46.9849 15.8949 46.9849 15.8949C46.9849 15.8949 47.1295 15.7269 47.1015 15.5963C47.1015 15.573 47.0875 15.5543 47.0781 15.531C47.0502 15.4937 46.9848 15.4704 46.9009 15.503C46.7236 15.5637 46.411 15.8389 45.8745 16.3381C45.8092 16.3988 45.7812 16.4501 45.6925 16.506C45.6925 16.506 45.6832 16.5154 45.6785 16.5201C45.6365 16.5294 45.5853 16.5434 45.5339 16.548C45.338 16.576 45.086 16.59 44.9321 16.5574H44.9041C44.9041 16.5574 44.8668 16.5434 44.8528 16.534C44.7268 16.4921 44.6382 16.4454 44.5728 16.3941C44.5822 16.3801 44.7921 15.9089 45.1234 15.6756C45.3287 15.5217 45.9072 15.0318 45.9585 14.9805C46.1544 14.7752 46.1264 14.6119 46.1124 14.5046C46.0891 14.374 46.0191 14.2574 45.9211 14.1827C45.9071 14.1687 45.8838 14.1687 45.8605 14.1594C45.7858 14.1314 45.7159 14.1174 45.6319 14.1221C45.3146 14.1594 44.9648 14.43 44.9135 14.472C44.8108 14.5513 44.4282 14.8732 44.167 15.1018C44.0783 15.1764 44.0037 15.2417 43.9524 15.2837C43.9104 15.321 43.8357 15.363 43.7564 15.4097C43.5745 15.5123 43.3225 15.615 43.1313 15.6943L42.968 15.7596C42.6321 15.9042 42.2075 16.1282 41.8903 16.3894C41.6757 16.5714 41.4191 17.0472 41.3398 17.2245C41.1625 17.3692 40.3367 18.0456 39.3383 18.6475C38.5825 19.1 37.7754 19.5992 37.0803 20.0331C36.5578 20.355 36.0959 20.6349 35.774 20.8308C35.7133 20.8588 34.2391 21.6426 33.0308 22.6037C32.6622 22.8976 32.303 23.1915 31.9624 23.4668C31.6778 23.7 31.4119 23.9146 31.1553 24.1199C30.4368 24.7078 28.818 25.7388 28.6407 25.8741C28.3981 26.0281 28.1508 26.182 27.8615 26.35C27.4277 26.6159 26.7325 26.9938 26.1214 27.3157C25.8508 27.4603 25.5942 27.5863 25.3936 27.6982C25.2396 27.7776 25.1136 27.8382 25.0343 27.8802C24.857 27.9688 24.5445 28.1461 24.1899 28.3654C24.1759 28.3654 24.1666 28.3794 24.1526 28.3887H24.1433C24.05 28.2954 23.9613 28.1601 23.952 28.0808C23.8867 27.6469 24.4792 27.5956 25.1183 27.4417C25.5429 27.3297 25.8881 27.1244 25.8881 26.8632C25.8881 26.8258 25.8881 26.7978 25.8741 26.7698C25.8601 26.7092 25.8368 26.6812 25.8088 26.6532L25.7808 26.6252C25.7528 26.5972 25.7155 26.5599 25.7015 26.4946C25.5988 26.084 26.1353 26.0467 26.2007 25.8554C26.2007 25.8414 26.21 25.8181 26.21 25.7948V25.7808C26.21 25.7388 26.1867 25.6921 26.1447 25.6548C26.1213 25.6315 26.084 25.6128 26.0514 25.6035C25.8834 25.5428 25.8041 25.5615 25.5662 25.6268C25.5149 25.6408 25.4729 25.6035 25.4402 25.5522C25.4309 25.5289 25.4262 25.5009 25.4169 25.4729V25.4635C25.4169 25.4029 25.4402 25.3329 25.4916 25.2723C25.6362 25.1183 25.7062 25.067 25.6548 24.899C25.6408 24.8384 25.6175 24.7964 25.5942 24.7591C25.5195 24.6471 25.4262 24.6424 25.3609 24.6844C25.2723 24.7451 25.1976 24.899 25.0157 24.8757C24.8384 24.8524 24.7591 24.7451 24.3065 24.7451C24.1386 24.7451 23.9893 24.8337 23.8447 24.8477C23.784 24.8477 23.728 24.8477 23.6627 24.8197C23.6347 24.8057 23.5974 24.7824 23.5694 24.7544C23.5321 24.7264 23.4948 24.6751 23.4528 24.6238C23.4248 24.5865 23.3874 24.5445 23.3501 24.4978C23.2102 24.3299 23.0189 24.1386 22.725 24.0593C22.3657 23.9566 22.1885 23.7607 22.1885 23.7607C22.1885 23.7607 22.6363 23.6207 22.767 23.4808C23.0236 23.2148 23.0095 23.1495 23.0515 22.9676C23.0655 22.9069 23.1122 22.571 22.9909 22.4264C22.9909 22.4264 22.9816 22.4264 22.9769 22.4124C22.9536 22.3891 22.9396 22.3751 22.9116 22.3704C22.8836 22.3657 22.8509 22.3564 22.8229 22.3611C22.7436 22.3704 22.4637 22.641 22.2865 22.655C22.1978 22.655 22.1465 22.655 22.1231 22.627L22.1092 22.599C22.1092 22.599 22.0998 22.585 22.0998 22.5757C22.0998 22.5524 22.0998 22.5337 22.1092 22.5104C22.1232 22.459 22.1325 22.4077 22.1325 22.3657C22.1325 22.2351 22.0672 22.1465 21.9552 22.0671C21.7499 21.9225 21.1854 22.0532 20.7002 22.1045C20.2243 22.1558 19.8511 22.1045 19.4079 22.3891C19.0207 22.6363 18.6801 23.1169 18.6801 23.1169C18.6801 23.1169 18.3349 23.1402 18.1249 23.4481C18.013 23.6021 18.013 23.742 18.013 23.742C18.013 23.742 17.6911 23.756 17.5418 24.0266C17.4625 24.1806 17.4624 24.2039 17.4624 24.2039C17.4624 24.2039 16.856 24.3719 16.6414 24.7451C16.4967 25.0017 16.3848 25.2583 16.3614 25.5055V25.6595C16.3708 25.7621 16.3987 25.8554 16.4501 25.9581C16.4921 26.0374 16.5294 26.1027 16.562 26.154C16.59 26.196 16.6134 26.2333 16.6367 26.2567C16.66 26.294 16.6787 26.308 16.6973 26.322C16.7067 26.3313 16.7113 26.336 16.7113 26.336C16.7113 26.336 16.5714 26.6672 16.6507 26.9938C16.6647 27.0358 16.674 27.0824 16.688 27.1244C16.702 27.1617 16.716 27.1991 16.73 27.2364C16.8047 27.3997 16.8839 27.479 16.9213 27.5163C16.9306 27.5256 16.9353 27.5303 16.9353 27.5396C16.9353 27.563 16.9119 27.6049 16.898 27.6702C16.884 27.7356 16.87 27.8149 16.8606 27.9175C16.8513 28.0108 16.8513 28.1228 16.8606 28.2488C16.87 28.3747 16.8979 28.5054 16.9399 28.6453C17.0052 28.8599 17.0846 29.0185 17.1686 29.1352C17.2292 29.2238 17.2852 29.2798 17.3365 29.3311C17.4625 29.4431 17.5651 29.4758 17.6164 29.4851H17.6444C17.6444 29.4851 17.6677 29.807 17.6864 30.1942C17.6864 30.2829 17.7004 30.3715 17.7004 30.4602C17.7144 30.6888 17.7284 30.9127 17.7424 31.1133C17.7424 31.1879 17.7564 31.2673 17.7564 31.3326C17.7657 31.4725 17.7704 31.6032 17.7797 31.7151C17.7937 31.9951 17.7937 32.163 17.7937 32.163C17.7844 32.163 16.6927 32.7182 16.6927 32.7182C16.6927 32.7182 16.6507 32.6155 16.59 32.4989C16.548 32.4056 16.4874 32.303 16.4454 32.2283C16.2121 31.8551 15.9322 31.5098 15.6849 31.2253C15.6243 31.1599 15.5683 31.0946 15.517 31.0293C15.4517 30.9547 15.391 30.8847 15.335 30.8147C15.2837 30.754 15.2418 30.7027 15.2091 30.6514C15.1344 30.5488 15.0551 30.4462 14.9758 30.3435C14.8125 30.1382 14.6539 29.9563 14.514 29.8303C14.486 29.807 14.4533 29.7697 14.4346 29.7557C14.4206 29.7417 14.4067 29.7277 14.3927 29.7137C14.3413 29.6717 14.2667 29.611 14.1594 29.5364C14.1174 29.5084 14.0707 29.4711 14.0334 29.4338C13.9821 29.3918 13.9401 29.3405 13.9028 29.2891C13.8235 29.1865 13.7488 29.0839 13.6975 28.9952C13.6742 28.9672 13.6602 28.9346 13.6462 28.9066C13.6042 28.8273 13.5715 28.7666 13.5715 28.7666L15.9789 28.636L16.3381 27.6003L15.9182 27.2551L13.7675 26.5646C14.136 24.1292 17.7424 1.05438 17.7424 1.05438L17.3738 0L17.3645 0.0140097L16.6087 1.02638L11.8127 26.5553L9.14879 27.353L9.20945 28.3887L9.578 28.6547H9.58734L10.5344 28.6966C10.4458 28.7386 10.3291 28.8273 10.3151 28.9766C10.3058 29.0512 10.3011 29.1585 10.3151 29.2565V29.2845C10.3245 29.3731 10.3431 29.4524 10.3944 29.4898C10.4971 29.5691 10.5391 29.5644 10.5391 29.5644C10.5391 29.5644 10.3991 29.7603 10.4784 29.9749C10.5204 30.0869 10.5671 30.1569 10.6044 30.2035C10.6324 30.2455 10.665 30.2642 10.665 30.2642C10.665 30.2642 10.5484 30.3948 10.623 30.6141C10.637 30.6654 10.6604 30.7074 10.6837 30.7447C10.7443 30.8567 10.7957 30.8847 10.7957 30.8847C10.7957 30.8847 10.6837 31.2019 10.819 31.3606C10.847 31.4026 10.8936 31.4352 10.9356 31.4632C10.9776 31.4912 11.0243 31.5145 11.0616 31.5379C11.1409 31.5752 11.2015 31.5985 11.2015 31.5985L11.1409 32.1863L10.8236 32.2516L10.749 33.0961L11.1316 33.2594L12.6198 33.3713L12.6991 32.4849C12.6991 32.4849 12.6245 32.4336 12.5732 32.3916C12.5592 32.3776 12.5452 32.3636 12.5358 32.3496C12.5125 32.2983 12.5078 32.2096 12.5218 32.1303C12.5872 32.1163 12.7178 32.0883 12.8297 32.0697C12.8951 32.0603 12.9324 32.0697 12.9604 32.107C12.9697 32.121 12.9744 32.135 12.9884 32.1583C12.9884 32.1817 13.0024 32.219 13.0117 32.247C13.0397 32.4149 13.0723 32.6715 13.091 32.9375C13.091 33.0028 13.105 33.0634 13.105 33.1287C13.119 33.2547 13.1283 33.376 13.1423 33.4973C13.1423 33.5206 13.1423 33.5346 13.1517 33.5579C13.1936 33.9312 13.2683 34.2904 13.3569 34.645C13.3709 34.7103 13.3943 34.7849 13.4083 34.8502C13.4363 34.9436 13.4596 35.0462 13.4876 35.1442C13.4876 35.1535 13.5156 35.2328 13.5669 35.3401C13.5809 35.3774 13.6042 35.4194 13.6275 35.4707C13.6509 35.5221 13.6788 35.5734 13.7068 35.6247C13.7442 35.69 13.7815 35.7553 13.8235 35.8206C13.8468 35.8486 13.8655 35.886 13.8888 35.914C13.9634 36.0073 14.0334 36.1052 14.1174 36.1706C14.0147 36.3105 13.8701 36.5158 13.7582 36.7071C13.5529 37.0756 13.4596 37.4162 13.4363 37.7428C13.4129 38.0367 13.4596 38.298 13.5249 38.5359C13.5389 38.5872 13.5529 38.6385 13.5669 38.6805C13.6089 38.8111 13.6602 38.9371 13.7115 39.0397C13.7908 39.231 13.8795 39.413 13.9774 39.5949C13.8001 40.2854 13.4876 41.657 13.3849 42.1469C13.2823 42.6694 13.245 43.2012 13.245 43.7238C13.245 43.9944 13.259 44.251 13.2823 44.5075C13.2963 44.7361 13.3243 44.9554 13.3476 45.1607C13.3756 45.4826 13.4269 45.8138 13.5109 46.1078C13.5622 46.3504 13.6042 46.509 13.6229 46.579C13.6229 46.7329 13.6602 47.5773 13.7395 48.6317V48.697C13.7675 49.0796 13.8048 49.4761 13.8515 49.8867C13.8748 50.064 13.8888 50.2459 13.9121 50.4232C13.9401 50.6705 13.9774 50.9224 14.0148 51.1557C14.0568 51.4543 14.108 51.7482 14.1687 52.0141C14.7052 54.5287 15.615 56.7961 16.6694 59.0401C16.8653 59.4647 17.0706 59.8986 17.2852 60.3231C17.5838 60.9389 17.8917 61.5454 18.1996 62.1706C18.4702 62.7211 18.7501 63.2716 19.0207 63.8268C17.4345 63.9528 16.2028 64.4333 15.3164 65.2777C14.2807 66.2668 13.7675 67.6151 13.7675 69.3179V80.7061C13.7675 82.4089 14.2807 83.7479 15.3164 84.7463C15.8389 85.2455 16.4734 85.6187 17.2385 85.866H8.69624C9.45669 85.6187 10.0958 85.2408 10.6184 84.7463C11.6541 83.7572 12.1673 82.4089 12.1673 80.7061V78.8633C12.1673 78.3128 12.1439 77.7995 12.1066 77.3283C12.0646 76.8571 11.962 76.4186 11.7847 76.022C11.6074 75.6255 11.3508 75.2756 11.0149 74.9817C10.679 74.6878 10.2032 74.4265 9.58267 74.1979C10.0305 74.016 10.4178 73.778 10.735 73.5074C11.0522 73.2275 11.2995 72.9429 11.4908 72.635C11.6727 72.3271 11.808 72.0192 11.8874 71.6973C11.9667 71.38 12.0133 71.0908 12.0133 70.8248V69.3226C12.0133 68.9354 11.9853 68.4268 11.92 67.8064C11.8594 67.1812 11.6401 66.5747 11.2762 65.9822C10.9076 65.3897 10.3151 64.8765 9.50801 64.4473C8.7009 64.0134 7.5579 63.8035 6.08365 63.8035C4.60939 63.8035 3.46637 64.0181 2.65926 64.4473C1.85215 64.8812 1.26433 65.385 0.8911 65.9822C0.522536 66.5747 0.303262 67.1859 0.247278 67.8064C0.186628 68.4315 0.153965 68.9354 0.153965 69.3226V70.8248C0.153965 71.0908 0.191283 71.38 0.265929 71.6973C0.340575 72.0145 0.461878 72.3364 0.648492 72.649C0.830441 72.9662 1.07303 73.2555 1.36695 73.5214C1.66086 73.7873 2.03411 74.0113 2.48665 74.1979C1.87082 74.4405 1.39495 74.7484 1.05438 75.1216C0.71847 75.4902 0.466537 75.8914 0.321911 76.316C0.167954 76.7498 0.0793237 77.1791 0.0420008 77.6223C0.0140086 78.0608 0 78.4807 0 78.8679V80.7107C0 82.4136 0.513193 83.7526 1.5489 84.7509C2.07142 85.2501 2.70591 85.6234 3.47103 85.8706H0.00466992V86.6637H48.5011V85.8706H47.8339C47.8059 85.782 47.7686 85.6887 47.722 85.5721C47.68 85.4554 47.6334 85.3248 47.582 85.1848C47.5074 84.9702 47.4281 84.7369 47.3488 84.4803C46.8496 82.9641 46.2711 80.8367 46.467 79.6843C46.4903 79.5584 46.5183 79.4417 46.5603 79.3391C46.8309 78.6953 49.3968 78.7233 48.907 77.8136C48.8043 77.6223 48.5477 77.263 48.1885 76.7639C48.0719 76.6006 47.9412 76.4186 47.792 76.2273C47.7173 76.134 47.6473 76.036 47.5727 75.9334C47.1901 75.4296 46.7609 74.8464 46.2944 74.2259C46.2011 74.0999 46.1125 73.9786 46.0145 73.8433C45.8232 73.5867 45.6319 73.3301 45.4406 73.0596C45.3473 72.9289 45.2494 72.7936 45.1467 72.6583C43.7844 70.7735 42.3801 68.7348 41.559 67.1719C41.545 67.1439 41.1998 66.4534 40.6353 65.3804C40.5933 65.2917 40.5466 65.2031 40.4953 65.1144C39.5296 63.2809 38.018 60.5144 36.4318 57.9951C36.2872 57.7665 36.1379 57.5426 35.9979 57.314C35.9186 57.188 35.844 57.0714 35.7646 56.9547C35.3774 56.3669 34.9949 55.8024 34.6123 55.2892C34.2437 54.7853 33.8799 54.3234 33.5346 53.9082C33.2874 53.6143 32.9608 53.1991 32.5969 52.7046C32.3263 52.336 32.0324 51.9255 31.7245 51.4962C31.6498 51.3843 31.5799 51.2816 31.4959 51.1743C31.1973 50.7498 30.894 50.3019 30.6001 49.8634C29.6764 48.4824 28.8273 47.1155 28.3981 46.285C27.9735 45.6272 28.3327 45.5059 28.6173 45.4033C28.8833 45.31 30.2176 44.6055 30.3342 44.2976C30.4508 43.9897 30.0916 43.3599 30.0542 43.0426C29.9749 42.3102 30.8847 42.0162 31.3652 42.4408C31.5332 42.5854 31.7151 42.7627 31.9297 42.94C32.0324 43.0286 32.1444 43.1219 32.2517 43.2199C32.4803 43.4019 32.7275 43.5931 32.9981 43.7704C33.3993 44.0363 33.8612 44.2603 34.379 44.4142C35.5687 44.7641 38.5219 45.1187 40.4814 44.6568C41.4051 44.4376 42.3382 43.8637 42.5434 43.6818C42.8887 43.3739 43.0333 43.0659 42.9633 42.7814C42.9353 42.6694 42.884 42.5668 42.7954 42.4735C42.7161 42.3848 41.5917 43.024 41.1159 42.6414C41.0645 42.6041 41.0225 42.5621 40.9852 42.5248C40.9852 42.5248 40.9759 42.5108 40.9712 42.5014C40.9059 42.4268 40.8546 42.3615 40.8266 42.2868C40.8126 42.2495 40.7986 42.2122 40.7846 42.1749C40.6679 41.727 41.1018 41.3678 41.1532 41.3398C41.6803 41.0085 42.4221 41.0319 43.3459 40.5793C44.3349 40.0895 44.7828 39.5016 44.9135 39.3197C45.31 38.7318 45.3007 38.5499 45.4126 38.4566C45.5899 38.3166 46.1311 38.5732 46.257 38.172C46.285 38.0833 46.2944 37.976 46.2851 37.8501V37.8267C46.2711 37.6961 46.2337 37.5422 46.1544 37.3929C46.1264 37.3322 46.0891 37.2762 46.0424 37.2249C46.0331 37.2109 46.0285 37.2016 46.0145 37.1876C45.9865 37.1503 45.9538 37.1129 45.9211 37.0849C45.7952 36.9683 45.6879 36.903 45.5899 36.819C45.5526 36.7817 45.5153 36.7444 45.4873 36.6931C45.4733 36.6651 45.45 36.6324 45.436 36.5998C45.436 36.5858 45.422 36.5718 45.4126 36.5484C45.3846 36.4738 45.3753 36.4038 45.3753 36.3292C45.3613 35.816 45.8745 35.3261 46.0938 35.0742C46.313 34.8176 46.3597 34.547 46.2617 34.3837C46.2617 34.3837 46.2618 34.3464 46.1964 34.2904C46.0658 34.1504 45.6599 33.8565 44.4656 33.3573C43.7891 33.0774 42.6321 32.5642 41.2605 32.135C40.8079 31.9904 40.3274 31.8504 39.8376 31.7338C38.2607 31.3512 36.5531 31.1786 35.2748 31.1459H34.7523C32.6529 31.1833 31.4212 31.5845 31.4212 31.5845L30.894 30.4648C30.894 30.4648 32.9188 28.4121 33.2687 27.8615C33.6186 27.3064 33.7026 27.1197 33.7026 27.1197C33.7026 27.1197 35.0742 26.07 35.6294 25.7855C36.1846 25.5009 37.7848 24.6331 38.4799 23.8773C39.1751 23.1169 40.5094 21.6613 41.0039 21.1714C41.4984 20.6815 42.0535 20.2057 42.2355 20.0844C42.4174 19.9584 42.7347 19.5945 42.926 19.4825C43.3786 19.212 44.2369 19.1373 44.8761 18.7874C45.5153 18.4375 46.1684 18.2882 46.3877 18.2322C46.9289 18.0923 48.3751 17.6677 49.0796 17.4344C49.7188 17.2152 49.9893 17.3038 50.0033 17.0472C50.0033 17.0099 50.0033 16.9866 49.994 16.9586L49.966 16.9166L49.98 16.8979ZM4.91731 68.926C4.91731 68.3335 5.02926 67.951 5.2532 67.7737C5.47714 67.5964 5.75241 67.5078 6.08365 67.5078C6.39156 67.5078 6.66215 67.5964 6.89542 67.7737C7.12868 67.951 7.24532 68.3289 7.24532 68.926V70.9508C7.24532 71.5433 7.12868 71.9258 6.89542 72.1031C6.66215 72.2804 6.39156 72.3691 6.08365 72.3691C5.75241 72.3691 5.4818 72.2804 5.2532 72.1031C5.0246 71.9258 4.91731 71.548 4.91731 70.9508V68.926ZM4.91731 77.529C4.91731 76.9364 5.02926 76.5446 5.2532 76.3719C5.4818 76.1947 5.75241 76.106 6.08365 76.106C6.39156 76.106 6.66215 76.1947 6.89542 76.3719C7.12868 76.5492 7.24532 76.9271 7.24532 77.529V81.0467C7.24532 81.6392 7.12868 82.031 6.89542 82.2037C6.66215 82.3809 6.39156 82.4696 6.08365 82.4696C5.75241 82.4696 5.4818 82.3809 5.2532 82.2037C5.0246 82.0264 4.91731 81.6485 4.91731 81.0467V77.529ZM18.6661 68.926C18.6661 68.3335 18.7781 67.951 19.002 67.7737C19.226 67.5964 19.5012 67.5078 19.8325 67.5078C20.1404 67.5078 20.411 67.5964 20.6442 67.7737C20.8775 67.951 20.9941 68.3289 20.9941 68.926V81.0467C20.9941 81.6392 20.8775 82.031 20.6442 82.199C20.411 82.3763 20.1404 82.4649 19.8325 82.4649C19.5012 82.4649 19.2306 82.3763 19.002 82.199C18.7734 82.0217 18.6661 81.6438 18.6661 81.0467V68.926Z" fill="#2A282D"/>
<path id="Vector_2" d="M0 87.6054V88.2306H48.4964V87.6054V87.4375H0V87.6054Z" fill="#2A282D"/>
<path id="Vector_3" d="M0 89.1972V89.8224H48.4964V89.1972V89.0293H0V89.1972Z" fill="#2A282D"/>
<path id="Vector_4" d="M0.0195312 102.004H2.52016V93.2094H3.98042V102.004H6.48107V91.0959H0.0195312V102.004Z" fill="#2A282D"/>
<path id="Vector_5" d="M13.0838 91.6978C12.7992 91.4412 12.4539 91.2453 12.0574 91.11C11.6608 90.9794 11.2363 90.9141 10.7651 90.9141C10.2939 90.9141 9.86935 90.9794 9.47279 91.11C9.07624 91.2407 8.74032 91.4319 8.44641 91.6978C8.16182 91.9544 7.93321 92.2857 7.76992 92.6823C7.60664 93.0788 7.52734 93.5453 7.52734 94.0679V99.0271C7.52734 100.012 7.81192 100.781 8.39042 101.336C8.96893 101.901 9.75272 102.181 10.7604 102.181C11.7682 102.181 12.5659 101.901 13.1351 101.336C13.7089 100.772 13.9935 100.002 13.9935 99.0271V94.0679C13.9935 93.5407 13.9142 93.0788 13.7509 92.6823C13.5876 92.2857 13.3637 91.9544 13.0744 91.6978H13.0838ZM11.4975 99.2417C11.4975 99.3164 11.4976 99.405 11.4836 99.5217C11.4742 99.6383 11.4462 99.7503 11.4043 99.8576C11.3623 99.9602 11.2876 100.054 11.1896 100.128C11.0963 100.203 10.9564 100.245 10.7697 100.245C10.5831 100.245 10.4478 100.207 10.3452 100.128C10.2426 100.054 10.1679 99.9602 10.1259 99.8576C10.0839 99.7549 10.0513 99.6383 10.0513 99.5217C10.0513 99.405 10.042 99.3071 10.042 99.2417V93.8579C10.042 93.7693 10.042 93.662 10.0513 93.55C10.0513 93.4334 10.0793 93.3214 10.1259 93.2281C10.1679 93.1255 10.2426 93.0368 10.3452 92.9715C10.4478 92.8969 10.5878 92.8688 10.7697 92.8688C10.9517 92.8688 11.0917 92.9062 11.1896 92.9715C11.2829 93.0461 11.3576 93.1255 11.4043 93.2281C11.4509 93.3307 11.4789 93.4427 11.4836 93.55C11.4929 93.6666 11.4975 93.7693 11.4975 93.8579V99.2417Z" fill="#2A282D"/>
<path id="Vector_6" d="M17.9992 95.4069H17.528V93.2049H20.8777V91.1008H15.0273V102.004H18.5917C19.1469 102.004 19.6087 101.915 19.9866 101.733C20.3645 101.551 20.6631 101.309 20.8824 101.005C21.1016 100.707 21.2649 100.348 21.3536 99.937C21.4422 99.5265 21.4935 99.0926 21.4935 98.64C21.4935 97.623 21.1949 96.8299 20.5838 96.256C19.9773 95.6915 19.1189 95.4069 18.0038 95.4069H17.9992ZM18.9509 99.3585C18.9276 99.5498 18.8903 99.6944 18.825 99.8111C18.7643 99.9277 18.671 100.016 18.5544 100.068C18.4284 100.128 18.2698 100.147 18.0552 100.147H17.528V97.1751H18.1065C18.2977 97.1751 18.4517 97.2171 18.5684 97.3058C18.685 97.3944 18.7736 97.5017 18.8343 97.6417C18.8949 97.7816 18.9369 97.9356 18.9602 98.1129C18.9836 98.2901 18.9882 98.4721 18.9882 98.6634C18.9882 98.934 18.9789 99.1672 18.9602 99.3539H18.9509V99.3585Z" fill="#2A282D"/>
<path id="Vector_7" d="M25.0123 97.4688H27.7089V95.3554H25.0123V93.2094H28.0915V91.0959H22.5117V102.004H28.2081V99.8948H25.0123V97.4688Z" fill="#2A282D"/>
<path id="Vector_8" d="M36.4529 91.0959H30.4252C30.4019 91.8237 30.3879 92.5982 30.3833 93.4333C30.3739 94.2637 30.3459 95.0755 30.3039 95.8826C30.262 96.6897 30.178 97.4362 30.0753 98.1407C29.9727 98.8451 29.8188 99.4236 29.6135 99.8948H28.9883V104.01H31.0924V102.008H35.044V104.01H37.1434V99.8948H36.4482V91.0959H36.4575H36.4529ZM33.9522 99.8948H32.0535C32.1794 99.5262 32.2727 99.0737 32.3474 98.5325C32.422 97.9914 32.4874 97.4035 32.5387 96.7737C32.59 96.1485 32.6273 95.5047 32.6646 94.8376C32.6926 94.1798 32.7253 93.5453 32.7392 92.9528H33.9476V99.8995H33.9569L33.9522 99.8948Z" fill="#2A282D"/>
<path id="Vector_9" d="M39.7733 91.0959L37.7578 101.999H40.2724L40.5291 100.053H42.2879L42.5165 101.999H45.1571L43.109 91.0959H39.7733ZM40.7903 98.122L41.4294 92.7988H41.4575L42.05 98.122H40.7903Z" fill="#2A282D"/>
<path id="Vector_10" d="M46.2188 95.3554L46.7319 98.8498H47.9636L48.4768 95.3554V91.0959H46.2188V95.3554Z" fill="#2A282D"/>
<path id="Vector_11" d="M48.4768 99.4834H46.2188V101.998H48.4768V99.4834Z" fill="#2A282D"/>
</g>
</g>
</svg>
