<svg width="223" height="73" viewBox="0 0 223 73" fill="none" xmlns="http://www.w3.org/2000/svg">
<g id="&#208;&#188;&#208;&#188;&#208;&#190;&#208;&#188;&#208;&#176; 1" clip-path="url(#clip0_3096_21680)">
<g id="Clip path group">
<mask id="mask0_3096_21680" style="mask-type:luminance" maskUnits="userSpaceOnUse" x="0" y="0" width="223" height="73">
<g id="clip0_1002_3428">
<path id="Vector" d="M222.727 0H0V73H222.727V0Z" fill="white"/>
</g>
</mask>
<g mask="url(#mask0_3096_21680)">
<g id="Group">
<path id="Vector_2" d="M162.369 38.719C160.308 38.719 159.586 40.2744 159.586 41.7841C159.586 43.2939 160.308 44.8493 162.369 44.8493C164.43 44.8493 165.153 43.2939 165.153 41.7841C165.153 40.2744 164.43 38.719 162.369 38.719ZM162.369 44.1525C161.935 44.1525 160.622 44.0529 160.622 41.7717C160.622 39.4905 161.935 39.3909 162.369 39.3909C162.803 39.3909 164.116 39.4905 164.116 41.7717C164.116 44.0529 162.803 44.1525 162.369 44.1525Z" fill="#2A282D"/>
<path id="Vector_3" d="M198.947 20.5437H197.969V26.2219H198.947V23.5715H201.743V26.2219H202.722V20.5437H201.743V22.8789H198.947V20.5437Z" fill="#2A282D"/>
<path id="Vector_4" d="M196.822 34.0569L196.88 31.4272C196.913 29.7723 195.546 29.5151 194.629 29.5151C192.626 29.5151 192.226 30.6558 192.226 31.4148H193.159C193.126 30.2285 194.274 30.2078 194.629 30.2078C195.876 30.2078 195.897 31.0788 195.897 31.3484C195.897 32.0867 195.629 32.0743 194.794 32.1324C192.523 32.3439 192.023 32.9495 192.023 33.9325C192.023 35.1312 192.825 35.6413 194.018 35.6413C194.786 35.6413 195.567 35.351 195.955 34.6334C196.079 35.3717 196.413 35.463 196.967 35.463C197.177 35.463 197.28 35.4505 197.413 35.4174V34.7247C196.814 34.7579 196.822 34.4883 196.822 34.0528V34.0569ZM195.876 32.9951C195.79 34.5712 194.898 34.9528 194.13 34.9528C193.494 34.9528 193.039 34.5712 193.039 33.9034C193.039 32.9868 193.787 32.9412 194.654 32.796C195.278 32.7047 195.612 32.7504 195.901 32.5181L195.881 32.9992L195.876 32.9951Z" fill="#2A282D"/>
<path id="Vector_5" d="M196.052 20.5437V22.8789H193.26V20.5437H192.277V26.2219H193.26V23.5715H196.052V26.2219H197.035V20.5437H196.052Z" fill="#2A282D"/>
<path id="Vector_6" d="M192.502 57.3382H191.523V63.0165H192.502V59.9181C192.502 58.0392 193.592 57.8028 194.129 57.8028C195.343 57.8028 195.323 58.931 195.323 59.5365V63.0123H196.301V59.2337C196.301 58.1056 195.921 57.1101 194.443 57.1101C193.551 57.1101 192.894 57.5581 192.506 58.1263V57.3341L192.502 57.3382Z" fill="#2A282D"/>
<path id="Vector_7" d="M175.587 9.74721C175.376 9.51079 175.376 9.29096 175.388 9.19971H174.555C174.587 9.29925 174.6 9.40295 174.633 9.50249C174.844 10.1288 175.355 10.6763 176.47 10.6763C176.615 10.6763 176.772 10.6639 176.917 10.6431C177.986 10.4648 178.296 9.68084 178.387 9.19971H177.553C177.586 9.77209 177.061 10.0832 176.475 10.0832C176.305 10.0832 176.152 10.0707 175.983 10.0168C175.839 9.96289 175.706 9.87164 175.595 9.74721" fill="#2A282D"/>
<path id="Vector_8" d="M179.006 11.344H177.916L174.963 15.8733V11.344H173.984V17.0264H175.087L178.028 12.4846V17.0264H179.006V11.344Z" fill="#2A282D"/>
<path id="Vector_9" d="M166.511 14.0526V14.0194C166.845 13.9323 167.489 13.6751 167.489 12.7792C167.489 12.2856 167.266 11.1243 165.251 11.1243C164.673 11.1243 163.013 11.2238 162.922 12.9119H163.859C163.859 12.5221 164.095 11.8169 165.193 11.8169C166.362 11.8169 166.473 12.5428 166.473 12.8456C166.473 13.6834 165.693 13.729 165.292 13.729H164.57V14.4217H165.404C165.693 14.4217 166.684 14.4424 166.684 15.4379C166.684 16.2094 166.073 16.5578 165.214 16.5578C164.202 16.5578 163.711 15.9439 163.711 15.2844H162.777C162.81 15.9232 163.12 17.2505 165.292 17.2505C167.287 17.2505 167.696 16.2218 167.696 15.5043C167.696 14.5876 167.085 14.1397 166.502 14.0526" fill="#2A282D"/>
<path id="Vector_10" d="M157.54 32.5388C157.54 31.253 157.995 30.212 159.221 30.212C159.568 30.212 160.534 30.2576 160.745 31.5185H161.678C161.554 30.4567 160.786 29.5151 159.196 29.5151C157.004 29.5151 156.504 31.2157 156.504 32.5347C156.504 35.5667 158.697 35.6455 159.263 35.6455C161.278 35.6455 161.666 34.0693 161.724 33.3974H160.79C160.757 34.0237 160.402 34.9528 159.287 34.9528C158.04 34.9528 157.54 33.8246 157.54 32.5388Z" fill="#2A282D"/>
<path id="Vector_11" d="M157.164 38.719C155.996 38.719 155.405 39.5029 155.203 39.9384C155.058 39.3453 154.567 38.719 153.588 38.719C152.886 38.719 152.143 39.1213 151.841 39.7808L151.854 39.7144V38.943H150.875V44.6253H151.854V41.2367C151.854 40.1209 152.531 39.4158 153.345 39.4158C154.237 39.4158 154.435 40.208 154.435 41.0376V44.6253H155.413V41.2367C155.413 39.7725 156.235 39.4158 156.904 39.4158C157.916 39.4158 157.994 40.432 157.994 41.0251V44.6253H158.973V40.9588C158.973 40.3325 158.895 38.7231 157.16 38.7231" fill="#2A282D"/>
<path id="Vector_12" d="M154.914 35.4216H155.893V29.7434H154.802L151.854 34.2727V29.7434H150.875V35.4216H151.973L154.914 30.884V35.4216Z" fill="#2A282D"/>
<path id="Vector_13" d="M151.858 53.8209V50.4322C151.858 49.3165 152.535 48.6114 153.349 48.6114C154.241 48.6114 154.439 49.4036 154.439 50.2331V53.8209H155.418V50.4322C155.418 48.9681 156.239 48.6114 156.908 48.6114C157.92 48.6114 157.999 49.6317 157.999 50.2207V53.8209H158.977V50.1543C158.977 49.528 158.899 47.9187 157.164 47.9187C155.996 47.9187 155.405 48.7026 155.203 49.1381C155.058 48.545 154.567 47.9187 153.588 47.9187C152.886 47.9187 152.143 48.321 151.841 48.9805L151.854 48.9142V48.1427H150.875V53.8209H151.854H151.858Z" fill="#2A282D"/>
<path id="Vector_14" d="M158.086 63.0206V58.035H159.321V57.3423H158.086V56.6621C158.086 56.4257 158.098 55.8782 158.631 55.8782C158.73 55.8782 158.842 55.8575 159.321 55.8906V55.198C159.156 55.1855 158.809 55.1523 158.598 55.1523C157.586 55.1523 157.107 55.5879 157.107 56.575V57.3465H156.062V58.0392H157.107V63.0247H158.086V63.0206Z" fill="#2A282D"/>
<path id="Vector_15" d="M158.756 20.3198C156.695 20.3198 155.973 21.8752 155.973 23.385C155.973 24.8948 156.695 26.4502 158.756 26.4502C160.816 26.4502 161.539 24.8948 161.539 23.385C161.539 21.8752 160.816 20.3198 158.756 20.3198ZM158.756 25.7533C158.322 25.7533 157.009 25.6538 157.009 23.3726C157.009 21.0913 158.322 20.9918 158.756 20.9918C159.189 20.9918 160.503 21.0913 160.503 23.3726C160.503 25.6538 159.189 25.7533 158.756 25.7533Z" fill="#2A282D"/>
<path id="Vector_16" d="M163.705 48.1426V51.2409C163.705 51.6433 163.726 53.3563 162.078 53.3563C161.376 53.3563 160.889 53.0535 160.889 51.6225V48.1467H159.91V51.9129C159.91 52.7631 160.1 54.0489 161.768 54.0489C161.967 54.0489 163.115 54.0033 163.685 53.0203H163.705V53.825H164.684V48.1467H163.705V48.1426Z" fill="#2A282D"/>
<path id="Vector_17" d="M166.945 35.4216L164.149 32.3814L166.454 30.0877L168.754 35.4258L168.622 35.8489C168.444 36.3507 168.308 36.8111 167.73 36.8111C167.639 36.8111 167.54 36.7987 167.238 36.7572V37.4831C167.449 37.5287 167.73 37.5411 168.04 37.5411C169.109 37.5411 169.34 36.6369 169.522 36.0977L171.769 29.7476H170.79L169.287 34.3432L167.474 29.7476H165.648L163.233 32.232V29.7476H162.254V35.4299H163.233V32.5888L165.772 35.4299H166.941L166.945 35.4216Z" fill="#2A282D"/>
<path id="Vector_18" d="M173.087 53.3522C171.794 53.3522 171.294 52.1784 171.294 51.2037H175.647C175.647 51.1125 175.635 51.0129 175.635 50.9258C175.577 49.6939 175.279 47.9187 173.021 47.9187C170.402 47.9187 170.258 50.2207 170.258 51.0046C170.258 51.5189 170.316 54.0449 173.12 54.0449C174.854 54.0449 175.445 52.9831 175.589 52.1784H174.656C174.532 52.8047 174.032 53.3522 173.087 53.3522ZM173.041 48.6114C174.321 48.6114 174.577 49.752 174.61 50.511H171.294C171.294 49.7935 171.596 48.6114 173.041 48.6114Z" fill="#2A282D"/>
<path id="Vector_19" d="M172.619 32.5388C172.619 31.253 173.073 30.212 174.299 30.212C174.646 30.212 175.613 30.2576 175.823 31.5185H176.756C176.633 30.4567 175.864 29.5151 174.275 29.5151C172.082 29.5151 171.582 31.2157 171.582 32.5347C171.582 35.5667 173.775 35.6455 174.345 35.6455C176.36 35.6455 176.748 34.0693 176.806 33.3974H175.873C175.84 34.0237 175.48 34.9528 174.37 34.9528C173.122 34.9528 172.623 33.8246 172.623 32.5388" fill="#2A282D"/>
<path id="Vector_20" d="M171.439 41.7385C171.439 40.4527 171.893 39.4117 173.12 39.4117C173.467 39.4117 174.433 39.4573 174.643 40.7223H175.577C175.453 39.6605 174.685 38.719 173.095 38.719C170.902 38.719 170.402 40.4196 170.402 41.7385C170.402 44.7705 172.595 44.8493 173.165 44.8493C175.18 44.8493 175.569 43.2732 175.626 42.6012H174.693C174.66 43.2275 174.305 44.1566 173.19 44.1566C171.943 44.1566 171.443 43.0284 171.443 41.7385" fill="#2A282D"/>
<path id="Vector_21" d="M165.609 23.2605V23.2273C165.799 23.1609 166.633 22.9121 166.633 21.8959C166.633 20.5976 165.407 20.5437 164.841 20.5437H162.148V26.2219H164.808C165.733 26.2219 166.844 26.0436 166.844 24.7453C166.844 24.1978 166.712 23.5259 165.609 23.2563V23.2605ZM163.127 21.2364H164.531C164.932 21.2364 165.646 21.282 165.646 22.041C165.646 22.4309 165.411 22.9121 164.49 22.9121H163.131V21.2364H163.127ZM164.564 25.5293H163.127V23.6047H164.531C164.965 23.6047 165.832 23.6711 165.832 24.6541C165.832 25.5044 164.895 25.5251 164.564 25.5251V25.5293Z" fill="#2A282D"/>
<path id="Vector_22" d="M170.293 20.3198C169.802 20.3198 168.988 20.465 168.422 21.3277H168.389V20.5438H167.477V28.2918H168.455V25.4049C168.955 26.3879 170.091 26.446 170.314 26.446C171.606 26.446 172.841 25.5833 172.841 23.3808C172.841 21.1784 171.685 20.3157 170.293 20.3157V20.3198ZM170.136 25.7533C169.389 25.7533 168.389 25.1602 168.389 23.4057C168.389 21.2572 169.579 21.0125 170.082 21.0125C171.197 21.0125 171.809 21.9167 171.809 23.385C171.809 25.1975 170.929 25.7533 170.14 25.7533H170.136Z" fill="#2A282D"/>
<path id="Vector_23" d="M170.813 16.5578C169.52 16.5578 169.021 15.384 169.021 14.4093H173.373C173.373 14.318 173.361 14.2185 173.361 14.1314C173.307 12.8995 173.006 11.1243 170.747 11.1243C168.129 11.1243 167.988 13.4263 167.988 14.2102C167.988 14.7245 168.046 17.2505 170.85 17.2505C172.585 17.2505 173.175 16.1886 173.32 15.384H172.386C172.262 16.0103 171.763 16.5578 170.817 16.5578H170.813ZM170.768 11.8169C172.048 11.8169 172.304 12.9576 172.337 13.7166H169.021C169.021 12.999 169.322 11.8169 170.768 11.8169Z" fill="#2A282D"/>
<path id="Vector_24" d="M175.962 25.7533C174.669 25.7533 174.169 24.5795 174.169 23.6048H178.522C178.522 23.5136 178.51 23.414 178.51 23.3269C178.452 22.0951 178.154 20.3198 175.891 20.3198C173.277 20.3198 173.133 22.6218 173.133 23.4057C173.133 23.9201 173.191 26.446 175.995 26.446C177.729 26.446 178.32 25.3842 178.464 24.5795H177.531C177.407 25.2058 176.907 25.7533 175.962 25.7533ZM175.916 21.0125C177.196 21.0125 177.452 22.1531 177.485 22.9122H174.169C174.169 22.1946 174.471 21.0125 175.916 21.0125Z" fill="#2A282D"/>
<path id="Vector_25" d="M179.704 29.5193C177.511 29.5193 177.012 31.2199 177.012 32.5388C177.012 35.5708 179.205 35.6496 179.774 35.6496C181.79 35.6496 182.178 34.0735 182.236 33.4016H181.302C181.269 34.0279 180.914 34.957 179.799 34.957C178.552 34.957 178.052 33.8288 178.052 32.543C178.052 31.2572 178.507 30.2161 179.733 30.2161C180.08 30.2161 181.046 30.2617 181.257 31.5226H182.19C182.066 30.4608 181.298 29.5193 179.708 29.5193" fill="#2A282D"/>
<path id="Vector_26" d="M182.172 38.9429H181.16L182.985 44.6212H184.034L185.211 40.0711L186.392 44.6212H187.437L189.262 38.9429H188.25L186.871 43.493L185.69 38.9429H184.732L183.555 43.493L182.172 38.9429Z" fill="#2A282D"/>
<path id="Vector_27" d="M180.475 20.5437H179.125V26.2219H180.108V21.9622L180.083 21.6636H180.108L182.02 26.2219H182.78L184.692 21.6636H184.725L184.692 21.9622V26.2219H185.67V20.5437H184.324L182.4 25.1601L180.475 20.5437Z" fill="#2A282D"/>
<path id="Vector_28" d="M186.808 29.7434H181.906V30.4361H183.868V35.4216H184.847V30.4361H186.808V29.7434Z" fill="#2A282D"/>
<path id="Vector_29" d="M189.106 25.7533C187.814 25.7533 187.314 24.5795 187.314 23.6048H191.667C191.667 23.5136 191.654 23.414 191.654 23.3269C191.596 22.0951 191.299 20.3198 189.036 20.3198C186.422 20.3198 186.277 22.6218 186.277 23.4057C186.277 23.9201 186.331 26.446 189.139 26.446C190.878 26.446 191.464 25.3842 191.609 24.5795H190.675C190.552 25.2058 190.052 25.7533 189.106 25.7533ZM189.061 21.0125C190.341 21.0125 190.597 22.1531 190.63 22.9122H187.314C187.314 22.1946 187.615 21.0125 189.061 21.0125Z" fill="#2A282D"/>
<path id="Vector_30" d="M189.069 57.3382H188.09V63.0165H189.069V60.0965C189.069 59.9969 189.069 59.8974 189.081 59.7937C189.168 58.3627 189.936 57.8608 191.253 57.8028V57.1101L190.964 57.1226C190.175 57.1557 189.362 57.5912 189.093 58.4291H189.073V57.3341L189.069 57.3382Z" fill="#2A282D"/>
<path id="Vector_31" d="M184.915 62.5519C183.622 62.5519 183.122 61.3781 183.122 60.4034H187.475C187.475 60.3122 187.463 60.2126 187.463 60.1255C187.405 58.8936 187.108 57.1184 184.849 57.1184C182.235 57.1184 182.086 59.4204 182.086 60.2043C182.086 60.7186 182.144 63.2446 184.948 63.2446C186.682 63.2446 187.273 62.1828 187.417 61.3781H186.484C186.36 62.0044 185.86 62.5519 184.915 62.5519ZM184.869 57.8111C186.15 57.8111 186.406 58.9517 186.439 59.7107H183.122C183.122 58.9932 183.424 57.8111 184.869 57.8111Z" fill="#2A282D"/>
<path id="Vector_32" d="M182.944 48.1427H181.965V53.8209H182.944V50.4322C182.944 49.3165 183.625 48.6114 184.434 48.6114C185.326 48.6114 185.525 49.4036 185.525 50.2331V53.8209H186.503V50.4322C186.503 48.9681 187.325 48.6114 187.994 48.6114C189.006 48.6114 189.084 49.6317 189.084 50.2207V53.8209H190.063V50.1543C190.063 49.528 189.985 47.9187 188.25 47.9187C187.081 47.9187 186.491 48.7026 186.293 49.1381C186.148 48.545 185.657 47.9187 184.678 47.9187C183.976 47.9187 183.233 48.321 182.931 48.9805L182.944 48.9142V48.1427Z" fill="#2A282D"/>
<path id="Vector_33" d="M180.496 55.1938V58.0807C180.038 57.3092 179.394 57.1184 178.638 57.1184C176.457 57.1184 176.09 58.9724 176.09 60.1711C176.09 61.9961 177.015 63.2487 178.663 63.2487C179.856 63.2487 180.343 62.61 180.533 62.2408H180.566V63.0248H181.479V55.198H180.5L180.496 55.1938ZM178.869 62.5519C178.299 62.5519 177.122 62.3155 177.122 60.1711C177.122 58.5037 177.878 57.8111 178.815 57.8111C179.753 57.8111 180.562 58.5037 180.562 60.1504C180.562 61.9049 179.728 62.5519 178.869 62.5519Z" fill="#2A282D"/>
<path id="Vector_34" d="M180.049 48.1426V51.2409C180.049 51.6433 180.07 53.3563 178.422 53.3563C177.72 53.3563 177.229 53.0535 177.229 51.6225V48.1467H176.25V51.9129C176.25 52.7631 176.44 54.0489 178.108 54.0489C178.307 54.0489 179.455 54.0033 180.024 53.0203H180.049V53.825H181.028V48.1467H180.049V48.1426Z" fill="#2A282D"/>
<path id="Vector_35" d="M178.615 38.719C176.555 38.719 175.832 40.2744 175.832 41.7841C175.832 43.2939 176.555 44.8493 178.615 44.8493C180.676 44.8493 181.399 43.2939 181.399 41.7841C181.399 40.2744 180.676 38.719 178.615 38.719ZM178.615 44.1525C178.182 44.1525 176.869 44.0529 176.869 41.7717C176.869 39.4905 178.182 39.3909 178.615 39.3909C179.049 39.3909 180.362 39.4905 180.362 41.7717C180.362 44.0529 179.049 44.1525 178.615 44.1525Z" fill="#2A282D"/>
<path id="Vector_36" d="M173.026 57.1184C170.965 57.1184 170.242 58.6697 170.242 60.1794C170.242 61.6892 170.965 63.2446 173.026 63.2446C175.086 63.2446 175.809 61.6892 175.809 60.1794C175.809 58.6697 175.086 57.1184 173.026 57.1184ZM173.026 62.5519C172.592 62.5519 171.279 62.4524 171.279 60.1711C171.279 57.8899 172.592 57.7903 173.026 57.7903C173.459 57.7903 174.772 57.8899 174.772 60.1711C174.772 62.4524 173.459 62.5519 173.026 62.5519Z" fill="#2A282D"/>
<path id="Vector_37" d="M166.619 40.3076C166.619 39.4034 167.663 39.4117 167.787 39.4117C168.911 39.4117 169.08 40.1043 169.113 40.4279H170.046C169.993 39.8016 169.679 38.719 167.754 38.719C166.73 38.719 165.607 39.0881 165.607 40.3532C165.607 41.5477 166.441 41.7966 167.387 42.0081L167.99 42.1408C169.092 42.4104 169.179 42.7132 169.179 43.0782C169.179 43.3146 169.191 44.1525 167.878 44.1525C167.123 44.1525 166.375 43.8372 166.342 42.933H165.363C165.396 43.9741 166.185 44.8451 167.87 44.8451C168.126 44.8451 170.195 44.7995 170.195 43.0118C170.195 41.838 169.336 41.6265 168.18 41.3569C167.366 41.1786 166.619 41.1122 166.619 40.3034" fill="#2A282D"/>
<path id="Vector_38" d="M166.474 49.5031C166.474 48.5989 167.523 48.6072 167.643 48.6072C168.766 48.6072 168.935 49.2999 168.968 49.6276H169.902C169.848 49.0013 169.534 47.9146 167.61 47.9146C166.586 47.9146 165.462 48.2837 165.462 49.5488C165.462 50.7474 166.297 50.9922 167.242 51.2037L167.845 51.3364C168.948 51.606 169.035 51.9088 169.035 52.2738C169.035 52.5102 169.047 53.3481 167.734 53.3481C166.978 53.3481 166.231 53.037 166.197 52.1286H165.219C165.252 53.1697 166.041 54.0407 167.725 54.0407C167.981 54.0407 170.05 53.9951 170.05 52.2075C170.05 51.0336 169.191 50.8221 168.035 50.5525C167.222 50.3742 166.474 50.3078 166.474 49.499" fill="#2A282D"/>
<path id="Vector_39" d="M162.506 59.6319C162.506 58.512 163.188 57.8111 163.997 57.8111C164.889 57.8111 165.087 58.6033 165.087 59.4328V63.0206H166.066V59.6319C166.066 58.1678 166.888 57.8111 167.557 57.8111C168.569 57.8111 168.647 58.8273 168.647 59.4204V63.0206H169.626V59.354C169.626 58.7277 169.547 57.1184 167.813 57.1184C166.644 57.1184 166.054 57.9023 165.851 58.3378C165.707 57.7447 165.215 57.1184 164.237 57.1184C163.535 57.1184 162.791 57.5207 162.49 58.1802L162.502 58.1139V57.3424H161.523V63.0206H162.502V59.6319H162.506Z" fill="#2A282D"/>
<path id="Vector_40" d="M157.33 66.5543H156.352V72.2367H157.33V69.3167C157.33 69.2172 157.33 69.1135 157.343 69.0139C157.425 67.6576 158.127 67.1392 159.321 67.0396V67.247H160.333V71.0588C160.333 71.6519 160.32 72.4565 161.489 72.4565C161.836 72.4565 162.203 72.3653 162.513 72.2326V71.5399C162.323 71.598 162.112 71.6394 161.902 71.6394C161.278 71.6394 161.311 71.2703 161.311 70.8555V67.2428H162.513V66.5502H161.311V64.8496H160.333V66.5502H159.511V66.3262L159.222 66.3386C158.433 66.3718 157.619 66.8073 157.351 67.6452H157.33V66.5502V66.5543Z" fill="#2A282D"/>
<path id="Vector_41" d="M153.326 57.1184C151.266 57.1184 150.543 58.6697 150.543 60.1794C150.543 61.6892 151.266 63.2446 153.326 63.2446C155.387 63.2446 156.11 61.6892 156.11 60.1794C156.11 58.6697 155.387 57.1184 153.326 57.1184ZM153.326 62.5519C152.893 62.5519 151.58 62.4524 151.58 60.1711C151.58 57.8899 152.893 57.7903 153.326 57.7903C153.76 57.7903 155.073 57.8899 155.073 60.1711C155.073 62.4524 153.76 62.5519 153.326 62.5519Z" fill="#2A282D"/>
<path id="Vector_42" d="M89.1624 49.9055C82.9803 49.9055 78.5781 53.8293 78.5781 61.4528C78.5781 72.8425 87.7046 73.0001 89.1624 73.0001C90.5251 73.0001 99.7466 72.8425 99.7466 61.4528C99.7466 52.5808 94.0725 49.9055 89.1624 49.9055ZM89.1624 70.5405C82.8234 70.5405 81.7456 64.9701 81.7456 61.4528C81.7456 59.0886 82.3815 52.3651 89.1624 52.3651C94.2666 52.3651 96.5792 56.3179 96.5792 61.4528C96.5792 70.2294 90.6862 70.5405 89.1624 70.5405Z" fill="#2A282D"/>
<path id="Vector_43" d="M2.64296 1.71289H0V72.6349H2.64296V1.71289Z" fill="#2A282D"/>
<path id="Vector_44" d="M76.0062 1.71289H73.3633V72.6349H76.0062V1.71289Z" fill="#2A282D"/>
<path id="Vector_45" d="M82.4292 26.0271H77.9609V48.3128H80.9384V30.4527L80.8765 29.5941H80.9384L88.1652 48.3128H90.5728L97.7708 29.5941H97.8658L97.7997 30.4527V48.3128H100.777V26.0271H96.3089L89.367 44.3642L82.4292 26.0271Z" fill="#2A282D"/>
<path id="Vector_46" d="M97.7997 23.9986H100.781V1.71289H96.3089L89.3711 20.05L82.4292 1.71289H77.9609V23.9986H80.9384V6.13852L80.8765 5.27994H80.9384L88.1652 23.9986H90.5728L97.7708 5.27994H97.8658L97.7997 6.13852V23.9986Z" fill="#2A282D"/>
<path id="Vector_47" d="M121.429 72.6639H124.41V50.3823H119.938L113 68.7153L106.058 50.3823H101.59V72.6639H104.567V54.8079L104.505 53.9452H104.567L111.794 72.6639H114.206L121.396 53.9452H121.495L121.429 54.8079V72.6639Z" fill="#2A282D"/>
<path id="Vector_48" d="M137.122 50.3577H133.954L125.555 72.6393H128.755L130.849 66.8781H140.231L142.325 72.6393H145.526L137.126 50.3577H137.122ZM131.671 64.3645L135.536 53.3814L139.401 64.3645H131.667H131.671Z" fill="#2A282D"/>
<path id="Vector_49" d="M149.361 1.71289H146.723V72.6349H149.361V1.71289Z" fill="#2A282D"/>
<path id="Vector_50" d="M155.267 70.8682L155.325 68.2385C155.358 66.5836 153.991 66.3264 153.075 66.3264C151.072 66.3264 150.671 67.467 150.671 68.2261H151.604C151.571 67.0398 152.719 67.0191 153.075 67.0191C154.322 67.0191 154.342 67.8901 154.342 68.1597C154.342 68.898 154.074 68.8856 153.24 68.9436C150.968 69.1552 150.469 69.7607 150.469 70.7437C150.469 71.9424 151.27 72.4526 152.459 72.4526C153.227 72.4526 154.008 72.1623 154.396 71.4447C154.52 72.183 154.854 72.2701 155.408 72.2701C155.618 72.2701 155.722 72.2577 155.854 72.2245V71.5318C155.255 71.565 155.263 71.2954 155.263 70.8599L155.267 70.8682ZM154.322 69.8064C154.235 71.3825 153.343 71.7641 152.575 71.7641C151.939 71.7641 151.485 71.3825 151.485 70.7106C151.485 69.7939 152.232 69.7483 153.099 69.6031C153.723 69.5119 154.057 69.5575 154.346 69.3211L154.326 69.8022L154.322 69.8064Z" fill="#2A282D"/>
<path id="Vector_51" d="M150.543 23.3394C150.543 26.3714 152.736 26.446 153.306 26.446C155.321 26.446 155.709 24.8699 155.767 24.1979H154.834C154.801 24.8243 154.441 25.7533 153.33 25.7533C152.083 25.7533 151.584 24.6252 151.584 23.3394C151.584 22.0536 152.038 21.0125 153.264 21.0125C153.611 21.0125 154.578 21.0581 154.788 22.319H155.722C155.598 21.2572 154.83 20.3157 153.24 20.3157C151.047 20.3157 150.547 22.0162 150.547 23.3352" fill="#2A282D"/>
<path id="Vector_52" d="M156.438 7.82666H157.42V2.14844H156.07L154.146 6.76485L152.221 2.14844H150.875V7.82666H151.854V3.56696L151.829 3.26418H151.854L153.77 7.82666H154.526L156.438 3.26418H156.471L156.438 3.56696V7.82666Z" fill="#2A282D"/>
<path id="Vector_53" d="M156.438 17.0264H157.42V11.344H156.07L154.146 15.9646L152.221 11.344H150.875V17.0264H151.854V12.7667L151.829 12.4639H151.854L153.77 17.0264H154.526L156.438 12.4639H156.471L156.438 12.7667V17.0264Z" fill="#2A282D"/>
<path id="Vector_54" d="M157.629 11.344L160.078 17.0222L159.946 17.4494C159.768 17.9513 159.632 18.4117 159.054 18.4117C158.963 18.4117 158.864 18.3993 158.562 18.3578V19.0837C158.773 19.1293 159.054 19.1376 159.363 19.1376C160.433 19.1376 160.664 18.2334 160.846 17.6942L163.097 11.344H162.118L160.615 15.9397L158.798 11.344H157.629Z" fill="#2A282D"/>
<path id="Vector_55" d="M160.815 1.92456C158.754 1.92456 158.031 3.47996 158.031 4.98973C158.031 6.49951 158.754 8.05491 160.815 8.05491C162.875 8.05491 163.598 6.49951 163.598 4.98973C163.598 3.47996 162.875 1.92456 160.815 1.92456ZM160.815 7.35809C160.381 7.35809 159.068 7.25854 159.068 4.97729C159.068 2.69604 160.381 2.59649 160.815 2.59649C161.248 2.59649 162.561 2.69604 162.561 4.97729C162.561 7.25854 161.248 7.35809 160.815 7.35809Z" fill="#2A282D"/>
<path id="Vector_56" d="M164.919 4.93994C164.919 3.65416 165.374 2.61308 166.6 2.61308C166.947 2.61308 167.913 2.6587 168.124 3.91961H169.057C168.933 2.85779 168.165 1.91626 166.575 1.91626C164.383 1.91626 163.883 3.61683 163.883 4.9358C163.883 7.96779 166.076 8.04659 166.641 8.04659C168.657 8.04659 169.045 6.47046 169.103 5.79852H168.169C168.136 6.42483 167.777 7.35392 166.666 7.35392C165.419 7.35392 164.919 6.22574 164.919 4.93994Z" fill="#2A282D"/>
<path id="Vector_57" d="M171.528 4.78638L174.175 2.14844H173.031L170.616 4.62877V2.14844H169.633V7.82666H170.616V4.98547L173.151 7.82666H174.32L171.528 4.78638Z" fill="#2A282D"/>
<path id="Vector_58" d="M176.658 1.92456C174.598 1.92456 173.875 3.47996 173.875 4.98973C173.875 6.49951 174.598 8.05491 176.658 8.05491C178.719 8.05491 179.442 6.49951 179.442 4.98973C179.442 3.47996 178.719 1.92456 176.658 1.92456ZM176.658 7.35809C176.225 7.35809 174.912 7.25854 174.912 4.97729C174.912 2.69604 176.225 2.59649 176.658 2.59649C177.092 2.59649 178.405 2.69604 178.405 4.97729C178.405 7.25854 177.092 7.35809 176.658 7.35809Z" fill="#2A282D"/>
<path id="Vector_59" d="M183.511 4.86519V4.832C183.701 4.76564 184.536 4.51678 184.536 3.5006C184.536 2.20236 183.309 2.14844 182.743 2.14844H180.051V7.83081H182.71C183.635 7.83081 184.746 7.65246 184.746 6.35422C184.746 5.80672 184.614 5.13479 183.511 4.86519ZM181.03 2.84111H182.434C182.834 2.84111 183.544 2.88673 183.544 3.64577C183.544 4.03565 183.309 4.51678 182.388 4.51678H181.03V2.84111ZM182.467 7.13399H181.03V5.20945H182.434C182.867 5.20945 183.734 5.27581 183.734 6.25882C183.734 7.10911 182.797 7.12985 182.467 7.12985V7.13399Z" fill="#2A282D"/>
<path id="Vector_60" d="M186.091 4.93994C186.091 3.65416 186.545 2.61308 187.772 2.61308C188.119 2.61308 189.085 2.6587 189.296 3.91961H190.229C190.105 2.85779 189.337 1.91626 187.747 1.91626C185.554 1.91626 185.055 3.61683 185.055 4.9358C185.055 7.96779 187.248 8.04659 187.813 8.04659C189.829 8.04659 190.217 6.47046 190.275 5.79852H189.341C189.308 6.42483 188.949 7.35392 187.838 7.35392C186.591 7.35392 186.091 6.22574 186.091 4.93994Z" fill="#2A282D"/>
<path id="Vector_61" d="M195.496 7.82666L192.7 4.78638L195.351 2.14844H194.203L191.787 4.62877V2.14844H190.809V7.82666H191.787V4.98547L194.327 7.82666H195.496Z" fill="#2A282D"/>
<path id="Vector_62" d="M199.625 7.82666H200.604V2.14844H199.513L196.561 6.67359V2.14844H195.582V7.82666H196.685L199.625 3.28906V7.82666Z" fill="#2A282D"/>
<path id="Vector_63" d="M205.93 0H205.096C205.129 0.572386 204.604 0.883466 204.014 0.883466C203.844 0.883466 203.691 0.871023 203.522 0.817102C203.378 0.759034 203.245 0.671932 203.134 0.5475C202.923 0.31108 202.923 0.0871023 202.936 0H202.102C202.135 0.0995454 202.147 0.203239 202.18 0.302784C202.391 0.929091 202.903 1.47659 204.018 1.47659C204.162 1.47659 204.319 1.46415 204.464 1.44341C205.533 1.26506 205.843 0.481136 205.934 0" fill="#2A282D"/>
<path id="Vector_64" d="M205.578 7.82666H206.557V2.14844H205.466L202.518 6.67359V2.14844H201.539V7.82666H202.642L205.578 3.28906V7.82666Z" fill="#2A282D"/>
<path id="Vector_65" d="M206.111 20.3198C204.051 20.3198 203.328 21.8752 203.328 23.385C203.328 24.8948 204.051 26.4502 206.111 26.4502C208.172 26.4502 208.895 24.8948 208.895 23.385C208.895 21.8752 208.172 20.3198 206.111 20.3198ZM206.111 25.7533C205.678 25.7533 204.365 25.6538 204.365 23.3726C204.365 21.0913 205.678 20.9918 206.111 20.9918C206.545 20.9918 207.858 21.0913 207.858 23.3726C207.858 25.6538 206.545 25.7533 206.111 25.7533Z" fill="#2A282D"/>
<path id="Vector_66" d="M210.487 21.2364H213.381V20.5437H209.508V26.2219H210.487V21.2364Z" fill="#2A282D"/>
<path id="Vector_67" d="M215.842 20.3198C213.781 20.3198 213.059 21.8752 213.059 23.385C213.059 24.8948 213.781 26.4502 215.842 26.4502C217.903 26.4502 218.625 24.8948 218.625 23.385C218.625 21.8752 217.903 20.3198 215.842 20.3198ZM215.842 25.7533C215.408 25.7533 214.095 25.6538 214.095 23.3726C214.095 21.0913 215.408 20.9918 215.842 20.9918C216.276 20.9918 217.589 21.0913 217.589 23.3726C217.589 25.6538 216.276 25.7533 215.842 25.7533Z" fill="#2A282D"/>
<path id="Vector_68" d="M222.729 1.71289H220.09V72.6349H222.729V1.71289Z" fill="#2A282D"/>
<path id="Vector_69" d="M190.547 32.4602V32.427C190.737 32.3606 191.571 32.1159 191.571 31.0956C191.571 29.7973 190.348 29.7434 189.778 29.7434H187.086V35.4258H189.745C190.67 35.4258 191.781 35.2474 191.781 33.9492C191.781 33.4017 191.649 32.7298 190.547 32.4643V32.4602ZM188.065 30.4361H189.469C189.869 30.4361 190.58 30.4817 190.58 31.2407C190.58 31.6306 190.348 32.1118 189.423 32.1118H188.065V30.4361ZM189.502 34.729H188.065V32.8044H189.469C189.902 32.8044 190.77 32.8708 190.77 33.8538C190.77 34.7041 189.832 34.7248 189.502 34.7248V34.729Z" fill="#2A282D"/>
</g>
</g>
</g>
</g>
<defs>
<clipPath id="clip0_3096_21680">
<rect width="223" height="73" fill="white"/>
</clipPath>
</defs>
</svg>
