<svg width="79" height="79" viewBox="0 0 79 79" fill="none" xmlns="http://www.w3.org/2000/svg">
<path id="Vector" d="M0 0.208984V78.8996H78.6907V0.208984H0ZM15.6476 53.814V67.7447H11.1829V53.814H4.93126V49.5871H22.7717L20.3316 53.814H15.6476ZM39.4083 67.7447H27.9409C24.7311 67.7447 22.3657 65.3794 22.3657 62.165C22.3657 58.9505 24.7311 56.5899 27.9409 56.5899H34.9389V54.6584C34.9389 54.1265 34.6263 53.814 34.0944 53.814H23.3035L25.7435 49.5871H34.0944C37.3042 49.5871 39.4036 51.5932 39.4036 54.6584V67.7447H39.4083ZM47.4841 63.5179H56.7261V67.7447H47.4841C44.251 67.7447 42.1515 65.79 42.1515 62.7015V54.6584C42.1515 51.5932 44.251 49.5871 47.4841 49.5871H57.8365L55.4012 53.814H47.4841C46.9802 53.814 46.6163 54.1265 46.6163 54.6584V62.7015C46.6163 63.2333 46.9802 63.5226 47.4841 63.5226V63.5179ZM64.0554 63.5179H73.2975V67.7447H64.0554C60.8223 67.7447 58.7229 65.79 58.7229 62.7015V54.6584C58.7229 51.5932 60.8223 49.5871 64.0554 49.5871H74.4125L71.9725 53.814H64.0554C63.5516 53.814 63.1876 54.1265 63.1876 54.6584V62.7015C63.1876 63.2333 63.5516 63.5226 64.0554 63.5226V63.5179ZM28.4913 60.4341H34.9436V63.6485H28.4913C27.5723 63.6485 26.9005 62.9767 26.9005 62.053C26.9005 61.1293 27.5723 60.4341 28.4913 60.4341Z" fill="#2A282D"/>
</svg>
