<svg width="157" height="82" viewBox="0 0 157 82" fill="none" xmlns="http://www.w3.org/2000/svg">
<g id="Group">
<path id="Vector" fill-rule="evenodd" clip-rule="evenodd" d="M98.2827 48.4226L91.567 56.6472V48.4226H64.7089V56.6472L57.9931 48.4226H51.2773V81.0228H57.9931V51.9627L64.7089 60.1873V81.0254H71.4247V68.4119L76.6954 74.8652H79.5856L84.8563 68.4119V81.0254H91.5721V60.1873L98.2878 51.9627V81.0228H105.004V48.4226H98.2878H98.2827ZM78.1379 73.0939L71.4221 64.8693V50.6604H84.8512V64.8693L78.1354 73.0939H78.1379Z" fill="#2A282D"/>
<g id="Group_2">
<g id="Group_3">
<path id="Vector_2" d="M111.969 24.0967L104.471 31.7351V24.0967H101.746V35.2446H104.471L111.969 27.6062V35.2446H114.693V24.0967H111.969Z" fill="#2A282D"/>
<path id="Vector_3" d="M105.293 22.2998C104.582 21.7645 104.176 21.0178 104.082 20.062H106.376C106.429 20.4443 106.626 20.7527 106.965 20.9872C107.304 21.2217 107.803 21.3389 108.463 21.3389C109.134 21.3389 109.636 21.2217 109.977 20.9872C110.316 20.7527 110.517 20.4443 110.584 20.062H112.862C112.765 21.0178 112.36 21.7645 111.644 22.2998C110.928 22.835 109.868 23.1051 108.466 23.1051C107.064 23.1051 106.006 22.8375 105.295 22.2998H105.293Z" fill="#2A282D"/>
</g>
<path id="Vector_4" d="M99.0664 24.0967V26.3268H90.8341V28.5875H97.9526V30.578H90.8341V33.0145H99.0664V35.2446H88V24.0992H99.0664V24.0967Z" fill="#2A282D"/>
<path id="Vector_5" d="M68.6852 24.0923L65.6599 29.6357L62.2472 24.0923H58.9492L64.0313 31.932C63.83 32.3041 63.5649 32.5718 63.2336 32.7374C62.9048 32.9031 62.4639 32.9846 61.9108 32.9846C61.5081 32.9846 61.0621 32.9311 60.5727 32.8241V35.1816C61.1156 35.3626 61.7196 35.4518 62.3899 35.4518C63.4527 35.4518 64.3422 35.2046 65.0584 34.7101C65.7746 34.2157 66.4245 33.4689 67.0107 32.4724L71.9169 24.0923H68.6826H68.6852Z" fill="#2A282D"/>
<path id="Vector_6" d="M52.3552 24.0967L49.1718 31.1999L45.9835 24.0967H41.5742V35.2446H44.2962V25.9904L47.5917 33.3331H50.747L54.0449 25.9904V35.2446H56.7797V24.0967H52.3552Z" fill="#2A282D"/>
<path id="Vector_7" d="M82.2898 29.4573C83.085 29.5312 83.9822 29.9518 84.4333 30.4131C84.8844 30.8744 85.1112 31.4504 85.1112 32.1411C85.1112 33.1402 84.6193 33.9404 83.6381 34.5445C82.6568 35.1485 81.0461 35.4518 78.8058 35.4518C76.6088 35.4518 75.0108 35.1052 74.0117 34.4094C73.0126 33.7136 72.5156 32.7782 72.5156 31.5982V31.4223H75.3498V31.5982C75.3498 32.0748 75.6225 32.4749 76.1704 32.7935C76.7184 33.1121 77.5952 33.2701 78.8058 33.2701C80.0903 33.2701 80.9824 33.1453 81.4819 32.8955C81.9814 32.6457 82.2312 32.3093 82.2312 31.8837C82.2312 30.9916 81.25 30.5456 79.2849 30.5456H76.5782V28.6519H79.2849C80.2942 28.6519 81.0104 28.5347 81.4335 28.3028C81.8591 28.0683 82.0706 27.7675 82.0706 27.3954C82.0706 26.5136 80.9824 26.0727 78.8058 26.0727C77.6487 26.0727 76.8102 26.2281 76.2902 26.5416C75.7703 26.8551 75.5103 27.245 75.5103 27.7115V27.8389H72.6762V27.6477C72.6762 26.5008 73.1681 25.5884 74.1493 24.9079C75.1306 24.23 76.6827 23.8884 78.8083 23.8884C80.2738 23.8884 81.4641 24.0286 82.3841 24.3115C83.3017 24.5919 83.9592 24.9614 84.3594 25.4176C84.757 25.8739 84.9558 26.3785 84.9558 26.9316C84.9558 27.5993 84.7493 28.1447 84.3339 28.5627C83.921 28.9832 83.0595 29.3808 82.2949 29.4548L82.2898 29.4573Z" fill="#2A282D"/>
</g>
<g id="Group_4">
<path id="Vector_8" d="M74.254 4.03662L66.7558 11.675V4.03662H64.0312V15.182H66.7558L74.254 7.54361V15.182H76.9786V4.03662H74.254Z" fill="#2A282D"/>
<path id="Vector_9" d="M137.176 4.03662L129.675 11.675V4.03662H126.953V15.182H129.675L137.176 7.54361V15.182H139.898V4.03662H137.176Z" fill="#2A282D"/>
<path id="Vector_10" d="M2.83414 15.182H0V4.03662H12.5472V15.182H9.71304V6.39161H2.83414V15.182Z" fill="#2A282D"/>
<path id="Vector_11" d="M43.5448 12.8729V4.03662H46.3789V15.182H29.4531V4.03662H32.2873V12.8755H36.5538V4.03662H39.2758V12.8755H43.5422L43.5448 12.8729Z" fill="#2A282D"/>
<path id="Vector_12" d="M56.0434 9.4016L62.1577 15.182H58.3678L52.8576 9.76861V15.182H50.0234V4.03662H52.8576V9.14928L58.1767 4.03662H61.8391L56.0434 9.40415V9.4016Z" fill="#2A282D"/>
<path id="Vector_13" d="M90.4682 8.2394V4.03662H93.3024V15.182H90.4682V10.5969H83.3498V15.182H80.5156V4.03662H83.3498V8.2394H90.4682Z" fill="#2A282D"/>
<path id="Vector_14" d="M99.1059 14.6423C98.0126 14.1428 97.1842 13.4572 96.621 12.5804C96.0577 11.7037 95.7773 10.7148 95.7773 9.61123C95.7773 8.50765 96.0577 7.51621 96.621 6.64201C97.1842 5.76526 98.0126 5.07967 99.1059 4.58012C100.199 4.08058 101.522 3.83081 103.072 3.83081C104.527 3.83081 105.776 4.03471 106.821 4.44504C107.866 4.85283 108.684 5.40845 109.273 6.10934C109.861 6.81022 110.231 7.60541 110.379 8.49745H107.545C107.384 7.83989 106.933 7.28173 106.191 6.82552C105.447 6.3693 104.407 6.13992 103.069 6.13992C102.124 6.13992 101.316 6.29029 100.64 6.59359C99.9649 6.89688 99.4602 7.30977 99.1187 7.8348C98.7797 8.35983 98.609 8.95112 98.609 9.61123C98.609 10.2688 98.7797 10.8601 99.1187 11.3877C99.4577 11.9127 99.9649 12.3281 100.64 12.6289C101.313 12.9322 102.124 13.0825 103.069 13.0825C104.407 13.0825 105.447 12.8532 106.191 12.3969C106.933 11.9407 107.387 11.3826 107.545 10.725H110.379C110.231 11.6272 109.864 12.4301 109.28 13.1284C108.697 13.8293 107.881 14.3824 106.836 14.7851C105.791 15.1878 104.535 15.3891 103.069 15.3891C101.52 15.3891 100.197 15.1393 99.1034 14.6398L99.1059 14.6423Z" fill="#2A282D"/>
<path id="Vector_15" d="M118.899 9.4016L125.013 15.182H121.223L115.713 9.76861V15.182H112.879V4.03662H115.713V9.14928L121.032 4.03662H124.695L118.899 9.40415V9.4016Z" fill="#2A282D"/>
<path id="Vector_16" d="M24.443 4.02905L21.4177 9.57244L18.005 4.02905H14.707L19.7891 11.8688C19.5878 12.2409 19.3227 12.5085 18.9914 12.6742C18.6626 12.8399 18.2217 12.9214 17.6686 12.9214C17.2659 12.9214 16.8199 12.8679 16.3305 12.7608V15.1184C16.8734 15.2993 17.4775 15.3885 18.1478 15.3885C19.2106 15.3885 20.1001 15.1413 20.8162 14.6469C21.5324 14.1524 22.1823 13.4057 22.7685 12.4091L27.6747 4.02905H24.4405H24.443Z" fill="#2A282D"/>
<g id="Group_5">
<path id="Vector_17" d="M153.547 4.03735L146.049 11.6758V4.03735H143.324V15.1828H146.049L153.547 7.54434V15.1828H156.272V4.03735H153.547Z" fill="#2A282D"/>
<path id="Vector_18" d="M146.871 2.23775C146.16 1.70252 145.754 0.955757 145.66 0H147.954C148.007 0.382303 148.204 0.690694 148.543 0.925173C148.882 1.15965 149.381 1.27689 150.041 1.27689C150.712 1.27689 151.214 1.15965 151.555 0.925173C151.894 0.690694 152.096 0.382303 152.162 0H154.44C154.344 0.955757 153.938 1.70252 153.222 2.23775C152.506 2.77297 151.446 3.04313 150.044 3.04313C148.642 3.04313 147.584 2.77552 146.873 2.23775H146.871Z" fill="#2A282D"/>
</g>
</g>
</g>
</svg>
