<svg width="210" height="60" viewBox="0 0 210 60" fill="none" xmlns="http://www.w3.org/2000/svg">
<g id="Group">
<path id="Vector" d="M86.9964 59.4311C85.9094 58.8946 84.7898 58.8992 83.6654 59.2771C83.0962 59.4684 82.5224 59.3378 82.1492 58.8433C81.608 58.1248 80.9035 57.9522 80.0684 58.1994C79.3033 58.4234 78.93 57.9895 78.6828 57.4763C78.6361 57.3783 78.5848 57.2757 78.5802 57.1731C78.5615 56.5619 78.1929 56.1887 77.7264 55.8668C76.7933 55.2229 75.9955 54.4205 75.1465 53.6787C74.6426 53.2355 74.0361 52.9509 73.5042 52.5497C73.1823 52.3071 72.8697 52.0412 72.5665 51.7752C72.4125 51.6399 72.3239 51.458 72.3332 51.234C72.3799 50.343 71.9506 49.6618 71.3675 49.046C71.0502 48.7148 70.663 48.4395 70.4204 48.0429C69.9679 47.2965 70.0939 46.55 70.4064 45.7756C70.7983 44.8099 70.761 43.7881 70.6444 42.7664C70.6304 42.6265 70.6117 42.4865 70.6117 42.3465C70.6117 41.6607 70.6303 40.9749 70.607 40.2891C70.5744 39.3281 70.6583 38.4043 71.0735 37.5086C71.4981 36.5941 71.7873 35.6191 72.1792 34.686C72.6924 33.459 73.5416 32.442 74.3767 31.4203C75.1791 30.4359 76.0515 29.5215 76.9706 28.6537C77.2878 28.3551 77.6471 28.1032 77.983 27.8233C78.902 27.0675 79.3966 26.0271 79.9098 24.9914C80.3203 24.1656 80.6422 24.1516 81.2441 24.7301C81.6173 25.0894 81.9858 25.5746 82.6297 25.4719C83.3201 25.3646 84.0106 25.248 84.6964 25.1407C85.6342 24.996 86.5719 24.8608 87.505 24.7068C88.4614 24.5482 89.3991 24.6368 90.3555 24.7815C91.06 24.8888 91.7784 24.6835 92.4316 24.3802C93.4486 23.909 94.5356 23.7737 95.6273 23.6571C95.786 23.6384 95.9493 23.6058 96.0472 23.8391C96.1405 24.0677 96.0053 24.147 95.8933 24.2776C95.604 24.6088 95.2355 24.8654 94.9975 25.2527C94.7503 25.6492 94.7736 25.7985 95.2215 25.9478C95.7346 26.1111 96.2339 26.2884 96.7284 26.5123C97.9647 27.0815 98.9771 27.9352 99.9802 28.8263C100.881 29.6288 101.753 30.4639 102.579 31.3456C103.087 31.8915 103.633 32.4 104.109 32.9692C104.706 33.6876 104.608 34.5507 104.394 35.3765C104.249 35.927 103.974 36.4448 103.535 36.8367C103.078 37.2426 102.546 37.2893 102.117 36.8694C101.37 36.1509 100.61 35.3858 100.801 34.2195C100.955 33.2677 100.423 32.6939 99.7842 32.1854C99.3317 31.8308 98.9725 31.3876 98.5339 31.0237C97.9554 30.5432 97.4468 29.9833 96.8077 29.5774C96.5838 29.4328 96.3225 29.2789 96.1219 29.4422C95.9166 29.6101 95.8233 29.8853 95.8746 30.2119C96.0006 31.0517 96.3832 31.7888 96.7237 32.54C96.9943 33.1278 97.0036 33.7016 96.859 34.3081C96.7144 34.9333 97.0037 35.3765 97.6428 35.5118C98.2493 35.6424 98.7951 35.843 99.0657 36.4868C99.5602 37.6625 99.1404 38.381 98.0534 38.6562C96.1732 39.1321 94.2837 39.594 92.3756 39.9672C91.8391 40.0745 91.2559 40.2145 90.6588 40.0232C90.2762 39.9019 89.973 39.7153 89.889 39.3607C89.8003 38.9735 89.777 38.5489 90.1502 38.227C90.5748 37.8538 90.9107 37.4292 91.032 36.8321C91.1066 36.4542 91.032 36.1323 90.8827 35.8244C90.6308 35.3112 90.3695 34.812 90.2762 34.2381C90.2575 34.1262 90.2109 34.0049 90.2762 33.9256C90.3602 33.8276 90.4628 33.9116 90.5701 33.9489C91.1206 34.1402 91.6805 34.3081 92.2357 34.4854C92.7582 34.6534 93.0054 34.5414 93.2714 34.0702C94.0225 32.7499 93.8592 31.4902 93.0801 30.2399C92.7722 29.7454 92.5669 29.1949 92.3476 28.6537C91.8438 27.3987 91.5079 27.0115 89.9963 27.1141C89.2825 27.1608 88.5734 27.1794 87.8642 27.1794C86.1427 27.1794 84.5285 27.6413 82.9329 28.2152C82.6996 28.2991 82.4664 28.3645 82.2378 28.4531C81.5566 28.7237 81.454 29.1156 81.9066 29.7034C81.9812 29.8014 82.0698 29.8807 82.1305 30.002C82.3031 30.3566 82.513 30.6925 82.7463 31.103C81.7712 31.0797 80.8942 31.1963 79.9798 31.047C78.972 30.8838 78.039 31.201 77.3438 32.0781C76.6394 32.9691 75.8929 33.8276 75.2444 34.7606C74.4466 35.9037 73.9801 37.182 73.6955 38.5256C73.4855 39.51 73.3503 40.5131 73.2103 41.5114C73.0983 42.3092 73.3736 43.037 73.6769 43.7648C74.2647 45.1551 74.6333 46.6107 75.0251 48.0616C75.2304 48.8267 75.655 49.4426 76.2848 49.9464C76.63 50.2263 76.77 50.6742 76.9052 51.1081C77.3065 52.3864 78.2442 53.1888 79.4479 53.632C80.7122 54.0986 81.8972 54.7144 83.0869 55.3302C83.7867 55.6895 84.5285 55.7921 85.2749 55.8714C85.6808 55.9134 86.0261 56.016 86.348 56.24C87.1458 56.8045 88.0508 56.7998 88.9559 56.7112C89.1705 56.6925 89.3898 56.6692 89.6091 56.6552C90.1223 56.6226 90.3182 56.3613 90.1922 55.8574C90.1409 55.6475 90.0943 55.4329 90.0709 55.2183C89.9823 54.4578 90.1876 54.1452 91.0507 53.884C93.1641 53.2355 95.2868 52.6057 97.4095 51.9852C98.072 51.7939 98.8884 52.1205 99.243 52.6617C99.5836 53.1795 99.5369 53.884 99.0657 54.4718C98.8884 54.6911 98.6225 54.859 98.3659 54.999C97.904 55.2462 97.4375 55.4889 96.943 55.6568C96.2059 55.9087 95.7347 56.4546 95.4687 57.1031C95.1702 57.8355 94.5823 58.1154 93.9525 58.3487C92.6928 58.8152 91.4239 59.2538 90.0663 59.3424C90.0336 59.3424 90.0056 59.3984 89.9776 59.4311H87.0058H86.9964Z" fill="#2A282D"/>
<path id="Vector_2" d="M0.00466992 55.5081C0.38723 54.9296 0.54587 54.2578 0.839788 53.6373C1.33432 52.6016 1.7495 51.5286 2.20671 50.4742C2.85986 48.9626 3.63897 47.5117 4.36677 46.0328C4.94061 44.8618 5.51447 43.6908 6.07431 42.5104C6.5875 41.4327 6.4289 40.341 6.09766 39.254C5.32787 36.7627 4.55339 34.2761 3.79294 31.7801C3.63898 31.2763 3.47569 30.7584 3.555 30.2219C3.60632 29.8766 3.36839 29.5547 3.49435 29.1815C4.3901 29.5734 5.09926 30.0726 5.38851 31.0803C5.63111 31.9201 6.22824 32.6152 6.62946 33.3943C7.03535 34.1874 7.42725 34.9899 7.92644 35.7363C8.03375 35.895 8.09439 36.1002 8.32299 36.0769C8.56559 36.0536 8.43499 35.8157 8.47698 35.6897C9.37273 33.1611 10.2405 30.6231 11.1409 28.0991C11.3555 27.4926 11.2948 26.8442 11.5001 26.2423C11.7334 25.5379 12.3352 25.09 13.077 25.0853C13.4549 25.0853 13.8282 25.0573 14.1967 25.1786C15.0598 25.4679 15.3351 26.163 15.2324 27.0774C15.1158 28.1411 14.5559 28.9762 14.1221 29.886C13.3896 31.4256 12.8857 33.0538 12.2699 34.64C11.6354 36.2822 11.0009 37.9291 10.3431 39.5619C9.89992 40.6676 9.96987 41.7453 10.4317 42.809C11.3462 44.9224 12.1206 47.0825 12.937 49.2332C13.3896 50.4229 13.9448 51.5706 14.4347 52.7416C14.8079 53.642 15.1111 54.5564 15.1531 55.5501C15.1811 56.2033 14.5233 57.0384 13.4736 57.211C12.8391 57.3136 12.1019 57.155 11.7754 56.1426C10.8423 53.2688 9.8719 50.4089 8.9155 47.5444C8.71489 46.9519 8.50028 46.364 8.27635 45.7202C8.01509 46.1961 7.73516 46.6346 7.51589 47.1058C7.0027 48.1975 6.33092 49.1726 5.50982 50.0497C5.39318 50.1756 5.26722 50.3203 5.28122 50.4929C5.37919 51.5379 4.84729 52.3637 4.35743 53.2128C3.84891 54.0899 3.37304 54.9856 2.84119 55.8534C2.39798 56.5765 1.12437 56.8984 0.429234 56.5765C0.172639 56.4552 0.209941 56.18 0 56.0727V55.4988L0.00466992 55.5081Z" fill="#2A282D"/>
<path id="Vector_3" d="M121.568 13.2771C121.395 13.1978 121.283 13.1278 121.129 13.1278C120.033 13.1324 118.941 13.0765 117.845 13.0578C116.464 13.0391 115.083 12.9598 113.702 12.9225C112.135 12.8758 110.562 12.7452 109.009 12.5446C106.555 12.232 104.138 11.7188 101.763 11.0004C99.4401 10.2959 96.9628 10.8744 95.3439 12.7825C94.5135 13.7576 94.1356 14.9379 93.9723 16.2023C93.7437 17.9984 93.6224 19.7992 93.5711 21.6094C93.5618 21.992 93.5617 22.4119 93.4031 22.8038C93.1838 23.3403 92.7406 23.5642 91.8356 23.5595C91.313 23.5595 91.1218 23.233 91.0005 22.8038C90.6506 21.5394 90.394 20.2565 90.1467 18.9688C89.7875 17.1167 89.6195 15.2459 89.6475 13.3517C89.6709 11.8355 90.0954 10.4499 90.8372 9.16222C91.4437 8.10318 92.0922 7.07216 92.8713 6.12042C93.6131 5.21068 94.4062 4.36157 95.3113 3.62911C96.2724 2.84999 97.2987 2.16884 98.423 1.63699C99.9393 0.918523 101.516 0.447342 103.182 0.200078C104.749 -0.0378557 106.312 0.00878998 107.88 0.0461129C108.995 0.074105 110.119 0.139427 111.234 0.228069C112.844 0.354034 114.449 0.512636 116.049 0.703916C117.64 0.895196 119.226 1.12382 120.812 1.37109C122.282 1.59969 123.747 1.88894 125.212 2.1222C126.518 2.33215 127.829 2.50476 129.135 2.70537C130.516 2.91998 131.892 3.16723 133.273 3.36318C134.37 3.5218 135.475 3.61979 136.576 3.75508C137.813 3.90904 139.049 4.08633 140.29 4.22629C141.116 4.31959 141.951 4.35691 142.781 4.42222C144.377 4.54819 145.977 4.67882 147.573 4.80012C148.077 4.83744 148.576 4.83277 149.084 4.87942C150.293 4.99605 151.51 5.00539 152.723 5.09404C154.309 5.21067 155.9 5.31798 157.491 5.39263C158.578 5.44395 159.665 5.51393 160.752 5.56991C164.335 5.75186 167.923 5.64922 171.506 5.65389C172.929 5.65389 174.347 5.50924 175.77 5.46259C176.946 5.42527 178.121 5.32264 179.292 5.17801C181.042 4.9634 182.791 4.77679 184.541 4.53886C186.832 4.22161 189.099 3.77839 191.371 3.36318C192.234 3.20456 193.093 2.99461 193.942 2.77534C194.338 2.6727 194.749 2.7287 195.141 2.61206C195.295 2.56541 195.472 2.59339 195.514 2.80333C195.542 2.96662 195.477 3.0646 195.332 3.19056C194.474 3.91369 193.396 4.19828 192.416 4.67414C191.245 5.24332 190.027 5.72387 188.828 6.24173C187.21 6.9462 185.567 7.59467 183.916 8.21049C179.759 9.76406 175.569 11.2243 171.338 12.5633C168.17 13.5617 164.993 14.5087 161.779 15.3532C159.558 15.9363 157.333 16.4962 155.103 17.0373C153.092 17.5225 151.058 17.9331 149.019 18.283C147.489 18.5443 145.954 18.8102 144.405 18.9828C143.318 19.1041 142.235 19.2627 141.148 19.3607C139.893 19.4774 138.643 19.594 137.388 19.65C136.045 19.7153 134.706 19.7899 133.362 19.8366C128.869 19.9952 124.372 19.9159 119.879 19.9112C118.255 19.9112 116.632 19.7666 115.018 19.6266C113.893 19.5286 112.764 19.4354 111.64 19.3467C110.231 19.2347 108.827 19.0901 107.423 18.9735C106.858 18.9268 106.284 18.9175 105.72 18.8988C104.609 18.8662 103.504 18.6982 102.393 18.7822C101.498 18.8475 100.686 19.1461 99.9766 19.7199C98.9409 20.5597 98.1525 21.6374 97.2194 22.5705C96.7435 23.0464 96.1697 23.121 95.6099 22.7944C95.2133 22.5658 95.0453 22.1972 95.232 21.7867C96.0064 20.0978 96.5989 18.3203 97.7093 16.7994C98.2038 16.1183 98.9223 15.8057 99.6921 15.6331C100.854 15.3718 102.053 15.3485 103.228 15.4511C104.357 15.5538 105.486 15.5444 106.606 15.5071C107.964 15.4605 109.321 15.3672 110.679 15.3205C111.953 15.2785 113.222 15.1526 114.491 15.0406C116.534 14.8633 118.512 14.3781 120.43 13.6503C120.789 13.515 121.153 13.4077 121.563 13.2724L121.568 13.2771Z" fill="#2A282D"/>
<path id="Vector_4" d="M178.699 24.3246C181.102 24.2639 183.229 24.7211 185.296 25.5189C185.851 25.7335 186.388 25.5189 186.812 25.1317C187.428 24.5718 188.133 24.3526 188.926 24.5672C190.367 24.9544 190.647 26.5546 189.803 27.7069C188.986 28.8126 188.109 29.8717 187.181 30.8841C186.528 31.5979 185.688 32.0924 184.848 32.5636C184.741 32.6243 184.643 32.7036 184.536 32.7642C184.083 33.0208 183.687 32.8015 183.654 32.2837C183.612 31.6025 183.691 30.9354 183.882 30.2869C184.013 29.8437 183.92 29.5684 183.505 29.3772C182.408 28.864 181.27 28.5094 180.071 28.3461C179.418 28.2575 178.76 28.1408 178.111 28.1642C176.334 28.2248 174.631 28.612 172.994 29.3492C171.482 30.0303 170.19 30.9867 169.112 32.2137C167.414 34.1452 166.215 36.3472 165.739 38.9038C165.524 40.0422 165.44 41.1898 165.338 42.3422C165.216 43.7045 165.538 44.9968 165.762 46.3031C165.856 46.8583 166.219 47.2875 166.873 47.3854C167.4 47.4647 167.768 47.8566 168.146 48.2019C169.308 49.2562 170.264 50.4972 171.323 51.6449C172.714 53.1425 174.514 53.9403 176.46 54.4675C177.491 54.7474 178.545 54.8827 179.595 54.9107C180.584 54.9387 181.587 54.8034 182.553 54.5328C184.536 53.9729 186.378 53.1098 188.114 51.9948C189.355 51.197 190.246 50.082 191.128 48.939C191.622 48.2999 192.103 47.6514 192.597 47.0169C192.994 46.5084 193.437 46.5177 194.039 46.7323C194.384 46.8536 194.58 47.6934 194.454 48.2252C194.254 49.079 193.638 49.6948 193.199 50.4086C192.663 51.2764 192.028 52.0788 191.473 52.9326C191.1 53.5157 190.484 53.7583 189.966 54.1362C188.781 54.9993 187.61 55.8951 186.262 56.4922C184.802 57.136 183.332 57.7799 181.778 58.1531C180.897 58.363 179.968 58.3864 179.059 58.1904C178.751 58.1251 178.475 58.3024 178.172 58.2884C176.53 58.2231 174.939 57.9198 173.423 57.2853C171.757 56.5902 170.138 55.8064 168.659 54.7521C167.544 53.9543 166.63 52.9605 165.814 51.8828C164.792 50.5299 163.803 49.1443 163.122 47.5767C162.669 46.5457 162.366 45.468 162.193 44.3529C162.049 43.4385 161.885 42.5335 161.913 41.6051C161.946 40.4947 162.147 39.403 162.268 38.302C162.38 37.2756 162.557 36.2819 162.921 35.3208C163.444 33.9305 164.232 32.6802 165.062 31.4579C165.72 30.4922 166.378 29.5218 167.241 28.7194C168.552 27.497 170.045 26.5546 171.697 25.8315C173.236 25.1597 174.827 24.7118 176.465 24.4272C177.258 24.2919 178.074 24.2733 178.704 24.3199L178.699 24.3246Z" fill="#2A282D"/>
<path id="Vector_5" d="M112.573 27.2873C112.531 28.7709 112.4 30.3011 112.354 31.8313C112.312 33.1703 112.176 34.5092 112.181 35.8482C112.181 36.1468 112.041 36.4267 112.078 36.7346C112.097 36.8699 112.116 37.0005 112.251 37.0379C112.391 37.0752 112.526 37.0612 112.638 36.9259C114.089 35.1344 115.339 33.1983 116.576 31.2528C116.963 30.6417 117.336 30.0212 117.681 29.3913C118.017 28.7755 118.642 28.6682 119.207 28.4443C119.282 28.4163 119.422 28.379 119.464 28.5609C119.608 29.2234 119.748 29.8345 119.389 30.5343C118.409 32.4378 117.397 34.3226 116.417 36.2261C115.899 37.2338 115.316 38.2089 114.803 39.2259C114.327 40.173 114.635 40.9474 115.097 41.7172C115.974 43.1868 116.86 44.6611 117.947 45.9814C119.548 47.9268 120.639 50.1895 121.932 52.3216C122.295 52.9187 122.823 53.362 123.191 53.9358C123.597 54.5656 123.602 55.6107 123.14 56.1705C122.641 56.777 121.932 56.9776 121.194 56.8283C120.639 56.7164 120.229 56.2965 119.935 55.7973C119.104 54.3883 118.479 52.8814 117.803 51.4072C117.005 49.6717 116.16 47.9641 115.307 46.2613C114.845 45.3422 114.411 44.4138 114.075 43.4341C113.982 43.1681 113.753 42.9489 113.581 42.7063C113.459 42.5337 113.361 42.613 113.24 42.7203C112.591 43.2894 112.307 44.0639 112.092 44.8523C111.761 46.0747 111.64 47.325 111.584 48.594C111.532 49.709 111.364 50.8193 111.145 51.9204C111.085 52.2236 111.066 52.5362 111.029 52.8441C111.001 53.0587 110.903 53.25 110.725 53.348C110.567 53.4366 110.389 53.4926 110.347 53.1613C110.175 51.6498 110.002 50.1429 109.956 48.6173C109.918 47.5023 109.848 46.3826 109.769 45.2676C109.578 42.6876 109.638 40.103 109.578 37.5184C109.54 35.9322 109.386 34.3459 109.293 32.7597C109.209 31.3741 109.167 29.9838 109.088 28.5982C109.05 27.9637 109.05 27.3199 108.943 26.6808C108.799 25.799 109.578 24.8613 110.473 24.6933C111.304 24.5394 112.162 25.0945 112.475 25.9623C112.624 26.3822 112.536 26.8067 112.578 27.2733L112.573 27.2873Z" fill="#2A282D"/>
<path id="Vector_6" d="M200.901 52.1259C200.901 51.0109 200.864 49.8912 200.91 48.7809C200.976 47.2646 201.05 45.753 201.106 44.2368C201.153 43.0751 201.237 41.9088 201.293 40.7424C201.372 39.1469 201.545 37.5513 201.657 35.9558C201.689 35.4939 201.652 35.032 201.666 34.5702C201.703 33.4271 201.708 32.2841 201.946 31.1551C202.049 30.6839 202.328 30.2874 202.45 29.8255C202.492 29.6622 202.674 29.6855 202.818 29.6809C202.968 29.6762 202.977 29.7508 203.01 29.8768C203.257 30.7212 203.467 31.575 203.574 32.4521C203.709 33.5531 203.831 34.6541 203.957 35.7505C203.957 35.7832 203.957 35.8158 203.957 35.8438C203.887 36.7629 204.064 37.6773 204.055 38.5964C204.041 39.7207 204.134 40.8451 204.171 41.9694C204.223 43.5323 204.297 45.0952 204.358 46.6581C204.428 48.4216 204.554 50.1805 204.656 51.944C204.712 52.8957 204.712 53.8428 204.712 54.7898C204.712 55.3264 204.614 55.8675 204.395 56.3714C204.092 57.0525 203.537 57.3185 202.814 57.2345C201.722 57.1039 201.171 56.8752 200.934 55.9935C200.896 55.8489 200.896 55.7136 200.896 55.5736C200.896 54.4259 200.896 53.2783 200.896 52.1306L200.901 52.1259Z" fill="#2A282D"/>
<path id="Vector_7" d="M56.4638 51.6915C56.1419 51.1176 55.9226 50.5111 55.666 49.9233C55.2695 49.0182 55.7547 48.1878 55.82 47.334C55.8993 46.275 56.1652 45.2299 56.3518 44.1802C56.5105 43.2798 56.6504 42.3794 56.795 41.479C56.9023 40.8118 56.8184 40.112 56.8324 39.4309C56.865 37.854 57.1636 36.3097 57.4435 34.7608C57.6208 33.7671 57.8215 32.7781 57.8961 31.7657C57.9708 30.758 58.0874 29.7503 58.2413 28.7472C58.3626 27.9494 58.4373 27.147 58.6426 26.3679C58.9691 25.1222 59.6643 24.6884 61.0265 24.8983C62.2909 25.0942 62.944 26.3072 62.7434 27.4129C62.6174 28.0894 62.3935 28.7472 62.1882 29.405C61.4044 31.9476 60.6533 34.4996 60.1774 37.1215C59.5942 40.336 58.8198 43.5084 58.0081 46.6715C57.7515 47.6746 57.6395 48.715 57.5088 49.7413C57.4249 50.4085 57.0377 50.8983 56.6691 51.4115C56.6085 51.4955 56.5478 51.5795 56.4638 51.6915Z" fill="#2A282D"/>
<path id="Vector_8" d="M62.5606 33.1052C62.5326 32.704 62.598 32.2514 62.472 31.7942C62.3554 31.3697 62.6446 31.0618 62.8779 30.7492C62.9759 30.6232 63.0458 30.6512 63.1904 30.7305C63.5823 30.9405 63.7829 31.2717 63.8903 31.6683C64.3055 33.1799 64.7347 34.6868 65.0986 36.2077C65.3785 37.3787 65.5512 38.5777 65.7331 39.772C65.9617 41.2789 66.3489 42.7578 66.7268 44.2367C67.31 46.5041 67.8372 48.7808 68.3084 51.0762C68.523 52.1165 68.7656 53.1523 69.0315 54.1786C69.3161 55.2797 68.9755 56.1614 68.1358 56.8705C67.5573 57.3604 66.3676 57.1551 66.013 56.4787C65.5185 55.5363 65.1873 54.5332 65.0426 53.4695C64.898 52.4245 64.7067 51.3841 64.5761 50.339C64.4501 49.364 64.3848 48.3796 64.2775 47.3999C64.1609 46.3315 64.0116 45.2631 63.9043 44.1948C63.8529 43.6956 63.8483 43.1917 63.8156 42.6879C63.741 41.4702 63.5171 40.2805 63.2838 39.0909C63.0738 38.0132 62.8406 36.9401 62.7333 35.8391C62.6446 34.948 62.5373 34.0569 62.5513 33.1052H62.5606Z" fill="#2A282D"/>
<path id="Vector_9" d="M1.64651 17.5648C1.64651 16.3192 1.65583 15.0782 1.63717 13.8325C1.6325 13.5106 1.68848 13.3847 2.04305 13.408C2.58423 13.4406 3.13008 13.436 3.67126 13.408C4.02583 13.3893 4.1518 13.4686 4.14713 13.8605C4.12381 15.6473 4.14717 17.4295 4.12851 19.2164C4.12851 19.5383 4.18449 19.6736 4.5344 19.6409C4.95894 19.5989 5.52342 19.7715 5.78001 19.5569C6.04594 19.333 5.85468 18.7498 5.85934 18.3253C5.86867 16.809 5.86867 15.2975 5.85934 13.7812C5.85934 13.5013 5.906 13.3893 6.21858 13.408C6.79242 13.436 7.36623 13.436 7.94007 13.408C8.26665 13.394 8.3693 13.4733 8.36464 13.8185C8.34598 15.6054 8.36462 17.3875 8.34596 19.1744C8.34596 19.5336 8.41593 19.7109 8.80315 19.6362C9.20904 19.5569 9.33967 19.7015 9.32567 20.1354C9.28835 21.1385 9.30706 22.1415 9.31639 23.1493C9.31639 23.3919 9.26505 23.4898 9.00379 23.4712C8.70054 23.4478 8.39265 23.4338 8.09407 23.4712C7.73017 23.5225 7.61817 23.3172 7.59484 23.0419C7.57152 22.762 7.4969 22.4728 7.5109 22.2068C7.52956 21.7823 7.37089 21.7263 6.99766 21.731C5.36945 21.7496 3.74125 21.731 2.11304 21.7497C1.76314 21.7497 1.62784 21.6937 1.63717 21.2971C1.66516 20.0561 1.64651 18.8105 1.64651 17.5648Z" fill="#2A282D"/>
<path id="Vector_10" d="M24.2359 17.6164C24.2359 18.8574 24.2265 20.1031 24.2405 21.3441C24.2405 21.6286 24.2079 21.7686 23.8627 21.7499C23.2422 21.7173 22.617 21.7219 21.9965 21.7499C21.6793 21.7639 21.6326 21.6473 21.6419 21.372C21.6606 20.5416 21.642 19.7158 21.656 18.8854C21.6606 18.5962 21.6186 18.4469 21.278 18.4795C20.9141 18.5122 20.5409 18.5122 20.177 18.4795C19.8598 18.4515 19.8178 18.5822 19.8224 18.8574C19.8411 19.7018 19.8225 20.5463 19.8318 21.3907C19.8318 21.6426 19.7945 21.7546 19.5052 21.7453C18.8194 21.7219 18.1336 21.7219 17.4478 21.7453C17.1725 21.7546 17.1445 21.6426 17.1445 21.414C17.1492 18.8481 17.1539 16.2821 17.1445 13.7162C17.1445 13.4456 17.2425 13.4036 17.4711 13.4083C18.1569 13.4223 18.8427 13.4269 19.5285 13.4083C19.7991 13.3989 19.8365 13.5062 19.8365 13.7395C19.8271 14.5046 19.8411 15.2698 19.8271 16.0349C19.8224 16.2868 19.8597 16.4081 20.1537 16.3894C20.5502 16.3615 20.9515 16.3661 21.348 16.3894C21.6233 16.4081 21.656 16.2915 21.656 16.0629C21.6466 15.2977 21.6606 14.5326 21.6466 13.7675C21.642 13.5156 21.6839 13.4036 21.9732 13.4129C22.6263 13.4363 23.2842 13.4363 23.9373 13.4129C24.2126 13.4036 24.2452 13.5156 24.2405 13.7442C24.2312 15.0365 24.2405 16.3241 24.2405 17.6164H24.2359Z" fill="#2A282D"/>
<path id="Vector_11" d="M9.86888 17.6249C9.86888 16.3513 9.88287 15.073 9.85954 13.7993C9.85487 13.4774 9.94817 13.4121 10.2561 13.4121C12.1082 13.4261 13.9604 13.4261 15.8079 13.4121C16.1251 13.4121 16.2137 13.5007 16.1951 13.8087C16.1671 14.2379 16.1718 14.6718 16.1951 15.101C16.2091 15.3809 16.1158 15.4415 15.8498 15.4369C14.8281 15.4229 13.8064 15.4369 12.7847 15.4229C12.5095 15.4229 12.4442 15.5022 12.4442 15.7681C12.4442 16.4819 12.4348 16.4819 13.1253 16.4819C13.7784 16.4819 14.4362 16.4959 15.0894 16.4772C15.3693 16.4679 15.4393 16.5566 15.4253 16.8225C15.3973 17.331 15.5979 17.9982 15.3413 18.3014C15.0801 18.614 14.3849 18.3714 13.8811 18.3947C13.6105 18.4087 13.3399 18.3947 13.0693 18.3947C12.6588 18.3947 12.4535 18.6031 12.4535 19.0199C12.4535 19.4366 12.6634 19.6419 13.0833 19.6357C13.9931 19.6357 14.9028 19.6497 15.8125 19.6263C16.1345 19.617 16.2137 19.7197 16.1997 20.0229C16.1764 20.4848 16.1764 20.9466 16.1997 21.4085C16.2137 21.6884 16.1111 21.7444 15.8498 21.7444C13.965 21.7351 12.0849 21.7304 10.2001 21.7444C9.92018 21.7444 9.85954 21.6605 9.86421 21.3992C9.87821 20.1396 9.86888 18.8799 9.86888 17.6202V17.6249Z" fill="#2A282D"/>
<path id="Vector_12" d="M198.014 26.8999C197.631 26.8439 197.113 26.9372 196.591 26.8346C195.984 26.7133 195.714 26.3401 195.56 25.8316C195.303 25.0011 195.662 24.124 196.348 23.9654C196.773 23.8674 197.23 23.8581 197.659 23.8628C199.227 23.8768 200.794 23.9281 202.352 24.0494C203.43 24.1334 204.512 24.2173 205.585 24.3293C206.742 24.4506 207.904 24.5439 209.033 24.8798C209.29 24.9591 209.229 25.0898 209.22 25.2204C209.21 25.3464 209.327 25.5003 209.056 25.5796C207.545 26.0088 206.033 26.3634 204.452 26.4427C203.341 26.4987 202.236 26.6573 201.121 26.732C200.132 26.7973 199.143 26.9279 198.018 26.8999H198.014Z" fill="#2A282D"/>
<path id="Vector_13" d="M99.1453 41.4319C99.2199 42.5423 98.7813 42.8222 97.489 43.1674C95.7395 43.6386 93.9853 44.1005 92.2452 44.6137C91.606 44.8003 91.0228 44.903 90.5376 44.3618C90.0338 43.8019 89.9358 43.1348 90.1364 42.4117C90.2484 41.9964 90.575 41.8052 90.9202 41.6839C92.819 41.0214 94.7178 40.3635 96.6306 39.7477C97.2231 39.5564 97.8576 39.5238 98.4221 39.911C98.9679 40.2843 99.2199 40.7974 99.1499 41.4319H99.1453Z" fill="#2A282D"/>
<path id="Vector_14" d="M92.0453 52.6248C91.4715 52.6807 91.0329 52.5828 90.599 52.4475C90.0439 52.2749 89.8152 51.9156 89.9925 51.3744C90.2724 50.502 90.6877 49.7976 91.7047 49.5036C93.7015 48.9298 95.7262 48.4632 97.7417 47.9734C98.9034 47.6935 99.5472 48.8551 99.3279 49.7556C99.1366 50.53 98.6001 50.9966 97.8443 51.2018C96.1228 51.6684 94.3966 52.1116 92.6798 52.5874C92.4185 52.6574 92.1759 52.5874 92.0453 52.6248Z" fill="#2A282D"/>
<path id="Vector_15" d="M99.165 45.3374C99.2257 46.6157 98.3719 47.2035 97.0703 47.4788C95.5307 47.8007 94.0005 48.1506 92.4609 48.4818C91.9291 48.5938 91.4019 48.7337 90.8513 48.5378C90.3335 48.3512 89.9603 47.8193 90.0816 47.2922C90.1236 47.1102 90.1096 46.9142 90.1889 46.7463C90.3942 46.3171 90.6134 45.9345 91.1406 45.7712C93.2073 45.1228 95.2835 44.5163 97.3689 43.9378C98.7358 43.5599 99.221 44.2317 99.165 45.3327V45.3374Z" fill="#2A282D"/>
<path id="Vector_16" d="M26.648 18.5349C26.648 17.6112 26.6387 16.6874 26.6527 15.7637C26.6573 15.4931 26.5827 15.4185 26.3121 15.4185C25.8876 15.4185 25.3044 15.6144 25.0851 15.3391C24.8752 15.0732 25.0245 14.518 25.0198 14.0888C25.0198 13.9442 25.0291 13.7996 25.0198 13.6596C25.0011 13.473 25.0758 13.417 25.2624 13.417C27.0492 13.4217 28.8361 13.4217 30.6229 13.417C30.8095 13.417 30.8702 13.473 30.8655 13.6596C30.8562 14.1681 30.8562 14.6813 30.8655 15.1899C30.8655 15.3765 30.8048 15.4371 30.6229 15.4324C30.2543 15.4184 29.8858 15.4511 29.5219 15.4231C29.2046 15.3998 29.13 15.5071 29.13 15.815C29.144 17.6485 29.13 19.482 29.1486 21.3108C29.1486 21.67 29.0647 21.7727 28.7054 21.7493C28.1316 21.7167 27.5578 21.726 26.9839 21.7493C26.7134 21.7587 26.6387 21.6747 26.6433 21.4088C26.6573 20.4524 26.648 19.496 26.648 18.5396V18.5349Z" fill="#2A282D"/>
<path id="Vector_17" d="M51.6357 38.5495C51.2904 36.8093 50.8006 35.1157 50.0495 33.5062C49.4337 32.1859 48.6359 30.9729 47.7168 29.8439C47.059 29.0368 46.3265 28.2997 45.4961 27.6698C44.4091 26.8441 43.2194 26.2002 41.9644 25.6684C40.8354 25.1878 39.6877 24.712 38.4934 24.4507C37.4483 24.2221 36.3659 24.1848 35.2649 24.2968C34.1172 24.4181 32.9369 24.4134 31.7986 24.2081C30.7629 24.0215 29.8811 24.3621 28.9714 24.7166C27.8517 25.1552 26.9932 25.9763 26.0368 26.6574C25.0664 27.3432 24.0074 27.9124 23.1256 28.7288C22.0853 29.6899 21.2222 30.7956 20.4338 31.9759C19.1975 33.8328 18.4883 35.8622 18.395 38.0829C18.3436 39.2539 18.1897 40.4249 18.2923 41.428C18.2643 43.0189 18.3063 44.4325 18.5723 45.8321C18.8615 47.3436 19.4074 48.7479 20.2378 50.0495C21.2129 51.5798 22.4212 52.8908 23.8348 54.0291C25.2017 55.1348 26.69 56.0212 28.3275 56.665C29.9604 57.3088 31.6493 57.6867 33.3894 57.92C34.7284 58.102 36.0581 58.13 37.3924 57.99C37.8356 57.9433 38.2881 57.864 38.7126 57.7381C40.4388 57.2202 42.0903 56.5157 43.6532 55.6106C44.6843 55.0135 45.6407 54.3137 46.4525 53.4413C47.2829 52.5455 48.0807 51.6124 48.8505 50.6654C49.4336 49.9516 49.9468 49.1865 50.3014 48.314C50.614 47.5443 50.8519 46.7511 51.0899 45.958C51.4584 44.7404 51.7243 43.49 51.799 42.2304C51.8736 41.0081 51.8783 39.7718 51.6357 38.5495ZM46.9517 45.6641C46.2239 47.5909 44.7776 48.9298 43.364 50.3015C42.5755 51.0666 41.7265 51.7711 40.896 52.4895C40.4948 52.8394 39.9676 52.8768 39.4824 53.0121C38.1061 53.3946 36.7065 53.6932 35.3489 54.1504C34.7984 54.337 34.3366 54.6496 33.9587 55.0415C33.3568 55.662 32.7503 55.9232 31.9152 55.508C30.7489 54.9202 29.4846 54.5656 28.3042 53.9965C27.0259 53.376 26.0462 52.4195 25.2018 51.3279C24.2174 50.0589 23.4569 48.6453 22.7525 47.2037C22.3746 46.4292 22.2626 45.5895 22.0573 44.773C21.8194 43.8353 21.5954 42.8976 21.6374 41.9225C21.6654 40.7981 21.8194 39.6878 22.006 38.5728C22.1366 37.7983 22.1786 37.0145 22.5332 36.2867C22.9624 35.4096 23.6016 34.6912 24.2127 33.9494C25.3324 32.5871 26.7227 31.4861 27.945 30.2218C28.3089 29.8485 28.8034 29.6619 29.2466 29.4286C30.6322 28.6962 32.0225 27.9591 33.5901 27.6652C34.2852 27.5345 34.8637 27.1473 35.4702 26.8207C35.5355 26.7834 35.6055 26.7461 35.6661 26.7041C36.4266 26.2049 37.1497 26.0649 38.0688 26.4848C39.4171 27.11 40.854 27.5392 42.0903 28.4069C42.9208 28.9901 43.518 29.7832 44.1665 30.5437C44.5584 31.0009 44.8849 31.5094 45.3654 31.8966C45.8973 32.3259 46.2239 32.9417 46.4292 33.5668C46.7604 34.5885 47.1896 35.5729 47.4508 36.618C47.4882 36.7766 47.5162 36.9259 47.5115 37.0752C47.4695 37.9056 47.5955 38.7267 47.5255 39.5618C47.4322 40.6395 47.6001 41.7125 47.6141 42.7902C47.6281 43.798 47.3156 44.7217 46.961 45.6595L46.9517 45.6641Z" fill="#2A282D"/>
<path id="Vector_18" d="M159.641 38.9607C159.413 37.9576 159.165 36.9546 158.816 35.9888C158.414 34.8832 158.158 33.7168 157.509 32.7091C157.22 32.2566 156.898 31.818 156.637 31.3468C155.694 29.644 154.43 28.2444 152.811 27.162C151.122 26.033 149.28 25.2352 147.353 24.6194C146.508 24.3488 145.645 24.1528 144.754 24.1528C144.339 24.1528 143.924 24.3208 143.508 24.3254C142.337 24.3348 141.176 24.3814 140.009 24.5167C138.614 24.6754 137.271 24.9973 136.007 25.5898C133.623 26.7095 131.463 28.1417 129.727 30.1758C128.458 31.6687 127.455 33.2923 126.834 35.1444C126.167 37.1319 125.92 39.18 125.971 41.354C125.948 42.3571 126.004 43.4441 126.153 44.5218C126.34 45.8514 126.732 47.0971 127.446 48.2401C128.103 49.2991 128.757 50.3582 129.419 51.4172C130.217 52.6955 131.15 53.8339 132.438 54.683C134.318 55.9239 136.398 56.7171 138.475 57.5195C139.87 58.056 141.372 57.8834 142.818 58.0887C143.406 58.1726 144.012 58.0747 144.614 58.0187C145.314 57.9534 146 57.8414 146.676 57.6548C147.763 57.3609 148.785 56.8943 149.811 56.4558C151.393 55.7746 152.895 54.9489 154.16 53.7312C154.967 52.9521 155.638 52.0704 156.315 51.1886C157.229 49.9989 158.078 48.772 158.484 47.2977C158.741 46.3646 158.895 45.3989 159.277 44.5078C160.052 42.693 160.061 40.8408 159.637 38.9654L159.641 38.9607ZM154.076 47.2044C153.128 48.9912 151.794 50.3908 149.975 51.3332C149.21 51.7298 148.524 52.271 147.801 52.7375C146.97 53.274 146.023 53.484 145.076 53.6939C144.311 53.8619 143.508 53.8945 142.804 54.2771C142.239 54.585 141.801 55.0095 141.703 55.6673C141.661 55.9566 141.526 55.9053 141.353 55.8773C140.089 55.6767 138.932 55.2008 137.817 54.5803C137.052 54.1558 136.165 54.0018 135.423 53.5119C134.518 52.9148 133.791 52.1263 133.119 51.2959C132.302 50.2882 131.491 49.2758 130.926 48.0861C130.268 46.6959 129.876 45.2403 129.601 43.7334C129.452 42.9169 129.442 42.1098 129.419 41.2934C129.377 39.7118 129.811 38.2376 130.375 36.782C131.029 35.0838 132.036 33.6515 133.403 32.4618C134.677 31.3561 135.867 30.1618 137.332 29.2894C138.218 28.7622 139.193 28.4823 140.149 28.1697C141.554 27.7079 142.939 27.1993 144.204 26.4249C144.857 26.0236 145.491 26.0983 146.116 26.3596C147.236 26.8214 148.314 27.3579 149.345 28.0297C150.674 28.8975 151.761 30.0032 152.825 31.1322C153.791 32.1586 154.309 33.4602 154.705 34.7992C155.097 36.1335 155.354 37.4958 155.582 38.8674C155.713 39.6605 155.792 40.4536 155.76 41.2607C155.904 43.4441 155.055 45.3476 154.071 47.2091L154.076 47.2044Z" fill="#2A282D"/>
<path id="Vector_19" d="M38.5384 15.2136C38.0998 13.926 37.0968 13.4734 35.8325 13.4268C34.5588 13.3801 33.2805 13.4268 32.0022 13.4081C31.6943 13.4081 31.601 13.4781 31.6056 13.7953C31.6243 15.055 31.615 16.3146 31.615 17.5743C31.615 18.8339 31.6243 20.1263 31.6103 21.3999C31.6103 21.6658 31.6756 21.7545 31.9509 21.7451C32.59 21.7265 33.2292 21.7265 33.8683 21.7451C34.1389 21.7545 34.2182 21.6752 34.2136 21.4046C34.1949 20.5928 34.2135 19.7763 34.2042 18.9646C34.2042 18.736 34.2649 18.666 34.4981 18.6706C35.0067 18.6893 35.5199 18.6753 36.0284 18.6753C37.8805 18.6753 39.1542 17.0004 38.5477 15.209L38.5384 15.2136ZM35.6412 16.7579C35.226 16.9351 34.7734 16.8465 34.3395 16.8605C34.2042 16.8605 34.1996 16.7672 34.1996 16.6692C34.1996 16.4779 34.1996 16.2866 34.1996 16.1C34.1996 16.086 34.1996 16.0674 34.1996 16.0534C34.1996 15.3069 34.3675 15.167 35.0953 15.3629C35.2306 15.4002 35.3706 15.4002 35.5012 15.4422C35.7485 15.5215 36.0097 15.5915 36.0284 15.9461C36.047 16.3007 36.0051 16.6179 35.6459 16.7672L35.6412 16.7579Z" fill="#2A282D"/>
</g>
</svg>
