<svg width="69" height="84" viewBox="0 0 69 84" fill="none" xmlns="http://www.w3.org/2000/svg">
<g id="Group">
<path id="Vector" fill-rule="evenodd" clip-rule="evenodd" d="M47.1915 23.2966C46.1138 22.3542 44.5649 22.3729 43.6738 22.6481C44.257 21.9343 45.6146 21.3465 46.0112 21.2765C46.3144 21.3885 47.1869 22.2889 47.1869 23.2966H47.1915ZM50.6299 19.3824C49.9208 15.5941 41.1126 18.1041 36.6758 16.4945C36.5918 17.6002 38.0428 19.3684 39.4284 20.0262C37.0584 22.0836 34.9263 26.2311 34.4971 31.2977C34.0679 26.2311 31.9405 22.0836 29.5658 20.0262C30.9514 19.3731 32.407 17.6002 32.3184 16.4945C27.8816 18.1041 19.0734 15.5941 18.3643 19.3824C18.215 20.1848 18.6022 21.4071 19.0174 21.757C19.0921 21.5004 19.4793 20.67 20.7109 20.4834C26.9159 19.5457 32.0991 29.1097 27.4197 32.9773C27.3498 33.0379 27.3871 33.1452 27.485 33.1452H41.5091C41.6024 33.1452 41.6444 33.0379 41.5744 32.9773C36.8951 29.1097 42.0783 19.5457 48.2832 20.4834C49.5149 20.67 49.9021 21.5004 49.9768 21.757C50.392 21.4071 50.7792 20.1848 50.6299 19.3824ZM52.1415 10.6815C52.7713 12.7062 51.5723 15.2349 48.1293 15.4028C48.1013 15.3655 48.1199 14.913 48.1199 14.913C51.0031 14.913 52.3281 11.8058 50.0561 9.6971C51.2737 5.86684 53.1259 9.69709 54.6888 10.6815C55.5705 11.2367 58.0058 10.9054 58.1971 12.0018C58.4724 13.5693 55.6732 13.546 56.9141 16.9704C56.289 16.4945 53.9703 15.1649 54.5301 17.7075C54.2875 17.7075 53.4944 17.1663 53.4944 16.4292C53.4944 14.843 55.6732 14.1245 55.6732 12.5943C55.6732 10.3176 52.0342 10.3269 52.1461 10.6862L52.1415 10.6815ZM12.0054 16.9657C13.251 13.546 10.4518 13.5693 10.7224 11.9971C10.9137 10.9008 13.349 11.232 14.2308 10.6768C15.7937 9.69242 17.6411 5.86217 18.8635 9.69243C16.5914 11.8012 17.9164 14.9083 20.7996 14.9083C20.7996 14.9083 20.8136 15.3608 20.7903 15.3982C17.3519 15.2302 16.1529 12.7016 16.778 10.6768C16.89 10.3176 13.251 10.3083 13.251 12.585C13.251 14.1105 15.4298 14.8336 15.4298 16.4199C15.4298 17.157 14.6366 17.6982 14.394 17.6982C14.9539 15.1556 12.6352 16.4852 12.01 16.9611L12.0054 16.9657ZM21.7746 23.292C21.7746 22.2796 22.6471 21.3838 22.955 21.2719C23.3515 21.3418 24.7138 21.9297 25.2923 22.6435C24.4059 22.3682 22.8523 22.3496 21.7746 23.292ZM36.1393 2.0879L34.4598 0.0397949L32.7802 2.0879L34.4598 4.24329L36.1393 2.0879ZM45.7173 8.27417L44.5229 6.81858L43.3286 8.27417L44.5229 9.6971L45.7173 8.27417ZM55.3979 50.3044L53.8863 48.7042L52.3747 50.3044L53.8863 51.7087L55.3979 50.3044ZM25.5909 8.27417L24.3966 6.81858L23.2022 8.27417L24.3966 9.6971L25.5909 8.27417ZM22.1712 15.4028H26.622C30.3636 15.4028 32.0478 13.1075 32.5563 11.1154H36.3632C36.8718 13.1075 38.556 15.4028 42.2976 15.4028H46.7483C46.7483 15.4028 47.5274 14.3485 47.7234 13.8259C48.4279 11.9411 47.5274 11.064 46.2165 11.064L44.5229 12.5989L42.8294 11.064C41.5185 11.064 40.6227 11.9411 41.3225 13.8259C41.4111 14.0685 41.6258 14.4184 41.831 14.731C40.2541 14.5164 38.234 13.434 37.7955 11.1154C37.7955 11.1154 38.9618 9.26323 39.2558 8.51211C40.3101 5.81553 38.9618 4.70983 36.9977 4.70983L34.4598 7.691L31.9218 4.70983C29.9577 4.70983 28.6141 5.81086 29.6638 8.51211C29.9577 9.26323 31.124 11.1154 31.124 11.1154C30.6808 13.4294 28.6654 14.5117 27.0838 14.731C27.2891 14.4184 27.5037 14.0685 27.5924 13.8259C28.2922 11.9411 27.3964 11.064 26.0854 11.064L24.3919 12.5989L22.6984 11.064C21.3874 11.064 20.4917 11.9411 21.1915 13.8259C21.3874 14.3485 22.1665 15.4028 22.1665 15.4028H22.1712ZM68.1903 29.1983C67.3319 29.6322 62.2886 31.9928 55.8318 31.1204C55.9018 30.8125 55.9531 30.4999 55.9997 30.192C60.2965 29.6788 63.7909 28.951 66.0163 27.71C68.5542 26.2964 69.6646 22.9281 68.3816 20.4181C68.3489 20.3528 68.2556 20.3434 68.209 20.3948C67.5092 21.2019 63.0957 26.0025 56.1397 27.4955C56.121 27.1316 56.0884 26.777 56.0417 26.4178C59.4194 24.5003 62.7178 22.2982 64.2854 20.2781C66.6601 17.227 66.4408 13.3361 64.1828 11.3533C64.1361 11.3113 64.0568 11.3206 64.0241 11.3766C63.3103 12.557 56.6202 23.3619 49.2816 28.032C49.207 28.0786 49.109 28.1393 49.011 28.1999C48.8011 28.3259 48.7778 28.6011 48.955 28.7644C49.8041 29.5295 50.3267 30.5979 50.3267 31.7829C50.3267 33.845 48.7404 35.5572 46.6364 35.9304C45.568 36.1357 44.0284 36.0797 42.5495 35.5899C42.4842 35.5712 42.4142 35.6132 42.4142 35.6785V42.2053C42.4142 42.3126 42.5728 42.336 42.6101 42.238C43.5106 39.854 46.2025 39.3501 47.3781 39.3501C47.8027 41.8974 48.5585 44.0061 49.5429 45.1398C51.1431 46.9826 53.7604 46.9593 54.894 45.6857C54.9314 45.6437 54.922 45.5737 54.8707 45.5411C54.2036 45.1585 50.392 42.8165 49.6315 38.9816C49.9348 38.8789 50.224 38.7623 50.5086 38.6223C51.7403 40.6564 53.5271 42.4712 54.9734 43.1617C57.3947 44.3234 59.6107 43.7589 60.5951 42.0607C60.6324 42.0001 60.5858 41.9254 60.5158 41.9207C59.0182 41.7994 54.4228 40.4838 52.4634 37.274C52.6873 37.0688 52.9066 36.8541 53.1119 36.6255C55.16 38.1838 58.0572 39.5647 60.1286 39.8447C62.5546 40.1759 65.3025 39.4014 65.3678 36.5789C65.3678 36.5229 65.3165 36.4763 65.2605 36.4809C64.3974 36.5322 58.687 36.7795 54.6188 34.4468C54.7587 34.1809 54.8894 33.9056 55.0153 33.6257C55.0153 33.6257 61.1643 35.0767 64.0755 34.5961C66.9727 34.1203 68.6662 31.9602 68.3396 29.2776C68.3303 29.2123 68.251 29.1703 68.1903 29.203V29.1983ZM13.9042 33.6211C13.9042 33.6211 7.75524 35.072 4.84405 34.5915C1.95153 34.1156 0.253338 31.9602 0.579914 29.273C0.589244 29.2076 0.668555 29.1656 0.729205 29.1983C1.59696 29.6368 6.63089 31.9928 13.0831 31.1204C13.0131 30.8125 12.9618 30.4999 12.9151 30.192C8.61833 29.6788 5.12397 28.951 2.8986 27.71C0.365307 26.2964 -0.745049 22.9281 0.53326 20.4181C0.565918 20.3528 0.659225 20.3435 0.705878 20.3994C1.41501 21.2112 5.82378 26.0025 12.7705 27.4955C12.7892 27.1316 12.8218 26.777 12.8685 26.4178C9.49075 24.5003 6.19701 22.2982 4.62478 20.2781C2.25011 17.227 2.46938 13.3407 4.72742 11.3533C4.77874 11.3113 4.85805 11.3206 4.89071 11.3766C5.60917 12.5616 12.2946 23.3619 19.6332 28.0273C19.7079 28.0739 19.8059 28.1346 19.9085 28.1953C20.1184 28.3212 20.1418 28.5965 19.9598 28.7598C19.1154 29.5249 18.5882 30.5933 18.5882 31.7783C18.5882 33.8403 20.1791 35.5525 22.2785 35.9257C23.3469 36.131 24.8864 36.075 26.3654 35.5852C26.4307 35.5665 26.5007 35.6085 26.5007 35.6738V42.2007C26.5007 42.308 26.342 42.3313 26.3 42.2333C25.3996 39.8493 22.7077 39.3455 21.532 39.3455C21.1075 41.8927 20.3517 44.0015 19.3673 45.1352C17.7671 46.978 15.1498 46.9547 14.0162 45.681C13.9788 45.639 13.9882 45.5691 14.0395 45.5364C14.7066 45.1538 18.5182 42.8118 19.2787 38.9769C18.9801 38.8743 18.6862 38.7576 18.4016 38.6177C17.1699 40.6518 15.3831 42.4666 13.9415 43.1571C11.5202 44.3187 9.30414 43.7542 8.31975 42.056C8.28709 41.9954 8.32908 41.9207 8.39906 41.9161C9.89664 41.7948 14.492 40.4791 16.4515 37.2694C16.2275 37.0641 16.0083 36.8495 15.803 36.6209C13.7549 38.1791 10.8577 39.5601 8.78628 39.84C6.36029 40.1712 3.6124 39.3968 3.54708 36.5742C3.54708 36.5182 3.5984 36.4716 3.65905 36.4716C4.52681 36.5229 10.2325 36.7702 14.3007 34.4375C14.1608 34.1716 14.0255 33.8963 13.9042 33.6164V33.6211ZM53.8817 53.7707L56.121 52.0073C57.404 52.7724 58.2111 54.1673 58.0245 55.7302C57.8099 57.5124 56.247 58.9493 54.3295 59.1359C52.6407 59.2992 51.1478 58.5248 50.3406 57.3118C49.0763 56.0521 45.8759 55.1144 43.282 55.1144C42.8761 55.1144 42.6895 54.7738 42.8294 54.4379C43.8698 51.9373 41.6351 50.1271 39.3211 51.6014C38.3134 52.2452 37.287 53.5095 36.5172 55.6229C40.3101 56.542 45.0735 59.0706 46.0392 61.8325C46.4124 62.9009 45.1854 64.3518 43.6972 64.6457C43.6412 64.6597 43.5852 64.6224 43.5759 64.5664C42.7968 60.4422 38.3647 57.3678 36.0553 56.8452C35.9387 57.1578 35.976 57.0552 35.864 57.3631C38.3787 58.5527 40.814 61.058 41.5091 64.0392C41.8264 65.4015 40.3055 66.6332 39.0505 66.9691C38.9898 66.9831 38.9245 66.9411 38.9198 66.8804C38.6819 63.1108 37.0164 59.9104 35.5281 58.4548C35.4861 58.7347 35.4581 59.0239 35.4348 59.3132C35.4348 59.3132 36.9604 63.568 36.9604 66.6705C36.9604 68.1121 34.8143 69.1198 34.4178 69.2644C34.1005 69.1245 31.9545 68.1167 31.9545 66.6705C31.9545 63.568 33.48 59.3132 33.48 59.3132C33.4614 59.0239 33.4287 58.7347 33.3867 58.4548C31.8938 59.9104 30.2329 63.1108 29.9903 66.8804C29.9903 66.9411 29.925 66.9831 29.8597 66.9691C28.6047 66.6332 27.0792 65.4015 27.4011 64.0392C28.0962 61.058 30.5362 58.5527 33.0462 57.3631C32.9295 57.0552 32.9668 57.1531 32.8502 56.8452C30.5409 57.3678 26.1088 60.4422 25.3297 64.5664C25.3203 64.6177 25.2643 64.6551 25.2084 64.6457C23.7201 64.3518 22.4931 62.9009 22.8663 61.8325C23.8321 59.0706 28.5954 56.5373 32.3883 55.6229C31.6186 53.5095 30.5922 52.2452 29.5845 51.6014C27.2704 50.1271 25.0357 51.9373 26.0761 54.4379C26.2161 54.7738 26.0248 55.1144 25.6236 55.1144C23.3282 55.1144 20.5663 55.8469 19.0781 56.8872C19.0781 56.8872 20.8742 58.5574 20.9069 58.5901C21.0375 58.7114 21.1308 58.87 21.1448 59.0519C21.1775 59.4578 20.8509 59.8171 20.4124 59.8451C20.1698 59.8637 19.9552 59.7704 19.7965 59.6258L18.0004 57.9603C17.4639 58.2728 16.7967 58.4128 16.0876 58.2682C15.0845 58.0629 14.2961 57.2838 14.1328 56.3367C14.0301 55.7302 14.1794 55.1657 14.492 54.7038C14.492 54.7038 7.71325 48.2983 7.65727 48.2237L7.33536 48.3776C6.60756 48.8115 5.74913 48.2703 5.78179 47.8877C5.2686 48.3589 2.89393 48.5316 2.18946 46.1382C2.67 46.1802 3.64506 46.1569 3.64506 46.1569C3.64506 46.1569 2.47872 44.3467 3.31848 43.353C4.27488 42.4619 6.18301 43.493 6.18301 43.493C6.18301 43.493 6.14569 42.5319 6.07571 42.0654C8.54835 42.6066 8.52502 44.9486 8.08181 45.4804C8.46437 45.4244 9.07087 46.2315 8.67431 46.9733L8.61833 47.104C8.74429 47.1693 15.705 53.7568 15.705 53.7568C15.9943 53.6495 16.3115 53.5888 16.6427 53.5888C17.3939 53.5888 18.0704 53.8921 18.5369 54.3773C20.3097 54.5965 24.084 53.7381 23.7294 53.2016C19.7032 47.5378 22.7824 44.1694 26.4867 44.3561V48.1583C26.4867 49.3807 27.5504 50.3697 28.866 50.3697H31.4226C33.2561 50.3697 34.4504 52.2125 34.4504 52.2125C34.4504 52.2125 35.6448 50.3697 37.4783 50.3697H40.0349C41.3458 50.3697 42.4142 49.3807 42.4142 48.1583V44.3561C46.1138 44.1694 49.193 47.5378 45.1668 53.2016C44.8075 53.7428 48.4838 54.5592 49.8321 54.3679C50.0887 53.3789 50.7419 52.5298 51.6376 51.9979L53.877 53.7614L53.8817 53.7707ZM37.3709 42.4106C38.1687 42.1167 39.419 42.3546 39.3771 43.507C39.3677 43.7682 39.7316 43.7682 39.7596 43.5023C39.9975 41.7761 38.8312 41.2816 37.6135 41.4822C37.4596 40.8897 37.3383 40.3719 37.1983 39.8587C37.0864 39.4434 37.0444 38.6597 37.5249 38.6597C37.7862 38.6597 37.6789 39.3875 37.6555 39.7C37.6322 39.9753 37.7302 40.1386 37.9541 40.1479C38.0941 40.1526 38.2667 39.9753 38.3693 39.8587C39.0691 39.0702 39.2278 37.8479 38.4113 37.2554C37.7255 36.7609 36.0133 37.1294 35.5421 37.8339C35.4721 37.568 35.1316 37.1294 34.9683 36.9381C34.8097 36.7515 34.7677 36.6256 34.9869 36.4576C35.0896 36.3783 35.4022 36.0657 35.4022 35.7485C35.4022 35.5572 35.2575 35.2073 34.7863 35.2073C34.4178 35.2073 34.0072 35.4639 34.0072 36.0331C34.0072 36.159 34.0399 36.2943 34.1192 36.4389C33.8859 36.4016 33.2514 36.4156 32.9295 36.4949L37.4223 48.8301C38.7099 48.1957 39.6523 47.1879 39.6523 46.1102C39.6523 45.1912 38.2994 45.4944 37.6415 46.2129C37.4316 45.0465 37.2403 43.9688 37.035 42.8958C36.9791 42.6019 37.1283 42.4946 37.3663 42.4059L37.3709 42.4106ZM31.0167 34.0316L31.9591 36.6536C31.152 36.8448 29.8504 37.4327 29.8504 38.2164C29.8504 39.2568 31.6885 39.9333 32.7522 39.854C32.7009 40.0919 32.7616 40.3019 32.9249 40.4978C32.5376 40.4978 31.8098 40.6751 31.5719 40.9364C31.0074 40.4092 30.1256 40.2179 29.7058 40.5398C29.2859 40.8617 29.2719 41.4075 29.7104 42.0234C30.0183 42.4526 30.1303 42.8725 29.7851 43.367C31.068 43.367 30.5968 41.7015 31.096 41.7015C31.0307 42.0234 31.0727 42.3966 31.2173 42.8118C31.3153 43.0871 31.3153 43.283 31.1474 43.549C30.7321 44.2114 30.093 45.7277 30.177 47.0993C29.7571 47.0993 29.5425 46.992 29.6918 46.4182C29.7477 46.2036 29.6125 46.0542 29.4398 46.3155C29.2486 46.6048 29.1552 47.104 29.1552 47.3139C29.1552 48.5362 30.6108 48.7835 31.166 48.5222C32.7756 50.0758 35.934 49.6652 36.9931 49.1427L31.4319 33.8823C31.32 33.5931 30.9094 33.733 31.0121 34.0316H31.0167ZM30.8254 46.6001C31.306 46.2595 32.2624 46.1102 33.0695 46.1102C32.6076 45.6903 32.4583 44.4727 32.6963 43.7682C31.5859 44.8506 30.7088 45.9749 30.8254 46.6048V46.6001Z" fill="#2A282D"/>
<g id="Group_2">
<path id="Vector_2" d="M15.9775 81.2312C15.8049 81.3571 15.6043 81.4504 15.3803 81.5111C15.1564 81.5717 14.9138 81.6044 14.6572 81.6044V81.679C14.6572 81.7397 14.6665 81.791 14.6898 81.833C14.7085 81.875 14.7505 81.9076 14.8158 81.931C14.8485 81.945 14.9044 81.9543 14.9838 81.9636C15.0631 81.9729 15.1331 81.9776 15.203 81.9823V82.1875H13.2436V81.9823C13.2856 81.9823 13.3462 81.9729 13.4255 81.9636C13.5048 81.9543 13.5608 81.945 13.5935 81.931C13.6448 81.9076 13.6868 81.875 13.7101 81.8376C13.7334 81.8003 13.7474 81.7443 13.7474 81.6837V81.609C13.4768 81.609 13.2296 81.5764 13.0056 81.5157C12.777 81.4551 12.5811 81.3618 12.4178 81.2405C12.2499 81.1192 12.1192 80.9699 12.0306 80.7973C11.9373 80.62 11.8906 80.4194 11.8906 80.1954C11.8906 80.0228 11.9233 79.8595 11.9886 79.7102C12.0539 79.5609 12.1659 79.421 12.3152 79.295C12.4598 79.1784 12.6464 79.0851 12.8843 79.0104C13.1176 78.9358 13.3975 78.9031 13.7148 78.9031H13.7474C13.7474 78.8238 13.7381 78.7632 13.7148 78.7259C13.6961 78.6885 13.6541 78.6559 13.5935 78.6279C13.5422 78.6045 13.4815 78.5859 13.4162 78.5719C13.3509 78.5579 13.2902 78.5486 13.2389 78.5439V78.3386H15.175V78.5439C15.1237 78.5439 15.0631 78.5532 14.9978 78.5579C14.9324 78.5672 14.8718 78.5766 14.8205 78.5952C14.7598 78.6185 14.7178 78.6465 14.6945 78.6885C14.6712 78.7305 14.6618 78.8005 14.6618 78.8985H14.6898C15.0118 78.8985 15.287 78.9358 15.5203 79.0058C15.7489 79.0757 15.9402 79.1737 16.0894 79.2903C16.2341 79.4116 16.3414 79.5469 16.4114 79.7009C16.4813 79.8549 16.514 80.0182 16.514 80.1861C16.514 80.4054 16.4673 80.606 16.3694 80.7879C16.2714 80.9652 16.1408 81.1145 15.9775 81.2312ZM13.0336 80.9232C13.1036 81.0632 13.1969 81.1752 13.3136 81.2498C13.4302 81.3244 13.5702 81.3618 13.7381 81.3618V79.1364H13.6541C13.5048 79.1364 13.3835 79.1737 13.2856 79.2437C13.1876 79.3137 13.113 79.4023 13.0523 79.5096C12.9963 79.6076 12.9543 79.7242 12.9263 79.8549C12.8983 79.9902 12.8843 80.1208 12.8843 80.2514C12.8843 80.3447 12.889 80.4427 12.903 80.5547C12.917 80.6666 12.959 80.7879 13.029 80.9279L13.0336 80.9232ZM15.3617 80.9232C15.4223 80.8066 15.4596 80.6853 15.4783 80.5593C15.4969 80.4334 15.5063 80.3307 15.5063 80.2467C15.5063 80.1348 15.4923 80.0088 15.4643 79.8688C15.4363 79.7289 15.3943 79.6076 15.3383 79.505C15.2777 79.393 15.1984 79.2997 15.1051 79.2344C15.0118 79.1644 14.8905 79.1317 14.7365 79.1317H14.6572V81.3571C14.8205 81.3571 14.9604 81.3198 15.0817 81.2405C15.203 81.1612 15.2917 81.0538 15.357 80.9186L15.3617 80.9232Z" fill="#2A282D"/>
<path id="Vector_3" d="M20.8964 82.1315H18.8623V81.9262C18.9556 81.9169 19.0676 81.9029 19.1982 81.8749C19.3242 81.8469 19.3895 81.8142 19.3895 81.7723C19.3895 81.7583 19.3895 81.7443 19.3848 81.7256C19.3848 81.707 19.3755 81.6836 19.3615 81.6556L19.0443 80.8812H17.7566C17.7286 80.9512 17.696 81.0351 17.6586 81.1331C17.6213 81.2311 17.5933 81.3151 17.5653 81.3897C17.5327 81.4877 17.514 81.5577 17.5047 81.6043C17.5 81.6463 17.4954 81.679 17.4954 81.6976C17.4954 81.7536 17.5373 81.8003 17.6213 81.8423C17.7053 81.8796 17.8499 81.9122 18.0459 81.9262V82.1315H16.5156V81.9262C16.5716 81.9262 16.6369 81.9122 16.7116 81.8982C16.7862 81.8842 16.8422 81.8609 16.8842 81.8376C16.9542 81.7956 17.0195 81.7443 17.0661 81.6836C17.1175 81.623 17.1594 81.5483 17.1921 81.4644C17.3974 80.9698 17.6027 80.4799 17.8033 79.9854C18.0085 79.4909 18.2325 78.9451 18.4797 78.3479H19.0069C19.3522 79.1923 19.6228 79.8641 19.814 80.354C20.01 80.8485 20.1733 81.2544 20.3132 81.5763C20.3366 81.6323 20.3645 81.679 20.4019 81.7209C20.4392 81.7629 20.4858 81.8049 20.5512 81.8423C20.5978 81.8702 20.6585 81.8889 20.7238 81.9076C20.7891 81.9216 20.8497 81.9309 20.9011 81.9356V82.1408L20.8964 82.1315ZM18.9323 80.6199L18.3911 79.2716L17.8592 80.6199H18.9323Z" fill="#2A282D"/>
<path id="Vector_4" d="M22.1176 82.1221C22.0383 82.1221 21.959 82.1221 21.8843 82.1221C21.8097 82.1221 21.735 82.1314 21.6651 82.1501C21.5251 82.1781 21.3805 82.2901 21.2312 82.4767C21.0819 82.6633 20.9746 82.8593 20.9186 83.0645H20.7227V81.8655H21.0959C21.3338 81.511 21.5531 81.0584 21.7444 80.4986C21.9403 79.9387 22.0336 79.4675 22.0336 79.071C22.0336 78.9683 22.0243 78.889 22.0056 78.833C21.987 78.7771 21.9403 78.7304 21.8797 78.6931C21.833 78.6651 21.763 78.6464 21.6651 78.6324C21.5718 78.6184 21.4971 78.6091 21.4458 78.6044V78.3992H24.8748V78.6044C24.8188 78.6044 24.7535 78.6138 24.6835 78.6278C24.6136 78.6371 24.5483 78.6558 24.4923 78.6698C24.427 78.6931 24.3803 78.7304 24.357 78.7771C24.3336 78.8284 24.3243 78.8797 24.3243 78.9357V81.6089C24.3243 81.7022 24.3523 81.7722 24.413 81.8142C24.4736 81.8609 24.5576 81.8795 24.6649 81.8795H24.9121V83.0599H24.7162C24.6602 82.8639 24.5529 82.668 24.399 82.4767C24.2403 82.2854 24.1004 82.1734 23.9697 82.1454C23.9184 82.1314 23.8438 82.1268 23.7505 82.1221C23.6572 82.1221 23.5779 82.1174 23.5172 82.1174H22.1176V82.1221ZM23.3912 81.6276V78.6511H22.4255C22.4069 79.1876 22.3182 79.7428 22.1549 80.326C21.9963 80.9045 21.7724 81.4177 21.4971 81.8655H23.1673C23.2373 81.8655 23.2933 81.8469 23.3306 81.8095C23.3679 81.7722 23.3866 81.7116 23.3866 81.6276H23.3912Z" fill="#2A282D"/>
<path id="Vector_5" d="M29.8244 82.1315H27.8043V81.9262C27.8463 81.9262 27.9116 81.9169 27.9956 81.9076C28.0796 81.9029 28.1402 81.8889 28.1682 81.8749C28.2336 81.8469 28.2755 81.8143 28.3035 81.7723C28.3269 81.7303 28.3409 81.6743 28.3409 81.609V80.3214H26.7453V81.581C26.7453 81.6417 26.7593 81.693 26.7826 81.7396C26.806 81.7863 26.8526 81.8236 26.9133 81.8516C26.9459 81.8656 27.0019 81.8796 27.0859 81.8983C27.1652 81.9169 27.2352 81.9262 27.2818 81.9262V82.1315H25.2617V81.9262C25.3037 81.9262 25.369 81.9169 25.453 81.9076C25.537 81.8983 25.6023 81.8843 25.6396 81.8703C25.7049 81.8469 25.7469 81.8143 25.7702 81.7676C25.7936 81.721 25.8076 81.665 25.8076 81.6043V78.9591C25.8076 78.8984 25.7982 78.8471 25.7749 78.8051C25.7516 78.7631 25.7096 78.7258 25.6396 78.6932C25.5883 78.6698 25.523 78.6512 25.439 78.6325C25.355 78.6138 25.2944 78.6045 25.2617 78.5998V78.3946H27.2818V78.5998C27.2258 78.5998 27.1605 78.6138 27.0859 78.6278C27.0112 78.6418 26.9506 78.6558 26.9133 78.6652C26.8433 78.6885 26.8013 78.7258 26.778 78.7771C26.7546 78.8284 26.7453 78.8797 26.7453 78.9357V80.0508H28.3409V78.9591C28.3409 78.8984 28.3315 78.8471 28.3082 78.8051C28.2849 78.7631 28.2382 78.7258 28.1729 78.6932C28.1262 78.6745 28.0656 78.6512 27.991 78.6325C27.9163 78.6138 27.8557 78.6045 27.809 78.5952V78.3899H29.8291V78.5952C29.7731 78.5952 29.7078 78.6045 29.6378 78.6185C29.5678 78.6278 29.5025 78.6465 29.4465 78.6605C29.3812 78.6838 29.3346 78.7211 29.3113 78.7678C29.2879 78.8191 29.2786 78.8704 29.2786 78.9264V81.5717C29.2786 81.637 29.2879 81.6883 29.3113 81.7303C29.3346 81.777 29.3766 81.8096 29.4465 81.8423C29.4885 81.8609 29.5492 81.8749 29.6285 81.8889C29.7078 81.9029 29.7731 81.9122 29.8244 81.9169V82.1222V82.1315Z" fill="#2A282D"/>
<path id="Vector_6" d="M35.0225 79.3322C35.0225 79.5422 34.9805 79.7241 34.8918 79.8781C34.8032 80.0274 34.6866 80.1533 34.5326 80.2466C34.374 80.3446 34.1967 80.4146 33.9914 80.4613C33.7908 80.5079 33.5622 80.5266 33.3103 80.5266H33.0024V81.5763C33.0024 81.6416 33.0164 81.6929 33.0397 81.7396C33.063 81.7862 33.1097 81.8235 33.175 81.8515C33.2076 81.8655 33.2683 81.8795 33.3476 81.8982C33.4269 81.9122 33.4922 81.9262 33.5482 81.9309V82.1361H31.5234V81.9309C31.5748 81.9262 31.6401 81.9169 31.724 81.9075C31.808 81.8982 31.8687 81.8842 31.9013 81.8702C31.9713 81.8422 32.0133 81.8049 32.0366 81.7675C32.06 81.7256 32.0693 81.6696 32.0693 81.5996V78.9637C32.0693 78.903 32.06 78.8517 32.0366 78.8051C32.018 78.7584 31.9713 78.7211 31.9013 78.6931C31.8547 78.6744 31.7894 78.6558 31.7054 78.6371C31.6214 78.6184 31.5608 78.6091 31.5234 78.6044V78.3992H33.5855C34.0707 78.3992 34.43 78.4738 34.6679 78.6278C34.9058 78.7817 35.0271 79.0197 35.0271 79.3322H35.0225ZM33.9961 79.4675C33.9961 79.1876 33.9401 78.9777 33.8235 78.8424C33.7115 78.7071 33.5109 78.6371 33.2216 78.6371H33.0024V80.2793H33.1143C33.4036 80.2793 33.6228 80.214 33.7721 80.0787C33.9214 79.9481 33.9961 79.7428 33.9961 79.4675Z" fill="#2A282D"/>
<path id="Vector_7" d="M38.7734 78.8148C38.9554 78.9827 39.1 79.188 39.212 79.4259C39.3193 79.6638 39.3753 79.9391 39.3753 80.2424C39.3753 80.5129 39.3286 80.7742 39.2353 81.0168C39.142 81.2641 39.0114 81.474 38.8388 81.6513C38.6568 81.8332 38.4469 81.9779 38.1996 82.0805C37.957 82.1831 37.6677 82.2344 37.3318 82.2344C37.0613 82.2344 36.8 82.1878 36.5574 82.0992C36.3148 82.0105 36.1002 81.8799 35.9136 81.7073C35.7316 81.5393 35.587 81.3387 35.4797 81.1008C35.3724 80.8628 35.3164 80.5969 35.3164 80.303C35.3164 80.0091 35.3677 79.7198 35.475 79.4726C35.5777 79.2253 35.7223 79.0107 35.9042 78.8334C36.0862 78.6608 36.3008 78.5255 36.5481 78.4322C36.7953 78.3389 37.0612 78.2922 37.3412 78.2922C37.6211 78.2922 37.8824 78.3389 38.125 78.4275C38.3722 78.5208 38.5822 78.6468 38.7641 78.8101L38.7734 78.8148ZM38.0923 81.488C38.1716 81.3294 38.2323 81.1474 38.2649 80.9468C38.3022 80.7415 38.3162 80.5176 38.3162 80.261C38.3162 80.0464 38.3022 79.8318 38.2696 79.6312C38.2416 79.4259 38.1856 79.2439 38.111 79.0853C38.0363 78.9267 37.9337 78.7961 37.8124 78.7028C37.6864 78.6048 37.5325 78.5581 37.3458 78.5581C37.0286 78.5581 36.7907 78.7074 36.6227 79.0107C36.4548 79.3139 36.3754 79.7385 36.3754 80.289C36.3754 80.5223 36.3941 80.7462 36.4314 80.9515C36.4641 81.1567 36.5247 81.3387 36.5994 81.4927C36.6787 81.6513 36.7767 81.7726 36.9026 81.8566C37.0239 81.9452 37.1732 81.9872 37.3505 81.9872C37.5278 81.9872 37.6724 81.9452 37.7984 81.8566C37.9243 81.7679 38.0223 81.6513 38.097 81.4973L38.0923 81.488Z" fill="#2A282D"/>
<path id="Vector_8" d="M41.697 82.2342C41.4217 82.2342 41.1651 82.1876 40.9272 82.1036C40.6893 82.015 40.4793 81.8843 40.302 81.7164C40.1294 81.5484 39.9895 81.3431 39.8915 81.1006C39.7935 80.858 39.7422 80.5874 39.7422 80.2981C39.7422 80.0089 39.7935 79.7383 39.8961 79.491C39.9988 79.2437 40.1387 79.0291 40.3207 78.8472C40.498 78.6699 40.7126 78.53 40.9645 78.432C41.2164 78.334 41.487 78.2874 41.7716 78.2874C41.9769 78.2874 42.1682 78.3153 42.3361 78.362C42.5087 78.4133 42.6534 78.4693 42.77 78.5346L42.9333 78.39H43.1619L43.1852 79.7523H42.952C42.8213 79.337 42.6627 79.0291 42.4761 78.8332C42.2895 78.6372 42.0655 78.5393 41.8043 78.5393C41.4777 78.5393 41.2258 78.6839 41.0532 78.9778C40.8805 79.2671 40.7966 79.6776 40.7966 80.2048C40.7966 80.5034 40.8245 80.7553 40.8852 80.9653C40.9458 81.1752 41.0205 81.3478 41.1185 81.4738C41.2211 81.6044 41.3377 81.707 41.4777 81.7677C41.6177 81.833 41.7716 81.861 41.9396 81.861C42.1822 81.861 42.4014 81.7957 42.5927 81.6604C42.784 81.5298 42.9613 81.3245 43.1152 81.0539L43.3438 81.1939C43.2692 81.3478 43.1852 81.4878 43.0873 81.6091C42.9893 81.7304 42.8773 81.8377 42.7513 81.9263C42.6114 82.0243 42.4621 82.0989 42.2941 82.1503C42.1262 82.2016 41.9302 82.2342 41.7016 82.2342H41.697Z" fill="#2A282D"/>
<path id="Vector_9" d="M45.5407 82.2342C45.2655 82.2342 45.0089 82.1876 44.7709 82.1036C44.533 82.015 44.3231 81.8843 44.1458 81.7164C43.9732 81.5484 43.8379 81.3431 43.7352 81.1006C43.6326 80.858 43.5859 80.5874 43.5859 80.2981C43.5859 80.0089 43.6373 79.7383 43.7352 79.491C43.8379 79.2437 43.9778 79.0291 44.1598 78.8472C44.3371 78.6699 44.5517 78.53 44.8036 78.432C45.0555 78.334 45.3261 78.2874 45.6107 78.2874C45.8206 78.2874 46.0073 78.3153 46.1799 78.362C46.3525 78.4133 46.4925 78.4693 46.6138 78.5346L46.777 78.39H47.0056L47.029 79.7523H46.7957C46.6651 79.337 46.5065 79.0291 46.3198 78.8332C46.1379 78.6372 45.914 78.5393 45.648 78.5393C45.3168 78.5393 45.0649 78.6839 44.8969 78.9778C44.729 79.2717 44.6403 79.6776 44.6403 80.2048C44.6403 80.5034 44.6683 80.7553 44.729 80.9653C44.7849 81.1752 44.8642 81.3478 44.9576 81.4738C45.0602 81.6044 45.1815 81.707 45.3168 81.7677C45.4567 81.833 45.606 81.861 45.7787 81.861C46.0213 81.861 46.2452 81.7957 46.4318 81.6604C46.6278 81.5298 46.8004 81.3245 46.959 81.0539L47.1876 81.1939C47.113 81.3478 47.0243 81.4878 46.9263 81.6091C46.8284 81.7304 46.7211 81.8377 46.5904 81.9263C46.4505 82.0243 46.3012 82.0989 46.1332 82.1503C45.9653 82.2062 45.7693 82.2342 45.5361 82.2342H45.5407Z" fill="#2A282D"/>
<path id="Vector_10" d="M52.0641 82.132H50.0627V81.9267C50.1047 81.9267 50.17 81.9174 50.254 81.908C50.3379 81.8987 50.3986 81.8894 50.4313 81.8754C50.4966 81.8474 50.5386 81.8147 50.5665 81.7727C50.5899 81.7307 50.6039 81.6748 50.6039 81.6095V79.4261L48.9243 81.5115C48.9243 81.6328 48.9383 81.7121 48.9617 81.7494C48.985 81.7867 49.027 81.824 49.097 81.852C49.1343 81.8707 49.1903 81.8847 49.2696 81.8987C49.3489 81.9127 49.4142 81.922 49.4655 81.9267V82.132H47.4688V81.9267C47.5107 81.9267 47.5761 81.9174 47.66 81.908C47.744 81.8987 47.8093 81.8847 47.8466 81.8707C47.912 81.8474 47.9539 81.8147 47.9773 81.7681C48.0053 81.7214 48.0146 81.6654 48.0146 81.6048V78.9595C48.0146 78.8989 48.0053 78.8476 47.9819 78.8056C47.9586 78.7636 47.9166 78.7263 47.8466 78.6936C47.7953 78.6703 47.73 78.6516 47.646 78.633C47.5621 78.6143 47.5014 78.605 47.4688 78.6003V78.395H49.4702V78.6003C49.4142 78.6003 49.3489 78.6143 49.2742 78.6283C49.1996 78.6423 49.1436 78.6563 49.1016 78.6656C49.0316 78.6889 48.985 78.7263 48.9663 78.7776C48.943 78.8289 48.9337 78.8802 48.9337 78.9362V81.0776L50.6132 78.9922C50.6132 78.8989 50.5992 78.8336 50.5712 78.7962C50.5432 78.7589 50.5012 78.7263 50.4406 78.6983C50.3893 78.675 50.3286 78.6516 50.254 78.6376C50.184 78.6236 50.1233 78.6096 50.0767 78.605V78.3997H52.0735V78.605C52.0175 78.605 51.9522 78.6143 51.8822 78.6283C51.8122 78.6376 51.7469 78.6563 51.6909 78.6703C51.6256 78.6936 51.5789 78.7309 51.5556 78.7776C51.5323 78.8289 51.5229 78.8802 51.5229 78.9362V81.5815C51.5229 81.6468 51.5323 81.6981 51.5556 81.7401C51.5789 81.7867 51.6209 81.8194 51.6909 81.852C51.7329 81.8707 51.7935 81.8847 51.8729 81.8987C51.9568 81.9127 52.0175 81.922 52.0688 81.9267V82.132H52.0641Z" fill="#2A282D"/>
<path id="Vector_11" d="M57.0133 82.132H55.0119V81.9267C55.0539 81.9267 55.1192 81.9174 55.2032 81.908C55.2872 81.8987 55.3478 81.8894 55.3805 81.8754C55.4458 81.8474 55.4878 81.8147 55.5158 81.7727C55.5391 81.7307 55.5531 81.6748 55.5531 81.6095V79.4261L53.8736 81.5115C53.8736 81.6328 53.8876 81.7121 53.9109 81.7494C53.9342 81.7867 53.9762 81.824 54.0462 81.852C54.0835 81.8707 54.1395 81.8847 54.2188 81.8987C54.2981 81.9127 54.3634 81.922 54.4147 81.9267V82.132H52.418V81.9267C52.46 81.9267 52.5253 81.9174 52.6093 81.908C52.6932 81.8987 52.7585 81.8847 52.7959 81.8707C52.8612 81.8474 52.9032 81.8147 52.9265 81.7681C52.9545 81.7214 52.9638 81.6654 52.9638 81.6048V78.9595C52.9638 78.8989 52.9545 78.8476 52.9312 78.8056C52.9078 78.7636 52.8658 78.7263 52.7959 78.6936C52.7445 78.6703 52.6792 78.6516 52.5953 78.633C52.5113 78.6143 52.4506 78.605 52.418 78.6003V78.395H54.4194V78.6003C54.3634 78.6003 54.2981 78.6143 54.2235 78.6283C54.1488 78.6423 54.0928 78.6563 54.0508 78.6656C53.9809 78.6889 53.9342 78.7263 53.9155 78.7776C53.8922 78.8289 53.8829 78.8802 53.8829 78.9362V81.0776L55.5624 78.9922C55.5624 78.8989 55.5484 78.8336 55.5204 78.7962C55.4924 78.7589 55.4505 78.7263 55.3898 78.6983C55.3385 78.675 55.2778 78.6516 55.2032 78.6376C55.1332 78.6236 55.0726 78.6096 55.0259 78.605V78.3997H57.0227V78.605C56.9667 78.605 56.9014 78.6143 56.8314 78.6283C56.7614 78.6376 56.6961 78.6563 56.6401 78.6703C56.5748 78.6936 56.5282 78.7309 56.5048 78.7776C56.4815 78.8289 56.4722 78.8802 56.4722 78.9362V81.5815C56.4722 81.6468 56.4815 81.6981 56.5048 81.7401C56.5282 81.7867 56.5701 81.8194 56.6401 81.852C56.6821 81.8707 56.7428 81.8847 56.8221 81.8987C56.906 81.9127 56.9667 81.922 57.018 81.9267V82.132H57.0133Z" fill="#2A282D"/>
</g>
</g>
</svg>
