<svg width="408" height="22" viewBox="0 0 408 22" fill="none" xmlns="http://www.w3.org/2000/svg">
<path d="M45.9709 0.596187C49.1928 0.596187 51.1429 2.29959 51.1429 4.93985C51.1429 6.55808 50.5494 7.83563 49.3624 8.94284C48.1754 9.96488 46.734 10.4759 44.9535 10.4759H40.9686L39.9511 16.7785H36.6445L39.1881 0.51102H45.9709V0.596187ZM45.0383 7.49495C46.4797 7.49495 47.7515 6.72842 47.7515 5.19536C47.7515 4.08815 46.9884 3.40679 45.6318 3.40679H42.0708L41.3925 7.40978H45.0383V7.49495ZM62.3345 6.55809C63.4367 7.66529 64.0302 9.02801 64.0302 10.7314C64.0302 12.4348 63.4367 13.9679 62.1649 15.2454C60.9779 16.523 59.4518 17.1191 57.5865 17.1191C55.806 17.1191 54.3647 16.6081 53.2625 15.5009C52.1603 14.3937 51.5668 13.031 51.5668 11.3276C51.5668 9.6242 52.1603 8.09114 53.4321 6.89876C54.6191 5.62121 56.23 5.02503 58.0104 5.02503C59.7061 4.93986 61.1475 5.45088 62.3345 6.55809ZM59.9605 13.2013C60.6388 12.52 60.9779 11.6683 60.9779 10.6462C60.9779 8.94284 59.7061 7.75046 58.0104 7.75046C57.0778 7.75046 56.3147 8.09114 55.6365 8.7725C54.9582 9.45386 54.7038 10.3056 54.7038 11.3276C54.7038 13.1162 55.8908 14.2234 57.5865 14.2234C58.5192 14.2234 59.2822 13.8827 59.9605 13.2013ZM75.5609 8.60216C74.5435 8.09114 73.5261 7.75046 72.5086 7.75046C71.4064 7.75046 70.4738 8.09114 69.7107 8.7725C68.9477 9.45386 68.6085 10.2204 68.6085 11.2424C68.6085 12.1793 68.9477 12.9458 69.7107 13.4568C70.389 13.9679 71.2369 14.2234 72.2543 14.2234C73.1869 14.2234 74.1196 14.053 75.0522 13.542L74.5435 16.4378C73.6108 16.8636 72.5086 17.1191 71.4064 17.1191C69.7107 17.1191 68.1846 16.6081 67.0824 15.5861C65.9802 14.5641 65.3867 13.2013 65.3867 11.4979C65.3867 9.6242 66.065 8.09114 67.3368 6.89876C68.6933 5.62121 70.3042 5.02503 72.2543 5.02503C73.6956 5.02503 74.8826 5.3657 75.9848 5.96189L75.5609 8.60216ZM87.1766 8.60216C86.1592 8.09114 85.1418 7.75046 84.1243 7.75046C83.0221 7.75046 82.0895 8.09114 81.3264 8.7725C80.5634 9.45386 80.2241 10.2204 80.2241 11.2424C80.2241 12.1793 80.5634 12.9458 81.3264 13.4568C82.0047 13.9679 82.8526 14.2234 83.87 14.2234C84.8026 14.2234 85.7353 14.053 86.6679 13.542L86.1592 16.4378C85.2266 16.8636 84.1243 17.1191 83.0221 17.1191C81.3264 17.1191 79.8001 16.6081 78.6979 15.5861C77.5957 14.5641 77.0022 13.2013 77.0022 11.4979C77.0022 9.6242 77.6805 8.09114 78.9523 6.89876C80.3088 5.62121 81.9199 5.02503 83.87 5.02503C85.3113 5.02503 86.4983 5.3657 87.6005 5.96189L87.1766 8.60216ZM98.7921 5.19536H101.844L100.064 16.7785H96.7573L97.7747 10.1352L91.5854 16.7785H88.5332L90.3984 5.19536H93.6203L92.6028 11.9238L98.7921 5.19536ZM113.206 5.19536H116.258L114.477 16.7785H111.171L112.188 10.1352L105.999 16.7785H102.947L104.812 5.19536H108.034L107.016 11.8386L113.206 5.19536ZM109.39 0V0.34068C109.39 1.19238 109.984 1.78857 111.001 1.78857C112.103 1.78857 112.951 1.10721 113.121 0.0851677H115.41C114.986 2.46992 113.206 3.91781 110.832 3.91781C108.712 3.91781 107.101 2.64027 107.101 0.68136C107.101 0.51102 107.101 0.34068 107.186 0H109.39ZM127.704 8.60216C126.686 8.09114 125.669 7.75046 124.651 7.75046C123.549 7.75046 122.617 8.09114 121.854 8.7725C121.091 9.45386 120.751 10.2204 120.751 11.2424C120.751 12.1793 121.091 12.9458 121.854 13.4568C122.532 13.9679 123.38 14.2234 124.397 14.2234C125.33 14.2234 126.262 14.053 127.195 13.542L126.771 16.4378C125.838 16.8636 124.736 17.1191 123.634 17.1191C121.938 17.1191 120.412 16.6081 119.31 15.5861C118.208 14.5641 117.614 13.2013 117.614 11.4979C117.614 9.6242 118.293 8.09114 119.564 6.89876C120.921 5.62121 122.532 5.02503 124.482 5.02503C125.923 5.02503 127.11 5.3657 128.212 5.96189L127.704 8.60216ZM129.06 16.7785L130.926 5.19536H134.147L133.469 9.36869L138.047 5.19536H142.202L136.267 10.6462L141.1 16.7785H137.369L133.13 11.6683L132.282 16.7785H129.06ZM152.8 5.19536H155.852L154.072 16.7785H150.85L151.867 10.1352L145.678 16.7785H142.626L144.406 5.19536H147.713L146.611 11.9238L152.8 5.19536ZM167.298 5.19536H170.35L168.569 16.7785H165.348L166.365 10.1352L160.176 16.7785H157.124L158.989 5.19536H162.211L161.193 11.8386L167.298 5.19536ZM163.482 0V0.34068C163.482 1.19238 164.076 1.78857 165.093 1.78857C166.195 1.78857 167.043 1.10721 167.213 0.0851677H169.502C169.078 2.46992 167.298 3.91781 164.924 3.91781C162.804 3.91781 161.193 2.64027 161.193 0.68136C161.193 0.51102 161.193 0.34068 161.278 0H163.482ZM187.646 13.3717L187.222 16.0971C186.205 16.7785 184.848 17.1191 183.152 17.1191C181.457 17.1191 180.015 16.6081 178.913 15.5861C177.811 14.5641 177.217 13.2013 177.217 11.5831C177.217 9.70937 177.811 8.17631 179.083 6.89876C180.27 5.62121 181.881 4.93985 183.661 4.93985C185.272 4.93985 186.544 5.36571 187.476 6.38775C188.409 7.32461 188.918 8.51699 188.918 9.96488C188.918 10.5611 188.833 11.2424 188.748 12.009H180.439C180.524 13.6272 182.05 14.3937 184.085 14.3937C185.272 14.3085 186.544 13.9679 187.646 13.3717ZM185.781 9.79454V9.6242C185.781 8.34665 184.933 7.49495 183.576 7.49495C182.135 7.49495 180.948 8.34665 180.609 9.79454H185.781ZM201.635 13.2865C201.635 15.6713 199.77 16.7785 196.887 16.7785H190.105L191.97 5.19536H198.498C200.618 5.19536 201.805 6.38774 201.805 7.9208C201.805 9.36869 200.957 10.3907 199.94 10.8166C201.042 11.3276 201.635 12.0941 201.635 13.2865ZM196.633 14.4789C197.65 14.4789 198.329 13.8827 198.329 12.9458C198.329 12.2645 197.735 11.8386 196.633 11.8386H194.005L193.581 14.4789H196.633ZM196.803 9.87971C197.735 9.87971 198.414 9.36869 198.414 8.51699C198.414 7.75046 197.905 7.49495 196.803 7.49495H194.768L194.344 9.87971H196.803ZM205.875 21.4628H202.653L205.196 5.28053H208.418L208.164 6.64325C209.181 5.53604 210.453 5.02503 211.979 5.02503C213.42 5.02503 214.607 5.53605 215.455 6.55809C216.303 7.58012 216.812 8.85767 216.812 10.3907C216.812 12.1793 216.218 13.7123 215.116 15.1602C214.014 16.523 212.488 17.2043 210.707 17.2043C208.927 17.2043 207.486 16.3526 206.807 15.3306L205.875 21.4628ZM207.74 9.45386L207.231 12.52C207.655 13.4568 208.842 14.2234 210.114 14.2234C211.046 14.2234 211.81 13.8827 212.488 13.2013C213.166 12.52 213.42 11.6683 213.42 10.6462C213.42 8.94284 212.318 7.75046 210.623 7.75046C209.605 7.75046 208.418 8.51699 207.74 9.45386ZM228.597 13.3717L228.173 16.0971C227.156 16.7785 225.799 17.1191 224.103 17.1191C222.408 17.1191 220.966 16.6081 219.864 15.5861C218.762 14.5641 218.168 13.2013 218.168 11.5831C218.168 9.70937 218.762 8.17631 220.034 6.89876C221.221 5.62121 222.832 4.93985 224.612 4.93985C226.223 4.93985 227.41 5.36571 228.427 6.38775C229.36 7.32461 229.869 8.51699 229.869 9.96488C229.869 10.5611 229.784 11.2424 229.699 12.009H221.39C221.475 13.6272 223.001 14.3937 225.036 14.3937C226.223 14.3085 227.495 13.9679 228.597 13.3717ZM226.732 9.79454V9.6242C226.732 8.34665 225.884 7.49495 224.527 7.49495C223.086 7.49495 221.899 8.34665 221.56 9.79454H226.732ZM241.23 5.19536H244.282L242.502 16.7785H239.28L240.297 10.1352L234.108 16.7785H231.056L232.921 5.19536H236.143L235.125 11.8386L241.23 5.19536ZM237.499 0V0.34068C237.499 1.19238 238.093 1.78857 239.11 1.78857C240.212 1.78857 241.06 1.10721 241.23 0.0851677H243.519C243.095 2.46992 241.315 3.91781 238.941 3.91781C236.821 3.91781 235.21 2.64027 235.21 0.68136C235.21 0.51102 235.21 0.34068 235.295 0H237.499ZM255.728 8.60216C254.711 8.09114 253.693 7.75046 252.676 7.75046C251.574 7.75046 250.641 8.09114 249.878 8.7725C249.115 9.45386 248.776 10.2204 248.776 11.2424C248.776 12.1793 249.115 12.9458 249.878 13.4568C250.556 13.9679 251.404 14.2234 252.421 14.2234C253.354 14.2234 254.287 14.053 255.219 13.542L254.795 16.4378C253.863 16.8636 252.761 17.1191 251.658 17.1191C249.963 17.1191 248.437 16.6081 247.334 15.5861C246.232 14.5641 245.639 13.2013 245.639 11.4979C245.639 9.6242 246.317 8.09114 247.589 6.89876C248.945 5.62121 250.556 5.02503 252.506 5.02503C253.948 5.02503 255.135 5.3657 256.237 5.96189L255.728 8.60216ZM257.085 16.7785L258.95 5.19536H262.256L261.493 9.36869L266.072 5.19536H270.226L264.291 10.6462L269.209 16.7785H265.393L261.154 11.6683L260.391 16.7785H257.085ZM280.909 5.19536H283.961L282.096 16.7785H278.874L279.892 10.1352L273.702 16.7785H270.65L272.515 5.19536H275.737L274.72 11.9238L280.909 5.19536ZM295.323 5.19536H298.375L296.594 16.7785H293.372L294.39 10.1352L288.201 16.7785H285.148L287.014 5.19536H290.235L289.218 11.8386L295.323 5.19536ZM291.507 0V0.34068C291.507 1.19238 292.101 1.78857 293.118 1.78857C294.22 1.78857 295.068 1.10721 295.238 0.0851677H297.527C297.103 2.46992 295.323 3.91781 292.949 3.91781C290.829 3.91781 289.218 2.64027 289.218 0.68136C289.218 0.51102 289.218 0.34068 289.303 0H291.507ZM305.242 16.7785L307.023 5.19536H310.329L309.651 9.36869L314.229 5.19536H318.299L312.449 10.6462L317.282 16.7785H313.466L309.227 11.6683L308.464 16.7785H305.242ZM329.576 6.55809C330.678 7.66529 331.271 9.02801 331.271 10.7314C331.271 12.4348 330.678 13.9679 329.406 15.2454C328.219 16.523 326.693 17.1191 324.828 17.1191C323.047 17.1191 321.606 16.6081 320.504 15.5009C319.401 14.3937 318.808 13.031 318.808 11.3276C318.808 9.6242 319.401 8.09114 320.673 6.89876C321.86 5.62121 323.471 5.02503 325.251 5.02503C327.032 4.93986 328.473 5.45088 329.576 6.55809ZM327.202 13.2013C327.88 12.52 328.219 11.6683 328.219 10.6462C328.219 8.94284 326.947 7.75046 325.251 7.75046C324.319 7.75046 323.556 8.09114 322.878 8.7725C322.199 9.45386 321.945 10.3056 321.945 11.3276C321.945 13.1162 323.132 14.2234 324.828 14.2234C325.76 14.2234 326.608 13.8827 327.202 13.2013ZM332.543 16.7785L334.408 5.19536H337.63L336.952 9.53903H341.7L342.378 5.19536H345.6L343.819 16.7785H340.513L341.276 12.2645H336.528L335.85 16.7785H332.543ZM346.787 16.7785L348.567 5.19536H357.724L357.3 8.00597H351.45L350.009 16.7785H346.787ZM360.437 21.4628H357.215L359.759 5.28053H362.981L362.726 6.64325C363.744 5.53604 365.016 5.02503 366.542 5.02503C367.983 5.02503 369.17 5.53605 370.018 6.55809C370.866 7.58012 371.374 8.85767 371.374 10.3907C371.374 12.1793 370.781 13.7123 369.679 15.1602C368.577 16.523 367.05 17.2043 365.27 17.2043C363.489 17.2043 362.048 16.3526 361.37 15.3306L360.437 21.4628ZM362.302 9.45386L361.794 12.52C362.218 13.4568 363.405 14.2234 364.676 14.2234C365.609 14.2234 366.372 13.8827 367.05 13.2013C367.729 12.52 367.983 11.6683 367.983 10.6462C367.983 8.94284 366.881 7.75046 365.185 7.75046C364.083 7.75046 362.981 8.51699 362.302 9.45386ZM383.16 13.3717L382.736 16.0971C381.718 16.7785 380.362 17.1191 378.666 17.1191C376.97 17.1191 375.529 16.6081 374.427 15.5861C373.324 14.5641 372.731 13.2013 372.731 11.5831C372.731 9.70937 373.324 8.17631 374.596 6.89876C375.783 5.62121 377.394 4.93985 379.175 4.93985C380.786 4.93985 381.973 5.36571 382.99 6.38775C383.923 7.32461 384.431 8.51699 384.431 9.96488C384.431 10.5611 384.346 11.2424 384.262 12.009H375.953C376.038 13.6272 377.564 14.3937 379.599 14.3937C380.786 14.3085 381.973 13.9679 383.16 13.3717ZM381.209 9.79454V9.6242C381.209 8.34665 380.362 7.49495 379.005 7.49495C377.564 7.49495 376.377 8.34665 376.038 9.79454H381.209ZM395.877 8.60216C394.86 8.09114 393.842 7.75046 392.825 7.75046C391.723 7.75046 390.79 8.09114 390.027 8.7725C389.264 9.45386 388.925 10.2204 388.925 11.2424C388.925 12.1793 389.264 12.9458 390.027 13.4568C390.705 13.9679 391.553 14.2234 392.571 14.2234C393.503 14.2234 394.436 14.053 395.369 13.542L394.945 16.4378C394.012 16.8636 392.91 17.1191 391.808 17.1191C390.112 17.1191 388.586 16.6081 387.484 15.5861C386.381 14.5641 385.788 13.2013 385.788 11.4979C385.788 9.6242 386.466 8.09114 387.738 6.89876C389.094 5.62121 390.705 5.02503 392.655 5.02503C394.097 5.02503 395.284 5.3657 396.386 5.96189L395.877 8.60216ZM407.493 8.60216C406.475 8.09114 405.458 7.75046 404.44 7.75046C403.338 7.75046 402.406 8.09114 401.643 8.7725C400.88 9.45386 400.54 10.2204 400.54 11.2424C400.54 12.1793 400.88 12.9458 401.643 13.4568C402.321 13.9679 403.169 14.2234 404.186 14.2234C405.119 14.2234 406.051 14.053 406.984 13.542L406.56 16.4378C405.627 16.8636 404.525 17.1191 403.423 17.1191C401.727 17.1191 400.201 16.6081 399.099 15.5861C397.997 14.5641 397.403 13.2013 397.403 11.4979C397.403 9.6242 398.082 8.09114 399.353 6.89876C400.71 5.62121 402.321 5.02503 404.271 5.02503C405.712 5.02503 406.899 5.3657 408.001 5.96189L407.493 8.60216Z" fill="#272727"/>
<path d="M13.8916 12.2488C20.4851 11.7044 26.4463 6.53268 27.9818 0V0.0907317H29.8785C28.2527 7.62146 21.2077 13.7912 13.6207 14.1541L13.2594 16.6039H11.3626L11.7239 14.1541C8.20139 13.8819 5.13047 12.3395 2.96276 9.79902C0.704722 7.1678 -0.288813 3.72 0.0724726 0H1.8789C1.51761 3.26634 2.42083 6.26048 4.31758 8.52877C6.21432 10.7971 8.92397 12.0673 11.9949 12.2488L12.3562 9.70829C10.0078 9.43609 7.93043 8.34731 6.48529 6.62341C4.94982 4.80878 4.22725 2.54049 4.4079 0H6.21432C6.03368 2.08683 6.57561 3.99219 7.84011 5.4439C9.01429 6.8956 10.7304 7.71219 12.6271 7.89365L13.0787 5.26243C11.9046 5.08097 10.911 4.44585 10.0981 3.53853C9.28525 2.54049 8.83364 1.36097 8.83364 0H10.6401C10.6401 0.907316 10.911 1.7239 11.453 2.35902C11.9046 2.90341 12.6271 3.26634 13.3497 3.4478L13.8916 0H15.7884L15.2465 3.4478C17.0529 2.99414 18.5883 1.7239 19.2206 0H21.1173C20.3948 2.81268 17.7755 4.99024 14.9755 5.35317L14.5239 7.80292C18.6787 7.34926 22.4722 4.08292 23.556 0H25.4528C24.2786 5.1717 19.4916 9.34536 14.2529 9.70829L13.8916 12.2488Z" fill="#272727"/>
</svg>
